{
.appVersion = "1075";
copyright = "Digitized data copyright (C) 2010-2011, Google Corporation.";
customParameters = (
{
name = vendorID;
value = "1ASC";
},
{
name = panose;
value = (
2,
11,
3,
6,
3,
5,
4,
2,
2,
4
);
},
{
name = unicodeRanges;
value = (
0,
1,
2,
3,
5,
6,
7,
9,
11,
29,
30,
31,
32,
33,
35,
36,
38,
45,
62,
67,
69
);
},
{
name = codePageRanges;
value = (
1252,
1250,
1251,
1253,
1254,
1255,
1257,
1258
);
}
);
date = "2017-11-07 16:57:07 +0000";
designerURL = "http://www.ascendercorp.com/typedesigners.html";
disablesNiceNames = 1;
familyName = "Open Sans Condensed";
featurePrefixes = (
{
automatic = 1;
code = "languagesystem DFLT dflt;\012languagesystem latn dflt;\012languagesystem hebr dflt;\012languagesystem latn ROM;\012languagesystem latn MOL;\012languagesystem latn CAT;\012";
name = Languagesystems;
}
);
features = (
{
automatic = 1;
code = "feature lnum;\012feature locl;\012feature onum;\012feature pnum;\012feature ss01;\012feature ss02;\012feature salt;\012feature tnum;\012feature ccmp;\012feature sups;\012feature frac;\012feature ordn;\012feature case;\012";
name = aalt;
},
{
automatic = 1;
code = "lookup ccmp_Other_1 {\012	@CombiningTopAccents = [acutecomb brevecomb caroncomb circumflexcomb commaturnedabovecomb dblgravecomb dieresiscomb dotaccentcomb gravecomb hookabovecomb hungarumlautcomb macroncomb ringcomb tildecomb];\012	@CombiningNonTopAccents = [cedillacomb dotbelowcomb ogonekcomb];\012	sub [i j]' @CombiningTopAccents by [idotless jdotless];\012	sub [i j]' @CombiningNonTopAccents @CombiningTopAccents by [idotless jdotless];\012} ccmp_Other_1;\012";
name = ccmp;
},
{
automatic = 1;
code = "script latn;\012language ROM;\012sub Scedilla by Scommaaccent;\012sub scedilla by scommaaccent;\012sub Tcedilla by Tcommaaccent;\012language MOL;\012sub Scedilla by Scommaaccent;\012sub scedilla by scommaaccent;\012sub Tcedilla by Tcommaaccent;\012language CAT;\012sub  l' periodcentered' l by ldot;\012sub  L' periodcentered' L by Ldot;\012";

glyphs = (
{
glyphname = A;
lastChange = "2018-03-21 20:06:39 +0000";
layers = (
{
anchors = (
{
name = bottom;
position = "{251, 0}";
},
{
name = ogonek;
position = "{650, 10}";
},
{
name = top;
position = "{561, 1462}";
}
);
layerId = "9047BFCD-DDCC-4357-AC30-29E5270711EF";
paths = (
{
closed = 1;
nodes = (
"651 1468 LINE",
"528 1468 LINE",
"-78 0 LINE",
"27 0 LINE",
"248 530 LINE",
"555 530 LINE",
"555 0 LINE",
"651 0 LINE"
);
},
{
closed = 1;
nodes = (
"409 944 OFFCURVE",
"484 1135 OFFCURVE",
"509 1202 CURVE SMOOTH",
"534 1269 OFFCURVE",
"551 1319 OFFCURVE",
"561 1354 CURVE",
"558 1236 OFFCURVE",
"555 1117 OFFCURVE",
"555 999 CURVE SMOOTH",
"555 629 LINE",
"283 629 LINE"
);
}
);
width = 731;
}
);
note = A;
unicode = 0041;
},
{
glyphname = Aringacute;
lastChange = "2018-03-21 20:06:56 +0000";
layers = (
{
layerId = "9047BFCD-DDCC-4357-AC30-29E5270711EF";
paths = (
{
closed = 1;
nodes = (
"745 1505 OFFCURVE",
"667 1577 OFFCURVE",
"552 1577 CURVE SMOOTH",
"436 1577 OFFCURVE",
"365 1504 OFFCURVE",
"365 1388 CURVE SMOOTH",
"365 1313 OFFCURVE",
"395 1256 OFFCURVE",
"455 1225 CURVE",
"-68 0 LINE",
"39 0 LINE",
"260 530 LINE",
"547 530 LINE",
"567 0 LINE",
"664 0 LINE",
"616 1212 LINE",
"698 1235 OFFCURVE",
"745 1304 OFFCURVE",
"745 1392 CURVE SMOOTH"
);
},
{
closed = 1;
nodes = (
"535 1198 LINE",
"547 629 LINE",
"297 629 LINE"
);
},
{
closed = 1;
nodes = (
"670 1320 OFFCURVE",
"625 1276 OFFCURVE",
"552 1276 CURVE SMOOTH",
"479 1276 OFFCURVE",
"440 1320 OFFCURVE",
"440 1388 CURVE SMOOTH",
"440 1460 OFFCURVE",
"483 1507 OFFCURVE",
"555 1507 CURVE SMOOTH",
"627 1507 OFFCURVE",
"670 1459 OFFCURVE",
"670 1391 CURVE SMOOTH"
);
},
{
closed = 1;
nodes = (
"669 1715 OFFCURVE",
"789 1829 OFFCURVE",
"860 1921 CURVE",
"860 1937 LINE",
"721 1937 LINE",
"658 1826 OFFCURVE",
"582 1734 OFFCURVE",
"518 1657 CURVE",
"518 1640 LINE",
"569 1640 LINE"
);
}
);
width = 731;
}
);
note = Aringacute;
unicode = 01FA;
},
{
glyphname = AE;
lastChange = "2018-03-21 20:07:14 +0000";
layers = (
{
anchors = (
{
name = bottom;
position = "{403, 0}";
},
{
name = top;
position = "{883, 1462}";
}
);
layerId = "9047BFCD-DDCC-4357-AC30-29E5270711EF";
paths = (
{
closed = 1;
nodes = (
"512 94 LINE",
"645 719 LINE",
"1001 719 LINE",
"1022 813 LINE",
"666 813 LINE",
"782 1366 LINE",
"1159 1366 LINE",
"1180 1462 LINE",
"608 1462 LINE",
"-76 0 LINE",
"25 0 LINE",
"270 530 LINE",
"506 530 LINE",
"393 0 LINE",
"870 0 LINE",
"889 94 LINE"
);
},
{
closed = 1;
nodes = (
"682 1364 LINE",
"526 629 LINE",
"313 629 LINE",
"653 1364 LINE"
);
}
);
width = 1036;
}
);
note = AE;
unicode = 00C6;
},
{
glyphname = B;
lastChange = "2018-03-21 19:44:00 +0000";
layers = (
{
anchors = (
{
name = bottom;
position = "{294, 0}";
},
{
name = top;
position = "{604, 1462}";
}
);
layerId = "9047BFCD-DDCC-4357-AC30-29E5270711EF";
paths = (
{
closed = 1;
nodes = (
"338 0 LINE SMOOTH",
"429 0 OFFCURVE",
"506 21 OFFCURVE",
"571 64 CURVE SMOOTH",
"700 148 OFFCURVE",
"770 309 OFFCURVE",
"770 510 CURVE SMOOTH",
"770 638 OFFCURVE",
"703 741 OFFCURVE",
"606 766 CURVE",
"608 772 LINE",
"781 805 OFFCURVE",
"887 965 OFFCURVE",
"887 1188 CURVE SMOOTH",
"887 1353 OFFCURVE",
"773 1462 OFFCURVE",
"600 1462 CURVE SMOOTH",
"375 1462 LINE",
"66 0 LINE"
);
},
{
closed = 1;
nodes = (
"578 1366 LINE SMOOTH",
"717 1366 OFFCURVE",
"784 1305 OFFCURVE",
"784 1176 CURVE SMOOTH",
"784 1107 OFFCURVE",
"772 1044 OFFCURVE",
"747 989 CURVE SMOOTH",
"697 877 OFFCURVE",
"603 813 OFFCURVE",
"483 813 CURVE SMOOTH",
"336 813 LINE",
"455 1366 LINE"
);
},
{
closed = 1;
nodes = (
"596 719 OFFCURVE",
"668 633 OFFCURVE",
"668 494 CURVE SMOOTH",
"668 247 OFFCURVE",
"547 94 OFFCURVE",
"342 94 CURVE SMOOTH",
"184 94 LINE",
"317 719 LINE",
"475 719 LINE SMOOTH"
);
}
);
width = 817;
}
);
note = B;
unicode = 0042;
},
{
glyphname = C;
lastChange = "2018-03-21 20:07:57 +0000";
layers = (
{
anchors = (
{
name = bottom;
position = "{375, 0}";
},
{
name = top;
position = "{751, 1462}";
}
);
layerId = "9047BFCD-DDCC-4357-AC30-29E5270711EF";
paths = (
{
closed = 1;
nodes = (
"795 1389 OFFCURVE",
"845 1372 OFFCURVE",
"885 1337 CURVE",
"946 1423 LINE",
"895 1466 OFFCURVE",
"825 1485 OFFCURVE",
"753 1485 CURVE SMOOTH",
"642 1485 OFFCURVE",
"540 1439 OFFCURVE",
"447 1344 CURVE SMOOTH",
"258 1152 OFFCURVE",
"135 792 OFFCURVE",
"135 447 CURVE SMOOTH",
"135 131 OFFCURVE",
"238 -20 OFFCURVE",
"445 -20 CURVE SMOOTH",
"503 -20 OFFCURVE",
"566 -8 OFFCURVE",
"629 16 CURVE",
"629 111 LINE",
"565 85 OFFCURVE",
"508 72 OFFCURVE",
"457 72 CURVE SMOOTH",
"299 72 OFFCURVE",
"233 196 OFFCURVE",
"233 455 CURVE SMOOTH",
"233 601 OFFCURVE",
"254 747 OFFCURVE",
"306 905 CURVE SMOOTH",
"408 1216 OFFCURVE",
"566 1389 OFFCURVE",
"740 1389 CURVE SMOOTH"
);
}
);
width = 727;
}
);
note = C;
unicode = 0043;
},
{
glyphname = D;
lastChange = "2018-03-21 20:08:05 +0000";
layers = (
{
anchors = (
{
name = bottom;
position = "{333, 0}";
},
{
name = center;
position = "{488, 731}";
},
{
name = top;
position = "{643, 1462}";
}
);
layerId = "9047BFCD-DDCC-4357-AC30-29E5270711EF";
paths = (
{
closed = 1;
nodes = (
"913 1320 OFFCURVE",
"813 1462 OFFCURVE",
"592 1462 CURVE SMOOTH",
"375 1462 LINE",
"66 0 LINE",
"256 0 LINE SMOOTH",
"384 0 OFFCURVE",
"504 43 OFFCURVE",
"601 129 CURVE SMOOTH",
"796 302 OFFCURVE",
"913 664 OFFCURVE",
"913 1005 CURVE SMOOTH"
);
},
{
closed = 1;
nodes = (
"455 1366 LINE",
"578 1366 LINE SMOOTH",
"744 1366 OFFCURVE",
"809 1254 OFFCURVE",
"809 1023 CURVE SMOOTH",
"809 883 OFFCURVE",
"785 708 OFFCURVE",
"738 555 CURVE SMOOTH",
"647 259 OFFCURVE",
"480 94 OFFCURVE",
"276 94 CURVE SMOOTH",
"184 94 LINE"
);
}
);
width = 895;
}
);
note = D;
unicode = 0044;
},
{
glyphname = Eth;
lastChange = "2018-03-21 20:08:07 +0000";
layers = (
{
layerId = "9047BFCD-DDCC-4357-AC30-29E5270711EF";
paths = (
{
closed = 1;
nodes = (
"913 1320 OFFCURVE",
"813 1462 OFFCURVE",
"592 1462 CURVE SMOOTH",
"375 1462 LINE",
"233 807 LINE",
"145 807 LINE",
"127 715 LINE",
"215 715 LINE",
"66 0 LINE",
"256 0 LINE SMOOTH",
"384 0 OFFCURVE",
"504 43 OFFCURVE",
"601 129 CURVE SMOOTH",
"796 302 OFFCURVE",
"913 664 OFFCURVE",
"913 1005 CURVE SMOOTH"
);
},
{
closed = 1;
nodes = (
"313 715 LINE",
"506 715 LINE",
"524 807 LINE",
"334 807 LINE",
"455 1366 LINE",
"578 1366 LINE SMOOTH",
"744 1366 OFFCURVE",
"809 1254 OFFCURVE",
"809 1023 CURVE SMOOTH",
"809 883 OFFCURVE",
"785 708 OFFCURVE",
"738 555 CURVE SMOOTH",
"647 259 OFFCURVE",
"480 94 OFFCURVE",
"276 94 CURVE SMOOTH",
"184 94 LINE"
);
}
);
width = 895;
}
);
note = Eth;
unicode = 00D0;
},
{
glyphname = E;
lastChange = "2018-03-21 20:08:28 +0000";
layers = (
{
anchors = (
{
name = bottom;
position = "{240, 0}";
},
{
name = ogonek;
position = "{523, 10}";
},
{
name = top;
position = "{590, 1462}";
},
{
name = topleft;
position = "{215, 1462}";
}
);
layerId = "9047BFCD-DDCC-4357-AC30-29E5270711EF";
paths = (
{
closed = 1;
nodes = (
"184 94 LINE",
"317 719 LINE",
"672 719 LINE",
"692 813 LINE",
"338 813 LINE",
"455 1366 LINE",
"831 1366 LINE",
"852 1462 LINE",
"375 1462 LINE",
"66 0 LINE",
"543 0 LINE",
"561 94 LINE"
);
}
);
width = 709;
}
);
note = E;
unicode = 0045;
},
{
glyphname = F;
lastChange = "2018-03-21 19:44:00 +0000";
layers = (
{
anchors = (
{
name = bottom;
position = "{213, 0}";
},
{
name = top;
position = "{523, 1462}";
}
);
layerId = "9047BFCD-DDCC-4357-AC30-29E5270711EF";
paths = (
{
closed = 1;
nodes = (
"662 657 LINE",
"682 752 LINE",
"326 752 LINE",
"455 1366 LINE",
"834 1366 LINE",
"854 1462 LINE",
"375 1462 LINE",
"66 0 LINE",
"166 0 LINE",
"305 657 LINE"
);
}
);
width = 655;
}
);
note = F;
unicode = 0046;
},
{
glyphname = G;
lastChange = "2018-03-21 20:15:05 +0000";
layers = (
{
anchors = (
{
name = bottom;
position = "{429, 0}";
},
{
name = top;
position = "{770, 1462}";
}
);
layerId = "9047BFCD-DDCC-4357-AC30-29E5270711EF";
paths = (
{
closed = 1;
nodes = (
"819 647 LINE",
"702 100 LINE",
"641 81 OFFCURVE",
"574 72 OFFCURVE",
"516 72 CURVE SMOOTH",
"318 72 OFFCURVE",
"233 176 OFFCURVE",
"233 440 CURVE SMOOTH",
"233 665 OFFCURVE",
"295 928 OFFCURVE",
"389 1109 CURVE SMOOTH",
"486 1296 OFFCURVE",
"611 1389 OFFCURVE",
"766 1389 CURVE SMOOTH",
"836 1389 OFFCURVE",
"911 1370 OFFCURVE",
"1001 1303 CURVE",
"1065 1391 LINE",
"976 1456 OFFCURVE",
"869 1485 OFFCURVE",
"770 1485 CURVE SMOOTH",
"589 1485 OFFCURVE",
"441 1387 OFFCURVE",
"325 1184 CURVE SMOOTH",
"210 983 OFFCURVE",
"135 688 OFFCURVE",
"135 441 CURVE SMOOTH",
"135 127 OFFCURVE",
"257 -20 OFFCURVE",
"508 -20 CURVE SMOOTH",
"598 -20 OFFCURVE",
"701 -1 OFFCURVE",
"788 33 CURVE",
"940 741 LINE",
"645 741 LINE",
"625 647 LINE"
);
}
);
width = 967;
}
);
note = G;
unicode = 0047;
},
{
glyphname = H;
lastChange = "2018-03-21 20:15:27 +0000";
layers = (
{
anchors = (
{
name = bottom;
position = "{347, 0}";
},
{
name = center;
position = "{502, 731}";
},
{
name = top;
position = "{677, 1462}";
},
{
name = topleft;
position = "{215, 1462}";
}
);
layerId = "9047BFCD-DDCC-4357-AC30-29E5270711EF";
paths = (
{
closed = 1;
nodes = (
"913 1462 LINE",
"776 815 LINE",
"336 815 LINE",
"473 1462 LINE",
"375 1462 LINE",
"66 0 LINE",
"164 0 LINE",
"315 717 LINE",
"756 717 LINE",
"604 0 LINE",
"702 0 LINE",
"1012 1462 LINE"
);
}
);
width = 924;
}
);
note = H;
unicode = 0048;
},
{
glyphname = Hbar;
lastChange = "2018-03-21 18:39:54 +0000";
layers = (
{
layerId = "9047BFCD-DDCC-4357-AC30-29E5270711EF";
paths = (
{
closed = 1;
nodes = (
"1075 1087 LINE",
"1096 1184 LINE",
"952 1184 LINE",
"1012 1462 LINE",
"911 1462 LINE",
"852 1184 LINE",
"414 1184 LINE",
"473 1462 LINE",
"375 1462 LINE",
"315 1184 LINE",
"172 1184 LINE",
"152 1087 LINE",
"295 1087 LINE",
"66 0 LINE",
"164 0 LINE",
"315 717 LINE",
"754 717 LINE",
"602 0 LINE",
"702 0 LINE",
"932 1087 LINE"
);
},
{
closed = 1;
nodes = (
"393 1087 LINE",
"831 1087 LINE",
"774 815 LINE",
"336 815 LINE"
);
}
);
width = 924;
}
);
note = Hbar;
unicode = 0126;
},
{
glyphname = I;
lastChange = "2018-03-21 20:15:50 +0000";
layers = (
{
anchors = (
{
name = bottom;
position = "{94, 0}";
},
{
name = ogonek;
position = "{163, 10}";
},
{
name = top;
position = "{404, 1462}";
},
{
name = topleft;
position = "{215, 1462}";
}
);
layerId = "9047BFCD-DDCC-4357-AC30-29E5270711EF";
paths = (
{
closed = 1;
nodes = (
"473 1462 LINE",
"375 1462 LINE",
"66 0 LINE",
"164 0 LINE"
);
}
);
width = 418;
}
);
note = I;
unicode = 0049;
},
{
glyphname = J;
lastChange = "2018-03-21 20:16:18 +0000";
layers = (
{
anchors = (
{
name = bottom;
position = "{65, 0}";
},
{
name = top;
position = "{415, 1462}";
}
);
layerId = "9047BFCD-DDCC-4357-AC30-29E5270711EF";
paths = (
{
closed = 1;
nodes = (
"27 -369 OFFCURVE",
"108 -275 OFFCURVE",
"154 -57 CURVE SMOOTH",
"475 1462 LINE",
"377 1462 LINE",
"59 -35 LINE SMOOTH",
"24 -201 OFFCURVE",
"-15 -272 OFFCURVE",
"-110 -272 CURVE SMOOTH",
"-140 -272 OFFCURVE",
"-171 -265 OFFCURVE",
"-199 -252 CURVE",
"-227 -344 LINE",
"-198 -361 OFFCURVE",
"-159 -369 OFFCURVE",
"-117 -369 CURVE SMOOTH"
);
}
);
width = 360;
}
);
note = J;
unicode = 004A;
},
{
glyphname = K;
lastChange = "2018-03-21 20:16:28 +0000";
layers = (
{
anchors = (
{
name = bottom;
position = "{327, 0}";
},
{
name = top;
position = "{567, 1462}";
}
);
layerId = "9047BFCD-DDCC-4357-AC30-29E5270711EF";
paths = (
{
closed = 1;
nodes = (
"948 1462 LINE",
"848 1462 LINE",
"432 868 LINE",
"309 688 LINE",
"473 1462 LINE",
"375 1462 LINE",
"66 0 LINE",
"164 0 LINE",
"287 580 LINE",
"416 709 LINE",
"565 0 LINE",
"666 0 LINE",
"496 795 LINE"
);
}
);
width = 743;
}
);
note = K;
unicode = 004B;
},
{
glyphname = L;
lastChange = "2018-03-21 20:16:34 +0000";
layers = (
{
anchors = (
{
name = bottom;
position = "{275, 0}";
},
{
name = center;
position = "{360, 731}";
},
{
name = top;
position = "{515, 1462}";
},
{
name = topright;
position = "{814, 1462}";
}
);
layerId = "9047BFCD-DDCC-4357-AC30-29E5270711EF";
paths = (
{
closed = 1;
nodes = (
"543 94 LINE",
"184 94 LINE",
"473 1462 LINE",
"375 1462 LINE",
"66 0 LINE",
"524 0 LINE"
);
}
);
width = 639;
}
);
note = L;
unicode = 004C;
},
{
glyphname = Ldot;
lastChange = "2018-03-21 18:39:54 +0000";
layers = (
{
layerId = "9047BFCD-DDCC-4357-AC30-29E5270711EF";
paths = (
{
closed = 1;
nodes = (
"543 94 LINE",
"184 94 LINE",
"473 1462 LINE",
"375 1462 LINE",
"66 0 LINE",
"524 0 LINE"
);
},
{
closed = 1;
nodes = (
"483 675 OFFCURVE",
"499 654 OFFCURVE",
"532 654 CURVE SMOOTH",
"580 654 OFFCURVE",
"612 709 OFFCURVE",
"612 785 CURVE SMOOTH",
"612 824 OFFCURVE",
"596 843 OFFCURVE",
"565 843 CURVE SMOOTH",
"517 843 OFFCURVE",
"483 786 OFFCURVE",
"483 718 CURVE SMOOTH"
);
}
);
width = 639;
}
);
note = Ldot;
unicode = 013F;
},
{
glyphname = Lslash;
lastChange = "2018-03-21 18:39:54 +0000";
layers = (
{
layerId = "9047BFCD-DDCC-4357-AC30-29E5270711EF";
paths = (
{
closed = 1;
nodes = (
"543 94 LINE",
"184 94 LINE",
"293 614 LINE",
"580 780 LINE",
"543 856 LINE",
"317 725 LINE",
"473 1462 LINE",
"375 1462 LINE",
"205 659 LINE",
"16 551 LINE",
"51 475 LINE",
"182 551 LINE",
"66 0 LINE",
"524 0 LINE"
);
}
);
width = 639;
}
);
note = Lslash;
unicode = 0141;
},
{
glyphname = M;
lastChange = "2018-03-21 20:17:51 +0000";
layers = (
{
anchors = (
{
name = bottom;
position = "{513, 0}";
},
{
name = top;
position = "{863, 1462}";
}
);
layerId = "9047BFCD-DDCC-4357-AC30-29E5270711EF";
paths = (
{
closed = 1;
nodes = (
"1217 1329 LINE",
"1221 1329 LINE",
"1172 1122 LINE",
"934 0 LINE",
"1034 0 LINE",
"1343 1462 LINE",
"1174 1462 LINE",
"680 352 LINE SMOOTH",
"618 214 OFFCURVE",
"589 147 OFFCURVE",
"573 102 CURVE",
"571 102 LINE",
"572 128 OFFCURVE",
"573 154 OFFCURVE",
"573 184 CURVE SMOOTH",
"573 212 OFFCURVE",
"571 283 OFFCURVE",
"569 354 CURVE SMOOTH",
"535 1462 LINE",
"375 1462 LINE",
"66 0 LINE",
"162 0 LINE",
"392 1091 LINE",
"436 1331 LINE",
"442 1331 LINE",
"494 0 LINE",
"621 0 LINE"
);
}
);
width = 1255;
}
);
note = M;
unicode = 004D;
},
{
glyphname = N;
lastChange = "2018-03-21 20:18:14 +0000";
layers = (
{
anchors = (
{
name = bottom;
position = "{376, 0}";
},
{
name = top;
position = "{756, 1462}";
}
);
layerId = "9047BFCD-DDCC-4357-AC30-29E5270711EF";
paths = (
{
closed = 1;
nodes = (
"971 1462 LINE",
"754 440 LINE SMOOTH",
"740 374 OFFCURVE",
"729 311 OFFCURVE",
"705 166 CURVE",
"698 166 LINE",
"506 1462 LINE",
"375 1462 LINE",
"66 0 LINE",
"164 0 LINE",
"385 1049 LINE SMOOTH",
"406 1147 OFFCURVE",
"421 1234 OFFCURVE",
"430 1311 CURVE",
"438 1311 LINE",
"639 0 LINE",
"760 0 LINE",
"1069 1462 LINE"
);
}
);
width = 981;
}
);
note = N;
unicode = 004E;
},
{
glyphname = Eng;
lastChange = "2018-03-21 20:18:26 +0000";
layers = (
{
layerId = "9047BFCD-DDCC-4357-AC30-29E5270711EF";
paths = (
{
closed = 1;
nodes = (
"588 -365 OFFCURVE",
"646 -329 OFFCURVE",
"690 -236 CURVE SMOOTH",
"712 -190 OFFCURVE",
"737 -111 OFFCURVE",
"760 0 CURVE SMOOTH",
"1069 1462 LINE",
"971 1462 LINE",
"832 815 OFFCURVE",
"755 450 OFFCURVE",
"739 366 CURVE SMOOTH",
"723 282 OFFCURVE",
"712 217 OFFCURVE",
"705 172 CURVE",
"698 172 LINE",
"506 1462 LINE",
"375 1462 LINE",
"66 0 LINE",
"164 0 LINE",
"385 1049 LINE SMOOTH",
"406 1147 OFFCURVE",
"421 1234 OFFCURVE",
"430 1311 CURVE",
"438 1311 LINE",
"645 -25 LINE",
"624 -189 OFFCURVE",
"574 -262 OFFCURVE",
"487 -262 CURVE SMOOTH",
"445 -262 OFFCURVE",
"411 -255 OFFCURVE",
"385 -240 CURVE",
"365 -336 LINE",
"380 -351 OFFCURVE",
"441 -365 OFFCURVE",
"477 -365 CURVE SMOOTH"
);
}
);
width = 981;
}
);
note = Eng;
unicode = 014A;
},
{
glyphname = O;
lastChange = "2018-03-21 20:58:42 +0000";
layers = (
{
anchors = (
{
name = bottom;
position = "{404, 0}";
},
{
name = center;
position = "{519, 731}";
},
{
name = ogonek;
position = "{467, 10}";
},
{
name = top;
position = "{711, 1462}";
},
{
name = topleft;
position = "{215, 1462}";
},
{
name = topright;
position = "{1133, 1462}";
}
);
layerId = "9047BFCD-DDCC-4357-AC30-29E5270711EF";
paths = (
{
closed = 1;
nodes = (
"513 -20 OFFCURVE",
"605 28 OFFCURVE",
"690 125 CURVE SMOOTH",
"859 318 OFFCURVE",
"977 721 OFFCURVE",
"977 1100 CURVE SMOOTH",
"977 1355 OFFCURVE",
"885 1483 OFFCURVE",
"702 1483 CURVE SMOOTH",
"545 1483 OFFCURVE",
"410 1381 OFFCURVE",
"306 1170 CURVE SMOOTH",
"201 958 OFFCURVE",
"135 640 OFFCURVE",
"135 379 CURVE SMOOTH",
"135 113 OFFCURVE",
"227 -20 OFFCURVE",
"412 -20 CURVE SMOOTH"
);
},
{
closed = 1;
nodes = (
"233 597 OFFCURVE",
"291 899 OFFCURVE",
"376 1095 CURVE SMOOTH",
"461 1291 OFFCURVE",
"571 1389 OFFCURVE",
"692 1389 CURVE SMOOTH",
"817 1389 OFFCURVE",
"879 1293 OFFCURVE",
"879 1100 CURVE SMOOTH",
"879 879 OFFCURVE",
"822 584 OFFCURVE",
"738 385 CURVE SMOOTH",
"654 185 OFFCURVE",
"543 74 OFFCURVE",
"420 74 CURVE SMOOTH",
"295 74 OFFCURVE",
"233 175 OFFCURVE",
"233 377 CURVE SMOOTH"
);
}
);
width = 958;
}
);
note = O;
unicode = 004F;
},
{
glyphname = Ohorn;
lastChange = "2018-03-21 21:02:54 +0000";
layers = (
{
anchors = (
{
name = bottom;
position = "{404, 0}";
},
{
name = top;
position = "{704, 1462}";
}
);
layerId = "9047BFCD-DDCC-4357-AC30-29E5270711EF";
paths = (
{
closed = 1;
nodes = (
"513 -20 OFFCURVE",
"605 28 OFFCURVE",
"690 125 CURVE SMOOTH",
"859 318 OFFCURVE",
"977 721 OFFCURVE",
"977 1100 CURVE SMOOTH",
"977 1127 OFFCURVE",
"976 1153 OFFCURVE",
"973 1178 CURVE",
"1126 1236 OFFCURVE",
"1219 1353 OFFCURVE",
"1251 1530 CURVE",
"1243 1556 LINE",
"1159 1556 LINE",
"1132 1396 OFFCURVE",
"1070 1294 OFFCURVE",
"961 1255 CURVE",
"928 1407 OFFCURVE",
"841 1483 OFFCURVE",
"702 1483 CURVE SMOOTH",
"545 1483 OFFCURVE",
"410 1381 OFFCURVE",
"306 1170 CURVE SMOOTH",
"201 958 OFFCURVE",
"135 640 OFFCURVE",
"135 379 CURVE SMOOTH",
"135 113 OFFCURVE",
"227 -20 OFFCURVE",
"412 -20 CURVE SMOOTH"
);
},
{
closed = 1;
nodes = (
"233 597 OFFCURVE",
"291 899 OFFCURVE",
"376 1095 CURVE SMOOTH",
"461 1291 OFFCURVE",
"571 1389 OFFCURVE",
"692 1389 CURVE SMOOTH",
"817 1389 OFFCURVE",
"879 1293 OFFCURVE",
"879 1100 CURVE SMOOTH",
"879 879 OFFCURVE",
"822 584 OFFCURVE",
"738 385 CURVE SMOOTH",
"654 185 OFFCURVE",
"543 74 OFFCURVE",
"420 74 CURVE SMOOTH",
"295 74 OFFCURVE",
"233 175 OFFCURVE",
"233 377 CURVE SMOOTH"
);
}
);
width = 958;
}
);
note = Ohorn;
unicode = 01A0;
},
{
glyphname = Oslash;
lastChange = "2018-03-21 21:03:23 +0000";
layers = (
{
anchors = (
{
name = bottom;
position = "{404, 0}";
},
{
name = top;
position = "{704, 1462}";
}
);
layerId = "9047BFCD-DDCC-4357-AC30-29E5270711EF";
paths = (
{
closed = 1;
nodes = (
"511 -20 OFFCURVE",
"606 27 OFFCURVE",
"690 125 CURVE SMOOTH",
"858 321 OFFCURVE",
"977 719 OFFCURVE",
"977 1088 CURVE SMOOTH",
"977 1171 OFFCURVE",
"971 1221 OFFCURVE",
"956 1280 CURVE",
"1096 1501 LINE",
"1024 1546 LINE",
"915 1374 LINE",
"870 1447 OFFCURVE",
"798 1483 OFFCURVE",
"704 1483 CURVE SMOOTH",
"541 1483 OFFCURVE",
"407 1376 OFFCURVE",
"306 1170 CURVE SMOOTH",
"199 951 OFFCURVE",
"135 636 OFFCURVE",
"135 386 CURVE SMOOTH",
"135 292 OFFCURVE",
"144 225 OFFCURVE",
"162 170 CURVE",
"23 -53 LINE",
"92 -94 LINE",
"203 82 LINE",
"248 16 OFFCURVE",
"319 -20 OFFCURVE",
"409 -20 CURVE SMOOTH"
);
},
{
closed = 1;
nodes = (
"233 597 OFFCURVE",
"291 899 OFFCURVE",
"376 1095 CURVE SMOOTH",
"460 1290 OFFCURVE",
"571 1389 OFFCURVE",
"692 1389 CURVE SMOOTH",
"769 1389 OFFCURVE",
"822 1350 OFFCURVE",
"852 1272 CURVE",
"238 291 LINE",
"235 308 OFFCURVE",
"233 336 OFFCURVE",
"233 377 CURVE SMOOTH"
);
},
{
closed = 1;
nodes = (
"347 74 OFFCURVE",
"294 109 OFFCURVE",
"264 180 CURVE",
"877 1153 LINE",
"879 1135 OFFCURVE",
"879 1118 OFFCURVE",
"879 1100 CURVE SMOOTH",
"879 881 OFFCURVE",
"824 591 OFFCURVE",
"738 385 CURVE SMOOTH",
"654 185 OFFCURVE",
"544 74 OFFCURVE",
"418 74 CURVE SMOOTH"
);
}
);
width = 958;
}
);
note = Oslash;
unicode = 00D8;
},
{
glyphname = OE;
lastChange = "2018-03-21 21:04:04 +0000";
layers = (
{
anchors = (
{
name = bottom;
position = "{567, 0}";
},
{
name = top;
position = "{827, 1462}";
}
);
layerId = "9047BFCD-DDCC-4357-AC30-29E5270711EF";
paths = (
{
closed = 1;
nodes = (
"580 94 LINE",
"713 719 LINE",
"1067 719 LINE",
"1087 813 LINE",
"733 813 LINE",
"850 1366 LINE",
"1227 1366 LINE",
"1247 1462 LINE",
"895 1462 LINE",
"707 1467 LINE",
"603 1466 OFFCURVE",
"501 1423 OFFCURVE",
"416 1327 CURVE SMOOTH",
"246 1135 OFFCURVE",
"135 733 OFFCURVE",
"135 427 CURVE SMOOTH",
"135 121 OFFCURVE",
"246 -6 OFFCURVE",
"438 -6 CURVE",
"590 0 LINE",
"938 0 LINE",
"956 94 LINE"
);
},
{
closed = 1;
nodes = (
"304 86 OFFCURVE",
"233 169 OFFCURVE",
"233 405 CURVE SMOOTH",
"233 621 OFFCURVE",
"293 905 OFFCURVE",
"372 1085 CURVE SMOOTH",
"452 1267 OFFCURVE",
"562 1374 OFFCURVE",
"690 1374 CURVE SMOOTH",
"703 1374 OFFCURVE",
"738 1373 OFFCURVE",
"750 1372 CURVE",
"479 86 LINE"
);
}
);
width = 1104;
}
);
note = OE;
unicode = 0152;
},
{
glyphname = P;
lastChange = "2018-03-21 19:44:00 +0000";
layers = (
{
anchors = (
{
name = bottom;
position = "{271, 0}";
},
{
name = top;
position = "{581, 1462}";
}
);
layerId = "9047BFCD-DDCC-4357-AC30-29E5270711EF";
paths = (
{
closed = 1;
nodes = (
"858 1342 OFFCURVE",
"738 1462 OFFCURVE",
"545 1462 CURVE SMOOTH",
"375 1462 LINE",
"66 0 LINE",
"164 0 LINE",
"291 604 LINE",
"387 604 LINE SMOOTH",
"482 604 OFFCURVE",
"566 628 OFFCURVE",
"637 675 CURVE SMOOTH",
"780 770 OFFCURVE",
"858 946 OFFCURVE",
"858 1155 CURVE SMOOTH"
);
},
{
closed = 1;
nodes = (
"530 1366 LINE SMOOTH",
"673 1366 OFFCURVE",
"754 1282 OFFCURVE",
"754 1139 CURVE SMOOTH",
"754 859 OFFCURVE",
"618 698 OFFCURVE",
"381 698 CURVE SMOOTH",
"311 698 LINE",
"453 1366 LINE"
);
}
);
width = 772;
}
);
note = P;
unicode = 0050;
},
{
glyphname = Thorn;
lastChange = "2018-03-21 21:05:16 +0000";
layers = (
{
anchors = (
{
name = bottom;
position = "{263, 0}";
},
{
name = top;
position = "{573, 1462}";
}
);
layerId = "9047BFCD-DDCC-4357-AC30-29E5270711EF";
paths = (
{
closed = 1;
nodes = (
"66 0 LINE",
"164 0 LINE",
"233 334 LINE",
"330 334 LINE SMOOTH",
"415 334 OFFCURVE",
"502 355 OFFCURVE",
"572 399 CURVE SMOOTH",
"712 487 OFFCURVE",
"801 678 OFFCURVE",
"801 863 CURVE SMOOTH",
"801 1082 OFFCURVE",
"676 1192 OFFCURVE",
"481 1192 CURVE SMOOTH",
"416 1192 LINE",
"473 1462 LINE",
"375 1462 LINE"
);
},
{
closed = 1;
nodes = (
"473 1096 LINE SMOOTH",
"637 1096 OFFCURVE",
"696 1012 OFFCURVE",
"696 848 CURVE SMOOTH",
"696 601 OFFCURVE",
"561 428 OFFCURVE",
"324 428 CURVE SMOOTH",
"254 428 LINE",
"395 1096 LINE"
);
}
);
width = 756;
}
);
note = Thorn;
unicode = 00DE;
},
{
glyphname = Q;
lastChange = "2018-03-21 21:05:25 +0000";
layers = (
{
anchors = (
{
name = bottom;
position = "{364, 0}";
},
{
name = top;
position = "{674, 1462}";
}
);
layerId = "9047BFCD-DDCC-4357-AC30-29E5270711EF";
paths = (
{
closed = 1;
nodes = (
"539 -348 LINE",
"655 -348 LINE",
"541 8 LINE",
"621 42 OFFCURVE",
"695 112 OFFCURVE",
"759 215 CURVE SMOOTH",
"886 419 OFFCURVE",
"977 768 OFFCURVE",
"977 1061 CURVE SMOOTH",
"977 1348 OFFCURVE",
"890 1483 OFFCURVE",
"705 1483 CURVE SMOOTH",
"548 1483 OFFCURVE",
"411 1385 OFFCURVE",
"306 1170 CURVE SMOOTH",
"203 959 OFFCURVE",
"135 642 OFFCURVE",
"135 394 CURVE SMOOTH",
"135 113 OFFCURVE",
"222 -20 OFFCURVE",
"412 -20 CURVE SMOOTH",
"422 -20 OFFCURVE",
"432 -19 OFFCURVE",
"442 -18 CURVE"
);
},
{
closed = 1;
nodes = (
"233 508 OFFCURVE",
"254 682 OFFCURVE",
"296 851 CURVE SMOOTH",
"382 1198 OFFCURVE",
"521 1389 OFFCURVE",
"697 1389 CURVE SMOOTH",
"820 1389 OFFCURVE",
"879 1295 OFFCURVE",
"879 1090 CURVE SMOOTH",
"879 965 OFFCURVE",
"857 790 OFFCURVE",
"816 625 CURVE SMOOTH",
"731 282 OFFCURVE",
"588 74 OFFCURVE",
"414 74 CURVE SMOOTH",
"294 74 OFFCURVE",
"233 173 OFFCURVE",
"233 384 CURVE SMOOTH"
);
}
);
width = 958;
}
);
note = Q;
unicode = 0051;
},
{
glyphname = R;
lastChange = "2018-03-21 21:05:36 +0000";
layers = (
{
anchors = (
{
name = bottom;
position = "{323, 0}";
},
{
name = top;
position = "{603, 1462}";
}
);
layerId = "9047BFCD-DDCC-4357-AC30-29E5270711EF";
paths = (
{
closed = 1;
nodes = (
"561 0 LINE",
"668 0 LINE",
"547 657 LINE",
"607 669 OFFCURVE",
"661 699 OFFCURVE",
"708 746 CURVE SMOOTH",
"803 841 OFFCURVE",
"856 993 OFFCURVE",
"856 1153 CURVE SMOOTH",
"856 1346 OFFCURVE",
"742 1462 OFFCURVE",
"555 1462 CURVE SMOOTH",
"375 1462 LINE",
"66 0 LINE",
"164 0 LINE",
"299 639 LINE",
"444 639 LINE"
);
},
{
closed = 1;
nodes = (
"530 1366 LINE SMOOTH",
"673 1366 OFFCURVE",
"754 1288 OFFCURVE",
"754 1145 CURVE SMOOTH",
"754 880 OFFCURVE",
"631 729 OFFCURVE",
"422 729 CURVE SMOOTH",
"317 729 LINE",
"453 1366 LINE"
);
}
);
width = 795;
}
);
note = R;
unicode = 0052;
},
{
glyphname = S;
lastChange = "2018-03-21 21:05:49 +0000";
layers = (
{
anchors = (
{
name = bottom;
position = "{249, 0}";
},
{
name = top;
position = "{589, 1462}";
}
);
layerId = "9047BFCD-DDCC-4357-AC30-29E5270711EF";
paths = (
{
closed = 1;
nodes = (
"655 467 OFFCURVE",
"647 509 OFFCURVE",
"636 549 CURVE SMOOTH",
"606 658 OFFCURVE",
"569 698 OFFCURVE",
"461 813 CURVE SMOOTH",
"371 909 OFFCURVE",
"315 970 OFFCURVE",
"315 1097 CURVE SMOOTH",
"315 1154 OFFCURVE",
"326 1202 OFFCURVE",
"349 1246 CURVE SMOOTH",
"395 1334 OFFCURVE",
"478 1386 OFFCURVE",
"593 1386 CURVE SMOOTH",
"663 1386 OFFCURVE",
"730 1367 OFFCURVE",
"791 1329 CURVE",
"844 1423 LINE",
"796 1455 OFFCURVE",
"693 1483 OFFCURVE",
"598 1483 CURVE SMOOTH",
"526 1483 OFFCURVE",
"456 1467 OFFCURVE",
"398 1434 CURVE SMOOTH",
"284 1370 OFFCURVE",
"213 1242 OFFCURVE",
"213 1082 CURVE SMOOTH",
"213 1039 OFFCURVE",
"218 1007 OFFCURVE",
"229 969 CURVE SMOOTH",
"251 894 OFFCURVE",
"280 851 OFFCURVE",
"383 739 CURVE SMOOTH",
"440 677 OFFCURVE",
"469 645 OFFCURVE",
"493 608 CURVE SMOOTH",
"531 549 OFFCURVE",
"553 480 OFFCURVE",
"553 391 CURVE SMOOTH",
"553 197 OFFCURVE",
"450 74 OFFCURVE",
"265 74 CURVE SMOOTH",
"183 74 OFFCURVE",
"90 98 OFFCURVE",
"10 145 CURVE",
"10 37 LINE",
"59 6 OFFCURVE",
"160 -20 OFFCURVE",
"261 -20 CURVE SMOOTH",
"508 -20 OFFCURVE",
"655 134 OFFCURVE",
"655 404 CURVE SMOOTH"
);
}
);
width = 727;
}
);
note = S;
unicode = 0053;
},
{
glyphname = T;
lastChange = "2018-03-21 21:05:57 +0000";
layers = (
{
anchors = (
{
name = bottom;
position = "{205, 0}";
},
{
name = center;
position = "{360, 731}";
},
{
name = top;
position = "{545, 1462}";
}
);
layerId = "9047BFCD-DDCC-4357-AC30-29E5270711EF";
paths = (
{
closed = 1;
nodes = (
"836 1366 LINE",
"856 1462 LINE",
"244 1462 LINE",
"223 1366 LINE",
"479 1366 LINE",
"190 0 LINE",
"291 0 LINE",
"580 1366 LINE"
);
}
);
width = 639;
}
);
note = T;
unicode = 0054;
},
{
glyphname = Tbar;
lastChange = "2018-03-21 18:39:54 +0000";
layers = (
{
layerId = "9047BFCD-DDCC-4357-AC30-29E5270711EF";
paths = (
{
closed = 1;
nodes = (
"836 1366 LINE",
"856 1462 LINE",
"244 1462 LINE",
"223 1366 LINE",
"479 1366 LINE",
"360 801 LINE",
"170 801 LINE",
"154 725 LINE",
"344 725 LINE",
"190 0 LINE",
"291 0 LINE",
"442 725 LINE",
"651 725 LINE",
"668 801 LINE",
"459 801 LINE",
"580 1366 LINE"
);
}
);
width = 639;
}
);
note = Tbar;
unicode = 0166;
},
{
glyphname = U;
lastChange = "2018-03-21 21:06:17 +0000";
layers = (
{
anchors = (
{
name = bottom;
position = "{381, 0}";
},
{
name = ogonek;
position = "{485, 10}";
},
{
name = top;
position = "{681, 1462}";
},
{
name = topright;
position = "{1086, 1462}";
}
);
layerId = "9047BFCD-DDCC-4357-AC30-29E5270711EF";
paths = (
{
closed = 1;
nodes = (
"699 457 LINE SMOOTH",
"642 189 OFFCURVE",
"549 74 OFFCURVE",
"398 74 CURVE SMOOTH",
"282 74 OFFCURVE",
"225 141 OFFCURVE",
"225 274 CURVE SMOOTH",
"225 317 OFFCURVE",
"231 373 OFFCURVE",
"243 428 CURVE SMOOTH",
"465 1462 LINE",
"367 1462 LINE",
"147 440 LINE SMOOTH",
"136 388 OFFCURVE",
"129 328 OFFCURVE",
"129 275 CURVE SMOOTH",
"129 89 OFFCURVE",
"214 -20 OFFCURVE",
"394 -20 CURVE SMOOTH",
"600 -20 OFFCURVE",
"725 124 OFFCURVE",
"797 459 CURVE SMOOTH",
"1012 1462 LINE",
"913 1462 LINE"
);
}
);
width = 911;
}
);
note = U;
unicode = 0055;
},
{
glyphname = Uhorn;
lastChange = "2018-03-21 21:06:37 +0000";
layers = (
{
anchors = (
{
name = bottom;
position = "{389, 0}";
},
{
name = top;
position = "{699, 1462}";
}
);
layerId = "9047BFCD-DDCC-4357-AC30-29E5270711EF";
paths = (
{
closed = 1;
nodes = (
"699 457 LINE SMOOTH",
"642 189 OFFCURVE",
"549 74 OFFCURVE",
"398 74 CURVE SMOOTH",
"282 74 OFFCURVE",
"225 141 OFFCURVE",
"225 274 CURVE SMOOTH",
"225 317 OFFCURVE",
"231 373 OFFCURVE",
"243 428 CURVE SMOOTH",
"465 1462 LINE",
"367 1462 LINE",
"147 440 LINE SMOOTH",
"136 388 OFFCURVE",
"129 328 OFFCURVE",
"129 275 CURVE SMOOTH",
"129 89 OFFCURVE",
"214 -20 OFFCURVE",
"393 -20 CURVE SMOOTH",
"609 -20 OFFCURVE",
"729 138 OFFCURVE",
"797 459 CURVE SMOOTH",
"948 1167 LINE",
"1118 1219 OFFCURVE",
"1220 1340 OFFCURVE",
"1255 1530 CURVE",
"1247 1556 LINE",
"1163 1556 LINE",
"1135 1391 OFFCURVE",
"1074 1292 OFFCURVE",
"967 1255 CURVE",
"1012 1462 LINE",
"913 1462 LINE"
);
}
);
width = 948;
}
);
note = Uhorn;
unicode = 01AF;
},
{
glyphname = V;
lastChange = "2018-03-21 21:06:48 +0000";
layers = (
{
anchors = (
{
name = bottom;
position = "{250, 0}";
},
{
name = top;
position = "{590, 1462}";
}
);
layerId = "9047BFCD-DDCC-4357-AC30-29E5270711EF";
paths = (
{
closed = 1;
nodes = (
"371 302 OFFCURVE",
"330 191 OFFCURVE",
"307 121 CURVE",
"322 298 OFFCURVE",
"330 442 OFFCURVE",
"330 553 CURVE SMOOTH",
"330 1462 LINE",
"231 1462 LINE",
"231 0 LINE",
"340 0 LINE",
"950 1462 LINE",
"850 1462 LINE",
"432 455 LINE SMOOTH"
);
}
);
width = 729;
}
);
note = V;
unicode = 0056;
},
{
glyphname = W;
lastChange = "2018-03-21 21:07:15 +0000";
layers = (
{
anchors = (
{
name = bottom;
position = "{560, 0}";
},
{
name = top;
position = "{860, 1462}";
}
);
layerId = "9047BFCD-DDCC-4357-AC30-29E5270711EF";
paths = (
{
closed = 1;
nodes = (
"950 383 OFFCURVE",
"914 286 OFFCURVE",
"852 111 CURVE",
"860 175 OFFCURVE",
"873 380 OFFCURVE",
"877 492 CURVE SMOOTH",
"909 1462 LINE",
"801 1462 LINE",
"412 451 LINE SMOOTH",
"383 375 OFFCURVE",
"342 264 OFFCURVE",
"287 111 CURVE",
"292 165 OFFCURVE",
"302 355 OFFCURVE",
"305 455 CURVE SMOOTH",
"332 1462 LINE",
"231 1462 LINE",
"205 0 LINE",
"326 0 LINE",
"752 1096 LINE",
"831 1333 LINE",
"815 1094 LINE",
"768 0 LINE",
"889 0 LINE",
"1477 1462 LINE",
"1376 1462 LINE",
"979 455 LINE SMOOTH"
);
}
);
width = 1270;
}
);
note = W;
unicode = 0057;
},
{
glyphname = X;
lastChange = "2018-03-21 19:44:00 +0000";
layers = (
{
anchors = (
{
name = bottom;
position = "{211, 0}";
},
{
name = top;
position = "{521, 1462}";
}
);
layerId = "9047BFCD-DDCC-4357-AC30-29E5270711EF";
paths = (
{
closed = 1;
nodes = (
"856 1462 LINE",
"756 1462 LINE",
"449 856 LINE",
"381 1462 LINE",
"281 1462 LINE",
"362 791 LINE",
"-57 0 LINE",
"45 0 LINE",
"393 666 LINE",
"446 0 LINE",
"547 0 LINE",
"479 743 LINE"
);
}
);
width = 651;
}
);
note = X;
unicode = 0058;
},
{
glyphname = Y;
lastChange = "2018-03-21 21:07:31 +0000";
layers = (
{
anchors = (
{
name = bottom;
position = "{233, 0}";
},
{
name = top;
position = "{533, 1462}";
},
{
name = topleft;
position = "{215, 1462}";
}
);
layerId = "9047BFCD-DDCC-4357-AC30-29E5270711EF";
paths = (
{
closed = 1;
nodes = (
"227 1462 LINE",
"301 571 LINE",
"180 0 LINE",
"281 0 LINE",
"401 571 LINE",
"848 1462 LINE",
"745 1462 LINE",
"379 707 LINE",
"328 1462 LINE"
);
}
);
width = 616;
}
);
note = Y;
unicode = 0059;
},
{
glyphname = Z;
lastChange = "2018-03-21 21:07:39 +0000";
layers = (
{
anchors = (
{
name = bottom;
position = "{215, 0}";
},
{
name = top;
position = "{515, 1462}";
}
);
layerId = "9047BFCD-DDCC-4357-AC30-29E5270711EF";
paths = (
{
closed = 1;
nodes = (
"92 94 LINE",
"743 1372 LINE",
"762 1462 LINE",
"289 1462 LINE",
"268 1366 LINE",
"635 1366 LINE",
"-6 88 LINE",
"-25 0 LINE",
"465 0 LINE",
"483 94 LINE"
);
}
);
width = 580;
}
);
note = Z;
unicode = 005A;
},
{
glyphname = I.ss01;
lastChange = "2018-03-21 21:07:46 +0000";
layers = (
{
anchors = (
{
name = bottom;
position = "{137, 0}";
},
{
name = ogonek;
position = "{267, 10}";
},
{
name = top;
position = "{437, 1462}";
},
{
name = topleft;
position = "{215, 1462}";
}
);
layerId = "9047BFCD-DDCC-4357-AC30-29E5270711EF";
paths = (
{
closed = 1;
nodes = (
"201 90 LINE",
"473 1370 LINE",
"586 1386 LINE",
"602 1462 LINE",
"285 1462 LINE",
"268 1386 LINE",
"375 1370 LINE",
"102 90 LINE",
"-8 76 LINE",
"-23 0 LINE",
"293 0 LINE",
"307 76 LINE"
);
}
);
width = 424;
}
);
note = g44;
},
{
glyphname = a;
lastChange = "2018-03-22 16:55:20 +0000";
layers = (
{
anchors = (
{
name = bottom;
position = "{324, 0}";
},
{
name = ogonek;
position = "{630, 10}";
},
{
name = top;
position = "{574, 1085}";
}
);
layerId = "9047BFCD-DDCC-4357-AC30-29E5270711EF";
paths = (
{
closed = 1;
nodes = (
"410 -20 OFFCURVE",
"493 39 OFFCURVE",
"569 156 CURVE",
"573 156 LINE",
"555 0 LINE",
"631 0 LINE",
"860 1085 LINE",
"780 1085 LINE",
"741 956 LINE",
"735 956 LINE",
"708 1056 OFFCURVE",
"650 1106 OFFCURVE",
"561 1106 CURVE SMOOTH",
"482 1106 OFFCURVE",
"410 1069 OFFCURVE",
"344 994 CURVE SMOOTH",
"211 844 OFFCURVE",
"119 541 OFFCURVE",
"119 262 CURVE SMOOTH",
"119 74 OFFCURVE",
"186 -20 OFFCURVE",
"319 -20 CURVE SMOOTH"
);
},
{
closed = 1;
nodes = (
"247 63 OFFCURVE",
"217 127 OFFCURVE",
"217 248 CURVE SMOOTH",
"217 363 OFFCURVE",
"234 486 OFFCURVE",
"268 617 CURVE SMOOTH",
"336 878 OFFCURVE",
"440 1016 OFFCURVE",
"557 1016 CURVE SMOOTH",
"642 1016 OFFCURVE",
"692 959 OFFCURVE",
"692 848 CURVE SMOOTH",
"692 730 OFFCURVE",
"674 604 OFFCURVE",
"638 471 CURVE SMOOTH",
"566 204 OFFCURVE",
"458 63 OFFCURVE",
"338 63 CURVE SMOOTH"
);
}
);
width = 817;
}
);
note = a;
unicode = 0061;
},
{
glyphname = aringacute;
lastChange = "2018-03-22 16:59:05 +0000";
layers = (
{
layerId = "9047BFCD-DDCC-4357-AC30-29E5270711EF";
paths = (
{
closed = 1;
nodes = (
"781 1731 OFFCURVE",
"895 1842 OFFCURVE",
"952 1921 CURVE",
"952 1937 LINE",
"813 1937 LINE",
"752 1826 OFFCURVE",
"677 1736 OFFCURVE",
"610 1657 CURVE",
"610 1640 LINE",
"662 1640 LINE"
);
},
{
closed = 1;
nodes = (
"410 -20 OFFCURVE",
"493 39 OFFCURVE",
"569 156 CURVE",
"573 156 LINE",
"555 0 LINE",
"631 0 LINE",
"860 1085 LINE",
"780 1085 LINE",
"741 956 LINE",
"735 956 LINE",
"708 1056 OFFCURVE",
"650 1106 OFFCURVE",
"561 1106 CURVE SMOOTH",
"482 1106 OFFCURVE",
"410 1069 OFFCURVE",
"344 994 CURVE SMOOTH",
"211 844 OFFCURVE",
"119 541 OFFCURVE",
"119 262 CURVE SMOOTH",
"119 74 OFFCURVE",
"186 -20 OFFCURVE",
"319 -20 CURVE SMOOTH"
);
},
{
closed = 1;
nodes = (
"247 63 OFFCURVE",
"217 127 OFFCURVE",
"217 248 CURVE SMOOTH",
"217 363 OFFCURVE",
"234 486 OFFCURVE",
"268 617 CURVE SMOOTH",
"336 878 OFFCURVE",
"440 1016 OFFCURVE",
"557 1016 CURVE SMOOTH",
"642 1016 OFFCURVE",
"692 959 OFFCURVE",
"692 848 CURVE SMOOTH",
"692 730 OFFCURVE",
"674 604 OFFCURVE",
"638 471 CURVE SMOOTH",
"566 204 OFFCURVE",
"458 63 OFFCURVE",
"338 63 CURVE SMOOTH"
);
},
{
closed = 1;
nodes = (
"803 1488 OFFCURVE",
"725 1563 OFFCURVE",
"612 1563 CURVE SMOOTH",
"493 1563 OFFCURVE",
"422 1489 OFFCURVE",
"422 1376 CURVE SMOOTH",
"422 1260 OFFCURVE",
"497 1190 OFFCURVE",
"612 1190 CURVE SMOOTH",
"729 1190 OFFCURVE",
"803 1264 OFFCURVE",
"803 1380 CURVE SMOOTH"
);
},
{
closed = 1;
nodes = (
"731 1304 OFFCURVE",
"683 1257 OFFCURVE",
"612 1257 CURVE SMOOTH",
"533 1257 OFFCURVE",
"494 1297 OFFCURVE",
"494 1376 CURVE SMOOTH",
"494 1447 OFFCURVE",
"539 1497 OFFCURVE",
"612 1497 CURVE SMOOTH",
"687 1497 OFFCURVE",
"731 1447 OFFCURVE",
"731 1376 CURVE SMOOTH"
);
}
);
width = 817;
}
);
note = aringacute;
unicode = 01FB;
},
{
glyphname = ae;
lastChange = "2018-03-22 16:59:19 +0000";
layers = (
{
anchors = (
{
name = bottom;
position = "{481, 0}";
},
{
name = top;
position = "{791, 1085}";
}
);
layerId = "9047BFCD-DDCC-4357-AC30-29E5270711EF";
paths = (
{
closed = 1;
nodes = (
"415 -20 OFFCURVE",
"492 39 OFFCURVE",
"551 156 CURVE",
"528 0 LINE",
"604 0 LINE",
"637 164 LINE",
"660 47 OFFCURVE",
"741 -20 OFFCURVE",
"858 -20 CURVE SMOOTH",
"938 -20 OFFCURVE",
"991 -4 OFFCURVE",
"1059 35 CURVE",
"1059 121 LINE",
"995 84 OFFCURVE",
"933 66 OFFCURVE",
"874 66 CURVE SMOOTH",
"749 66 OFFCURVE",
"686 142 OFFCURVE",
"686 307 CURVE SMOOTH",
"686 374 OFFCURVE",
"693 440 OFFCURVE",
"707 506 CURVE",
"719 506 LINE SMOOTH",
"821 506 OFFCURVE",
"909 521 OFFCURVE",
"983 551 CURVE SMOOTH",
"1130 611 OFFCURVE",
"1212 739 OFFCURVE",
"1212 903 CURVE SMOOTH",
"1212 1039 OFFCURVE",
"1146 1106 OFFCURVE",
"1030 1106 CURVE SMOOTH",
"951 1106 OFFCURVE",
"874 1052 OFFCURVE",
"801 944 CURVE",
"834 1085 LINE",
"754 1085 LINE",
"715 952 LINE",
"688 1065 OFFCURVE",
"640 1106 OFFCURVE",
"561 1106 CURVE SMOOTH",
"482 1106 OFFCURVE",
"410 1069 OFFCURVE",
"344 994 CURVE SMOOTH",
"211 844 OFFCURVE",
"119 541 OFFCURVE",
"119 262 CURVE SMOOTH",
"119 74 OFFCURVE",
"186 -20 OFFCURVE",
"319 -20 CURVE SMOOTH"
);
},
{
closed = 1;
nodes = (
"247 63 OFFCURVE",
"217 127 OFFCURVE",
"217 248 CURVE SMOOTH",
"217 363 OFFCURVE",
"234 486 OFFCURVE",
"268 617 CURVE SMOOTH",
"336 878 OFFCURVE",
"440 1016 OFFCURVE",
"557 1016 CURVE SMOOTH",
"622 1016 OFFCURVE",
"659 956 OFFCURVE",
"659 848 CURVE SMOOTH",
"659 721 OFFCURVE",
"644 592 OFFCURVE",
"614 461 CURVE SMOOTH",
"554 200 OFFCURVE",
"455 63 OFFCURVE",
"338 63 CURVE SMOOTH"
);
},
{
closed = 1;
nodes = (
"1093 1018 OFFCURVE",
"1118 976 OFFCURVE",
"1118 905 CURVE SMOOTH",
"1118 694 OFFCURVE",
"981 588 OFFCURVE",
"721 588 CURVE",
"759 730 OFFCURVE",
"803 837 OFFCURVE",
"854 910 CURVE SMOOTH",
"905 982 OFFCURVE",
"958 1018 OFFCURVE",
"1014 1018 CURVE SMOOTH"
);
}
);
width = 1192;
}
);
note = ae;
unicode = 00E6;
},
{
glyphname = b;
lastChange = "2018-03-22 16:59:33 +0000";
layers = (
{
anchors = (
{
name = bottom;
position = "{287, 0}";
},
{
name = top;
position = "{517, 1085}";
}
);
layerId = "9047BFCD-DDCC-4357-AC30-29E5270711EF";
paths = (
{
closed = 1;
nodes = (
"512 1106 OFFCURVE",
"428 1040 OFFCURVE",
"358 920 CURVE",
"354 920 LINE",
"362 947 OFFCURVE",
"369 974 OFFCURVE",
"375 1001 CURVE SMOOTH",
"494 1556 LINE",
"399 1556 LINE",
"72 0 LINE",
"145 0 LINE",
"190 131 LINE",
"197 131 LINE",
"213 40 OFFCURVE",
"278 -20 OFFCURVE",
"372 -20 CURVE SMOOTH",
"451 -20 OFFCURVE",
"527 22 OFFCURVE",
"588 92 CURVE SMOOTH",
"720 243 OFFCURVE",
"813 549 OFFCURVE",
"813 802 CURVE SMOOTH",
"813 1012 OFFCURVE",
"749 1106 OFFCURVE",
"620 1106 CURVE SMOOTH"
);
},
{
closed = 1;
nodes = (
"688 1022 OFFCURVE",
"715 954 OFFCURVE",
"715 829 CURVE SMOOTH",
"715 730 OFFCURVE",
"698 598 OFFCURVE",
"665 469 CURVE SMOOTH",
"597 203 OFFCURVE",
"492 66 OFFCURVE",
"366 66 CURVE SMOOTH",
"282 66 OFFCURVE",
"240 128 OFFCURVE",
"240 272 CURVE SMOOTH",
"240 363 OFFCURVE",
"257 497 OFFCURVE",
"291 624 CURVE SMOOTH",
"357 872 OFFCURVE",
"466 1022 OFFCURVE",
"599 1022 CURVE SMOOTH"
);
}
);
width = 803;
}
);
note = b;
unicode = 0062;
},
{
glyphname = c;
lastChange = "2018-03-22 17:00:35 +0000";
layers = (
{
anchors = (
{
name = bottom;
position = "{279, 0}";
},
{
name = top;
position = "{567, 1069}";
}
);
layerId = "9047BFCD-DDCC-4357-AC30-29E5270711EF";
paths = (
{
closed = 1;
nodes = (
"416 -20 OFFCURVE",
"470 -7 OFFCURVE",
"520 20 CURVE",
"520 106 LINE",
"467 79 OFFCURVE",
"420 66 OFFCURVE",
"375 66 CURVE SMOOTH",
"266 66 OFFCURVE",
"217 141 OFFCURVE",
"217 302 CURVE SMOOTH",
"217 397 OFFCURVE",
"234 522 OFFCURVE",
"267 642 CURVE SMOOTH",
"331 876 OFFCURVE",
"434 1016 OFFCURVE",
"565 1016 CURVE SMOOTH",
"600 1016 OFFCURVE",
"639 1006 OFFCURVE",
"674 987 CURVE",
"713 1073 LINE",
"673 1096 OFFCURVE",
"620 1106 OFFCURVE",
"573 1106 CURVE SMOOTH",
"483 1106 OFFCURVE",
"407 1069 OFFCURVE",
"345 1004 CURVE SMOOTH",
"212 864 OFFCURVE",
"119 571 OFFCURVE",
"119 317 CURVE SMOOTH",
"119 90 OFFCURVE",
"193 -20 OFFCURVE",
"359 -20 CURVE SMOOTH"
);
}
);
width = 588;
}
);
note = c;
unicode = 0063;
},
{
glyphname = d;
lastChange = "2018-03-22 17:03:29 +0000";
layers = (
{
anchors = (
{
name = bottom;
position = "{294, 0}";
},
{
name = center;
position = "{409, 543}";
},
{
name = top;
position = "{524, 1085}";
},
{
name = topright;
position = "{1242, 1556}";
}
);
layerId = "9047BFCD-DDCC-4357-AC30-29E5270711EF";
paths = (
{
closed = 1;
nodes = (
"410 -20 OFFCURVE",
"493 39 OFFCURVE",
"569 156 CURVE",
"573 156 LINE",
"555 0 LINE",
"631 0 LINE",
"961 1556 LINE",
"866 1556 LINE",
"741 954 LINE",
"735 954 LINE",
"719 1045 OFFCURVE",
"653 1106 OFFCURVE",
"561 1106 CURVE SMOOTH",
"482 1106 OFFCURVE",
"410 1069 OFFCURVE",
"344 994 CURVE SMOOTH",
"211 844 OFFCURVE",
"119 541 OFFCURVE",
"119 262 CURVE SMOOTH",
"119 74 OFFCURVE",
"186 -20 OFFCURVE",
"319 -20 CURVE SMOOTH"
);
},
{
closed = 1;
nodes = (
"247 63 OFFCURVE",
"217 127 OFFCURVE",
"217 248 CURVE SMOOTH",
"217 363 OFFCURVE",
"234 486 OFFCURVE",
"268 617 CURVE SMOOTH",
"336 878 OFFCURVE",
"440 1016 OFFCURVE",
"557 1016 CURVE SMOOTH",
"652 1016 OFFCURVE",
"692 957 OFFCURVE",
"692 844 CURVE SMOOTH",
"692 723 OFFCURVE",
"674 597 OFFCURVE",
"638 466 CURVE SMOOTH",
"566 202 OFFCURVE",
"458 63 OFFCURVE",
"338 63 CURVE SMOOTH"
);
}
);
width = 817;
}
);
note = d;
unicode = 0064;
},
{
glyphname = eth;
lastChange = "2018-03-22 17:02:37 +0000";
layers = (
{
layerId = "9047BFCD-DDCC-4357-AC30-29E5270711EF";
paths = (
{
closed = 1;
nodes = (
"756 1069 OFFCURVE",
"722 1209 OFFCURVE",
"610 1370 CURVE",
"821 1495 LINE",
"791 1548 LINE",
"569 1419 LINE",
"506 1481 OFFCURVE",
"442 1532 OFFCURVE",
"377 1573 CURVE",
"324 1513 LINE",
"397 1460 OFFCURVE",
"448 1415 OFFCURVE",
"479 1378 CURVE",
"264 1253 LINE",
"297 1194 LINE",
"524 1329 LINE",
"636 1202 OFFCURVE",
"678 1034 OFFCURVE",
"678 715 CURVE",
"669 785 OFFCURVE",
"659 832 OFFCURVE",
"644 864 CURVE SMOOTH",
"621 913 OFFCURVE",
"571 954 OFFCURVE",
"488 954 CURVE SMOOTH",
"415 954 OFFCURVE",
"345 923 OFFCURVE",
"288 867 CURVE SMOOTH",
"167 748 OFFCURVE",
"80 491 OFFCURVE",
"80 289 CURVE SMOOTH",
"80 85 OFFCURVE",
"168 -20 OFFCURVE",
"312 -20 CURVE SMOOTH",
"400 -20 OFFCURVE",
"479 19 OFFCURVE",
"545 96 CURVE SMOOTH",
"680 254 OFFCURVE",
"756 562 OFFCURVE",
"756 866 CURVE SMOOTH"
);
},
{
closed = 1;
nodes = (
"224 66 OFFCURVE",
"178 135 OFFCURVE",
"178 291 CURVE SMOOTH",
"178 380 OFFCURVE",
"193 479 OFFCURVE",
"222 574 CURVE SMOOTH",
"280 764 OFFCURVE",
"373 864 OFFCURVE",
"484 864 CURVE SMOOTH",
"580 864 OFFCURVE",
"629 790 OFFCURVE",
"629 632 CURVE SMOOTH",
"629 544 OFFCURVE",
"614 443 OFFCURVE",
"585 350 CURVE SMOOTH",
"526 161 OFFCURVE",
"428 66 OFFCURVE",
"318 66 CURVE SMOOTH"
);
}
);
width = 770;
}
);
note = eth;
unicode = 00F0;
},
{
glyphname = dcaron;
lastChange = "2018-03-22 17:03:29 +0000";
layers = (
{
background = {
paths = (
{
closed = 1;
nodes = (
"410 -20 OFFCURVE",
"493 39 OFFCURVE",
"569 156 CURVE",
"573 156 LINE",
"555 0 LINE",
"631 0 LINE",
"961 1556 LINE",
"866 1556 LINE",
"741 954 LINE",
"735 954 LINE",
"719 1045 OFFCURVE",
"653 1106 OFFCURVE",
"561 1106 CURVE SMOOTH",
"482 1106 OFFCURVE",
"410 1069 OFFCURVE",
"344 994 CURVE SMOOTH",
"211 844 OFFCURVE",
"119 541 OFFCURVE",
"119 262 CURVE SMOOTH",
"119 74 OFFCURVE",
"186 -20 OFFCURVE",
"319 -20 CURVE SMOOTH"
);
},
{
closed = 1;
nodes = (
"247 63 OFFCURVE",
"217 127 OFFCURVE",
"217 248 CURVE SMOOTH",
"217 363 OFFCURVE",
"234 486 OFFCURVE",
"268 617 CURVE SMOOTH",
"336 878 OFFCURVE",
"440 1016 OFFCURVE",
"557 1016 CURVE SMOOTH",
"652 1016 OFFCURVE",
"692 957 OFFCURVE",
"692 844 CURVE SMOOTH",
"692 723 OFFCURVE",
"674 597 OFFCURVE",
"638 466 CURVE SMOOTH",
"566 202 OFFCURVE",
"458 63 OFFCURVE",
"338 63 CURVE SMOOTH"
);
},
{
closed = 1;
nodes = (
"1064 1229 LINE",
"1117 1293 OFFCURVE",
"1214 1456 OFFCURVE",
"1245 1536 CURVE",
"1245 1556 LINE",
"1138 1556 LINE",
"1117 1485 OFFCURVE",
"1079 1381 OFFCURVE",
"1024 1245 CURVE",
"1024 1229 LINE"
);
}
);
};
components = (
{
name = d;
},
{
name = caron.alt;
transform = "{1, 0, 0, 1, 872, 0}";
}
);
layerId = "9047BFCD-DDCC-4357-AC30-29E5270711EF";
width = 817;
}
);
note = dcaron;
unicode = 010F;
},
{
glyphname = dcroat;
lastChange = "2018-03-21 18:39:54 +0000";
layers = (
{
layerId = "9047BFCD-DDCC-4357-AC30-29E5270711EF";
paths = (
{
closed = 1;
nodes = (
"410 -20 OFFCURVE",
"493 39 OFFCURVE",
"569 156 CURVE",
"573 156 LINE",
"555 0 LINE",
"631 0 LINE",
"901 1278 LINE",
"1022 1278 LINE",
"1040 1362 LINE",
"918 1362 LINE",
"961 1556 LINE",
"866 1556 LINE",
"825 1362 LINE",
"612 1362 LINE",
"594 1278 LINE",
"807 1278 LINE",
"741 954 LINE",
"735 954 LINE",
"719 1045 OFFCURVE",
"653 1106 OFFCURVE",
"561 1106 CURVE SMOOTH",
"482 1106 OFFCURVE",
"410 1069 OFFCURVE",
"344 994 CURVE SMOOTH",
"211 844 OFFCURVE",
"119 541 OFFCURVE",
"119 262 CURVE SMOOTH",
"119 74 OFFCURVE",
"186 -20 OFFCURVE",
"319 -20 CURVE SMOOTH"
);
},
{
closed = 1;
nodes = (
"247 63 OFFCURVE",
"217 127 OFFCURVE",
"217 248 CURVE SMOOTH",
"217 363 OFFCURVE",
"234 486 OFFCURVE",
"268 617 CURVE SMOOTH",
"336 878 OFFCURVE",
"440 1016 OFFCURVE",
"557 1016 CURVE SMOOTH",
"652 1016 OFFCURVE",
"692 957 OFFCURVE",
"692 844 CURVE SMOOTH",
"692 723 OFFCURVE",
"674 597 OFFCURVE",
"638 466 CURVE SMOOTH",
"566 202 OFFCURVE",
"458 63 OFFCURVE",
"338 63 CURVE SMOOTH"
);
}
);
width = 817;
}
);
note = dcroat;
unicode = 0111;
},
{
glyphname = e;
lastChange = "2018-03-22 17:05:04 +0000";
layers = (
{
anchors = (
{
name = bottom;
position = "{347, 0}";
},
{
name = ogonek;
position = "{476, 10}";
},
{
name = top;
position = "{557, 1085}";
}
);
layerId = "9047BFCD-DDCC-4357-AC30-29E5270711EF";
paths = (
{
closed = 1;
nodes = (
"458 -20 OFFCURVE",
"528 -4 OFFCURVE",
"584 27 CURVE",
"584 123 LINE",
"513 82 OFFCURVE",
"464 66 OFFCURVE",
"401 66 CURVE SMOOTH",
"278 66 OFFCURVE",
"217 146 OFFCURVE",
"217 307 CURVE SMOOTH",
"217 374 OFFCURVE",
"224 440 OFFCURVE",
"238 506 CURVE",
"250 506 LINE SMOOTH",
"352 506 OFFCURVE",
"440 521 OFFCURVE",
"514 551 CURVE SMOOTH",
"661 611 OFFCURVE",
"743 739 OFFCURVE",
"743 903 CURVE SMOOTH",
"743 1039 OFFCURVE",
"677 1106 OFFCURVE",
"561 1106 CURVE SMOOTH",
"485 1106 OFFCURVE",
"413 1069 OFFCURVE",
"344 996 CURVE SMOOTH",
"206 849 OFFCURVE",
"119 582 OFFCURVE",
"119 297 CURVE SMOOTH",
"119 97 OFFCURVE",
"213 -20 OFFCURVE",
"373 -20 CURVE SMOOTH"
);
},
{
closed = 1;
nodes = (
"624 1018 OFFCURVE",
"649 976 OFFCURVE",
"649 905 CURVE SMOOTH",
"649 694 OFFCURVE",
"516 588 OFFCURVE",
"250 588 CURVE",
"311 847 OFFCURVE",
"426 1018 OFFCURVE",
"545 1018 CURVE SMOOTH"
);
}
);
width = 723;
}
);
note = e;
unicode = 0065;
},
{
glyphname = f;
lastChange = "2018-03-22 17:05:17 +0000";
layers = (
{
anchors = (
{
name = bottom;
position = "{89, 0}";
},
{
name = top;
position = "{319, 1085}";
}
);
layerId = "9047BFCD-DDCC-4357-AC30-29E5270711EF";
paths = (
{
closed = 1;
nodes = (
"-7 -492 OFFCURVE",
"38 -446 OFFCURVE",
"78 -345 CURVE SMOOTH",
"100 -289 OFFCURVE",
"120 -213 OFFCURVE",
"143 -106 CURVE SMOOTH",
"383 1001 LINE",
"526 1001 LINE",
"545 1085 LINE",
"401 1085 LINE",
"431 1230 OFFCURVE",
"449 1306 OFFCURVE",
"467 1359 CURVE SMOOTH",
"495 1441 OFFCURVE",
"521 1475 OFFCURVE",
"585 1475 CURVE SMOOTH",
"614 1475 OFFCURVE",
"640 1468 OFFCURVE",
"668 1454 CURVE",
"709 1542 LINE",
"679 1559 OFFCURVE",
"642 1567 OFFCURVE",
"598 1567 CURVE SMOOTH",
"545 1567 OFFCURVE",
"503 1555 OFFCURVE",
"472 1532 CURVE SMOOTH",
"411 1487 OFFCURVE",
"370 1391 OFFCURVE",
"328 1194 CURVE SMOOTH",
"307 1096 LINE",
"176 1055 LINE",
"166 1001 LINE",
"287 1001 LINE",
"51 -100 LINE SMOOTH",
"32 -187 OFFCURVE",
"18 -245 OFFCURVE",
"4 -286 CURVE SMOOTH",
"-24 -366 OFFCURVE",
"-50 -401 OFFCURVE",
"-122 -401 CURVE SMOOTH",
"-146 -401 OFFCURVE",
"-176 -397 OFFCURVE",
"-201 -389 CURVE",
"-201 -481 LINE",
"-176 -488 OFFCURVE",
"-146 -492 OFFCURVE",
"-114 -492 CURVE SMOOTH"
);
}
);
width = 408;
}
);
note = f;
unicode = 0066;
},
{
glyphname = g;
lastChange = "2018-03-22 17:05:42 +0000";
layers = (
{
anchors = (
{
name = bottom;
position = "{219, 0}";
},
{
name = top;
position = "{529, 1085}";
}
);
layerId = "9047BFCD-DDCC-4357-AC30-29E5270711EF";
paths = (
{
closed = 1;
nodes = (
"591 1099 OFFCURVE",
"558 1106 OFFCURVE",
"520 1106 CURVE SMOOTH",
"455 1106 OFFCURVE",
"398 1086 OFFCURVE",
"349 1046 CURVE SMOOTH",
"248 964 OFFCURVE",
"174 790 OFFCURVE",
"174 631 CURVE SMOOTH",
"174 532 OFFCURVE",
"203 467 OFFCURVE",
"260 418 CURVE",
"149 339 OFFCURVE",
"113 277 OFFCURVE",
"113 211 CURVE SMOOTH",
"113 161 OFFCURVE",
"134 124 OFFCURVE",
"176 96 CURVE",
"20 25 OFFCURVE",
"-74 -89 OFFCURVE",
"-74 -240 CURVE SMOOTH",
"-74 -397 OFFCURVE",
"27 -492 OFFCURVE",
"204 -492 CURVE SMOOTH",
"426 -492 OFFCURVE",
"582 -344 OFFCURVE",
"582 -129 CURVE SMOOTH",
"582 9 OFFCURVE",
"518 77 OFFCURVE",
"354 129 CURVE SMOOTH",
"287 150 OFFCURVE",
"247 164 OFFCURVE",
"236 170 CURVE SMOOTH",
"214 182 OFFCURVE",
"203 201 OFFCURVE",
"203 228 CURVE SMOOTH",
"203 279 OFFCURVE",
"243 329 OFFCURVE",
"328 389 CURVE",
"336 388 OFFCURVE",
"361 387 OFFCURVE",
"375 387 CURVE SMOOTH",
"434 387 OFFCURVE",
"489 409 OFFCURVE",
"538 453 CURVE SMOOTH",
"635 540 OFFCURVE",
"700 710 OFFCURVE",
"700 858 CURVE SMOOTH",
"700 915 OFFCURVE",
"690 963 OFFCURVE",
"670 1001 CURVE",
"807 1018 LINE",
"821 1085 LINE",
"614 1085 LINE"
);
},
{
closed = 1;
nodes = (
"16 -101 OFFCURVE",
"108 13 OFFCURVE",
"240 59 CURVE",
"330 35 LINE SMOOTH",
"445 4 OFFCURVE",
"494 -64 OFFCURVE",
"494 -156 CURVE SMOOTH",
"494 -298 OFFCURVE",
"379 -414 OFFCURVE",
"207 -414 CURVE SMOOTH",
"83 -414 OFFCURVE",
"16 -354 OFFCURVE",
"16 -238 CURVE SMOOTH"
);
},
{
closed = 1;
nodes = (
"266 669 OFFCURVE",
"277 735 OFFCURVE",
"300 808 CURVE SMOOTH",
"348 958 OFFCURVE",
"418 1028 OFFCURVE",
"500 1028 CURVE SMOOTH",
"570 1028 OFFCURVE",
"606 977 OFFCURVE",
"606 870 CURVE SMOOTH",
"606 811 OFFCURVE",
"595 742 OFFCURVE",
"573 672 CURVE SMOOTH",
"526 524 OFFCURVE",
"457 461 OFFCURVE",
"377 461 CURVE SMOOTH",
"305 461 OFFCURVE",
"266 512 OFFCURVE",
"266 615 CURVE SMOOTH"
);
}
);
width = 668;
}
);
note = g;
unicode = 0067;
},
{
glyphname = h;
lastChange = "2018-03-22 17:07:28 +0000";
layers = (
{
anchors = (
{
name = bottom;
position = "{277, 0}";
},
{
name = center;
position = "{392, 543}";
},
{
name = top;
position = "{637, 1485}";
}
);
layerId = "9047BFCD-DDCC-4357-AC30-29E5270711EF";
paths = (
{
closed = 1;
nodes = (
"766 797 LINE SMOOTH",
"775 840 OFFCURVE",
"780 882 OFFCURVE",
"780 916 CURVE SMOOTH",
"780 1039 OFFCURVE",
"716 1106 OFFCURVE",
"606 1106 CURVE SMOOTH",
"504 1106 OFFCURVE",
"424 1049 OFFCURVE",
"362 934 CURVE",
"358 934 LINE",
"399 1102 LINE",
"498 1556 LINE",
"403 1556 LINE",
"74 0 LINE",
"168 0 LINE",
"295 596 LINE SMOOTH",
"354 875 OFFCURVE",
"443 1012 OFFCURVE",
"582 1012 CURVE SMOOTH",
"653 1012 OFFCURVE",
"686 977 OFFCURVE",
"686 896 CURVE SMOOTH",
"686 871 OFFCURVE",
"682 842 OFFCURVE",
"676 815 CURVE SMOOTH",
"504 0 LINE",
"598 0 LINE"
);
}
);
width = 784;
}
);
note = h;
unicode = 0068;
},
{
glyphname = hbar;
lastChange = "2018-03-22 17:07:16 +0000";
layers = (
{
layerId = "9047BFCD-DDCC-4357-AC30-29E5270711EF";
paths = (
{
closed = 1;
nodes = (
"766 797 LINE SMOOTH",
"775 840 OFFCURVE",
"780 882 OFFCURVE",
"780 916 CURVE SMOOTH",
"780 1039 OFFCURVE",
"716 1106 OFFCURVE",
"606 1106 CURVE SMOOTH",
"504 1106 OFFCURVE",
"424 1049 OFFCURVE",
"362 934 CURVE",
"358 934 LINE",
"399 1102 LINE",
"436 1278 LINE",
"639 1278 LINE",
"655 1362 LINE",
"455 1362 LINE",
"498 1556 LINE",
"403 1556 LINE",
"360 1362 LINE",
"229 1362 LINE",
"213 1278 LINE",
"344 1278 LINE",
"74 0 LINE",
"168 0 LINE",
"295 596 LINE SMOOTH",
"354 875 OFFCURVE",
"443 1012 OFFCURVE",
"582 1012 CURVE SMOOTH",
"653 1012 OFFCURVE",
"686 977 OFFCURVE",
"686 896 CURVE SMOOTH",
"686 871 OFFCURVE",
"682 842 OFFCURVE",
"676 815 CURVE SMOOTH",
"504 0 LINE",
"598 0 LINE"
);
}
);
width = 782;
}
);
note = hbar;
unicode = 0127;
},
{
glyphname = i;
lastChange = "2018-03-22 17:09:00 +0000";
layers = (
{
anchors = (
{
name = bottom;
position = "{119, 0}";
}
);
background = {
paths = (
{
closed = 1;
nodes = (
"299 1085 LINE",
"68 0 LINE",
"162 0 LINE",
"393 1085 LINE"
);
},
{
closed = 1;
nodes = (
"346 1313 OFFCURVE",
"362 1292 OFFCURVE",
"395 1292 CURVE SMOOTH",
"443 1292 OFFCURVE",
"475 1347 OFFCURVE",
"475 1423 CURVE SMOOTH",
"475 1462 OFFCURVE",
"459 1481 OFFCURVE",
"428 1481 CURVE SMOOTH",
"380 1481 OFFCURVE",
"346 1424 OFFCURVE",
"346 1356 CURVE SMOOTH"
);
}
);
};
components = (
{
name = idotless;
},
{
name = dotaccentcomb;
transform = "{1, 0, 0, 1, 168, 0}";
}
);
layerId = "9047BFCD-DDCC-4357-AC30-29E5270711EF";
width = 348;
}
);
note = i;
unicode = 0069;
},
{
glyphname = idotless;
lastChange = "2018-03-22 17:08:34 +0000";
layers = (
{
anchors = (
{
name = bottom;
position = "{119, 0}";
},
{
name = ogonek;
position = "{161, 10}";
},
{
name = top;
position = "{345, 1085}";
}
);
layerId = "9047BFCD-DDCC-4357-AC30-29E5270711EF";
paths = (
{
closed = 1;
nodes = (
"299 1085 LINE",
"68 0 LINE",
"162 0 LINE",
"393 1085 LINE"
);
}
);
width = 348;
}
);
note = dotlessi;
unicode = 0131;
},
{
glyphname = j;
lastChange = "2018-03-22 17:09:38 +0000";
layers = (
{
background = {
paths = (
{
closed = 1;
nodes = (
"346 1313 OFFCURVE",
"362 1292 OFFCURVE",
"395 1292 CURVE SMOOTH",
"443 1292 OFFCURVE",
"475 1347 OFFCURVE",
"475 1423 CURVE SMOOTH",
"475 1462 OFFCURVE",
"459 1481 OFFCURVE",
"428 1481 CURVE SMOOTH",
"380 1481 OFFCURVE",
"346 1424 OFFCURVE",
"346 1356 CURVE SMOOTH"
);
},
{
closed = 1;
nodes = (
"30 -183 OFFCURVE",
"14 -245 OFFCURVE",
"0 -286 CURVE SMOOTH",
"-29 -369 OFFCURVE",
"-58 -401 OFFCURVE",
"-121 -401 CURVE SMOOTH",
"-152 -401 OFFCURVE",
"-180 -397 OFFCURVE",
"-205 -389 CURVE",
"-205 -481 LINE",
"-180 -488 OFFCURVE",
"-151 -492 OFFCURVE",
"-117 -492 CURVE SMOOTH",
"-17 -492 OFFCURVE",
"33 -448 OFFCURVE",
"74 -344 CURVE SMOOTH",
"95 -292 OFFCURVE",
"116 -213 OFFCURVE",
"139 -106 CURVE SMOOTH",
"393 1085 LINE",
"299 1085 LINE",
"47 -100 LINE SMOOTH"
);
}
);
};
components = (
{
name = jdotless;
},
{
name = dotaccentcomb;
transform = "{1, 0, 0, 1, 169, 0}";
}
);
layerId = "9047BFCD-DDCC-4357-AC30-29E5270711EF";
width = 348;
}
);
note = j;
unicode = 006A;
},
{
glyphname = jdotless;
lastChange = "2018-03-22 17:09:37 +0000";
layers = (
{
anchors = (
{
name = bottom;
position = "{59, 0}";
},
{
name = top;
position = "{346, 1085}";
}
);
layerId = "9047BFCD-DDCC-4357-AC30-29E5270711EF";
paths = (
{
closed = 1;
nodes = (
"30 -183 OFFCURVE",
"14 -245 OFFCURVE",
"0 -286 CURVE SMOOTH",
"-29 -369 OFFCURVE",
"-58 -401 OFFCURVE",
"-121 -401 CURVE SMOOTH",
"-152 -401 OFFCURVE",
"-180 -397 OFFCURVE",
"-205 -389 CURVE",
"-205 -481 LINE",
"-180 -488 OFFCURVE",
"-151 -492 OFFCURVE",
"-117 -492 CURVE SMOOTH",
"-17 -492 OFFCURVE",
"33 -448 OFFCURVE",
"74 -344 CURVE SMOOTH",
"95 -292 OFFCURVE",
"116 -213 OFFCURVE",
"139 -106 CURVE SMOOTH",
"393 1085 LINE",
"299 1085 LINE",
"47 -100 LINE SMOOTH"
);
}
);
width = 348;
}
);
note = uni0237;
unicode = 0237;
},
{
glyphname = k;
lastChange = "2018-03-22 17:10:26 +0000";
layers = (
{
anchors = (
{
name = bottom;
position = "{265, 0}";
},
{
name = top;
position = "{435, 1085}";
}
);
layerId = "9047BFCD-DDCC-4357-AC30-29E5270711EF";
paths = (
{
closed = 1;
nodes = (
"299 649 OFFCURVE",
"313 712 OFFCURVE",
"319 739 CURVE SMOOTH",
"498 1556 LINE",
"403 1556 LINE",
"72 0 LINE",
"166 0 LINE",
"258 434 LINE",
"385 573 LINE",
"469 0 LINE",
"567 0 LINE",
"471 655 LINE",
"778 1085 LINE",
"676 1085 LINE",
"406 713 LINE SMOOTH",
"371 664 OFFCURVE",
"354 643 OFFCURVE",
"276 549 CURVE",
"274 549 LINE"
);
}
);
width = 639;
}
);
note = k;
unicode = 006B;
},
{
glyphname = kgreenlandic;
lastChange = "2018-03-22 17:10:45 +0000";
layers = (
{
anchors = (
{
name = bottom;
position = "{270, 0}";
},
{
name = top;
position = "{510, 1085}";
}
);
layerId = "9047BFCD-DDCC-4357-AC30-29E5270711EF";
paths = (
{
closed = 1;
nodes = (
"319 739 LINE",
"395 1085 LINE",
"303 1085 LINE",
"72 0 LINE",
"166 0 LINE",
"256 424 LINE",
"389 575 LINE",
"469 0 LINE",
"567 0 LINE",
"471 655 LINE",
"778 1085 LINE",
"676 1085 LINE",
"486 823 OFFCURVE",
"353 641 OFFCURVE",
"276 539 CURVE",
"272 539 LINE"
);
}
);
width = 649;
}
);
note = kgreenlandic;
unicode = 0138;
},
{
glyphname = l;
lastChange = "2018-03-22 17:11:46 +0000";
layers = (
{
anchors = (
{
name = bottom;
position = "{78, 0}";
},
{
name = center;
position = "{173, 543}";
},
{
name = top;
position = "{455, 1556}";
},
{
name = topright;
position = "{758, 1556}";
}
);
layerId = "9047BFCD-DDCC-4357-AC30-29E5270711EF";
paths = (
{
closed = 1;
nodes = (
"403 1556 LINE",
"72 0 LINE",
"166 0 LINE",
"498 1556 LINE"
);
}
);
width = 346;
}
);
note = l;
unicode = 006C;
},
{
glyphname = lcaron;
lastChange = "2018-03-22 17:11:47 +0000";
layers = (
{
background = {
paths = (
{
closed = 1;
nodes = (
"403 1556 LINE",
"72 0 LINE",
"166 0 LINE",
"498 1556 LINE"
);
},
{
closed = 1;
nodes = (
"575 1229 LINE",
"628 1293 OFFCURVE",
"725 1456 OFFCURVE",
"756 1536 CURVE",
"756 1556 LINE",
"649 1556 LINE",
"628 1485 OFFCURVE",
"590 1381 OFFCURVE",
"535 1245 CURVE",
"535 1229 LINE"
);
}
);
};
components = (
{
name = l;
},
{
name = caron.alt;
transform = "{1, 0, 0, 1, 388, 0}";
}
);
layerId = "9047BFCD-DDCC-4357-AC30-29E5270711EF";
width = 346;
}
);
note = lcaron;
unicode = 013E;
},
{
glyphname = ldot;
lastChange = "2018-03-22 17:11:58 +0000";
layers = (
{
layerId = "9047BFCD-DDCC-4357-AC30-29E5270711EF";
paths = (
{
closed = 1;
nodes = (
"403 1556 LINE",
"72 0 LINE",
"166 0 LINE",
"498 1556 LINE"
);
},
{
closed = 1;
nodes = (
"436 601 OFFCURVE",
"452 580 OFFCURVE",
"485 580 CURVE SMOOTH",
"533 580 OFFCURVE",
"565 635 OFFCURVE",
"565 711 CURVE SMOOTH",
"565 750 OFFCURVE",
"549 769 OFFCURVE",
"518 769 CURVE SMOOTH",
"470 769 OFFCURVE",
"436 712 OFFCURVE",
"436 644 CURVE SMOOTH"
);
}
);
width = 494;
}
);
note = ldot;
unicode = 0140;
},
{
glyphname = lslash;
lastChange = "2018-03-21 18:39:54 +0000";
layers = (
{
layerId = "9047BFCD-DDCC-4357-AC30-29E5270711EF";
paths = (
{
closed = 1;
nodes = (
"403 1556 LINE",
"238 776 LINE",
"53 655 LINE",
"90 586 LINE",
"213 666 LINE",
"72 0 LINE",
"166 0 LINE",
"324 737 LINE",
"559 893 LINE",
"518 963 LINE",
"346 850 LINE",
"498 1556 LINE"
);
}
);
width = 391;
}
);
note = lslash;
unicode = 0142;
},
{
glyphname = m;
lastChange = "2018-03-22 17:12:09 +0000";
layers = (
{
anchors = (
{
name = bottom;
position = "{471, 0}";
},
{
name = top;
position = "{781, 1085}";
}
);
layerId = "9047BFCD-DDCC-4357-AC30-29E5270711EF";
paths = (
{
closed = 1;
nodes = (
"1151 786 LINE SMOOTH",
"1160 829 OFFCURVE",
"1165 869 OFFCURVE",
"1165 908 CURVE SMOOTH",
"1165 1040 OFFCURVE",
"1108 1106 OFFCURVE",
"1000 1106 CURVE SMOOTH",
"905 1106 OFFCURVE",
"832 1054 OFFCURVE",
"766 956 CURVE",
"754 1056 OFFCURVE",
"699 1106 OFFCURVE",
"602 1106 CURVE SMOOTH",
"500 1106 OFFCURVE",
"422 1050 OFFCURVE",
"360 934 CURVE",
"356 934 LINE",
"381 1085 LINE",
"301 1085 LINE",
"72 0 LINE",
"166 0 LINE",
"293 596 LINE SMOOTH",
"325 745 OFFCURVE",
"362 852 OFFCURVE",
"407 916 CURVE SMOOTH",
"452 980 OFFCURVE",
"509 1012 OFFCURVE",
"573 1012 CURVE SMOOTH",
"641 1012 OFFCURVE",
"674 975 OFFCURVE",
"674 897 CURVE SMOOTH",
"674 870 OFFCURVE",
"670 838 OFFCURVE",
"662 799 CURVE SMOOTH",
"494 0 LINE",
"588 0 LINE",
"745 752 LINE SMOOTH",
"777 903 OFFCURVE",
"867 1012 OFFCURVE",
"978 1012 CURVE SMOOTH",
"1043 1012 OFFCURVE",
"1073 974 OFFCURVE",
"1073 897 CURVE SMOOTH",
"1073 873 OFFCURVE",
"1070 844 OFFCURVE",
"1063 813 CURVE SMOOTH",
"891 0 LINE",
"985 0 LINE"
);
}
);
width = 1171;
}
);
note = m;
unicode = 006D;
},
{
glyphname = n;
lastChange = "2018-03-22 17:12:21 +0000";
layers = (
{
anchors = (
{
name = bottom;
position = "{276, 0}";
},
{
name = top;
position = "{596, 1085}";
}
);
layerId = "9047BFCD-DDCC-4357-AC30-29E5270711EF";
paths = (
{
closed = 1;
nodes = (
"764 797 LINE SMOOTH",
"773 840 OFFCURVE",
"778 881 OFFCURVE",
"778 918 CURVE SMOOTH",
"778 1039 OFFCURVE",
"714 1106 OFFCURVE",
"602 1106 CURVE SMOOTH",
"503 1106 OFFCURVE",
"422 1049 OFFCURVE",
"360 934 CURVE",
"356 934 LINE",
"381 1085 LINE",
"301 1085 LINE",
"72 0 LINE",
"166 0 LINE",
"293 596 LINE SMOOTH",
"354 880 OFFCURVE",
"444 1012 OFFCURVE",
"584 1012 CURVE SMOOTH",
"651 1012 OFFCURVE",
"684 974 OFFCURVE",
"684 899 CURVE SMOOTH",
"684 870 OFFCURVE",
"680 843 OFFCURVE",
"674 815 CURVE SMOOTH",
"502 0 LINE",
"596 0 LINE"
);
}
);
width = 782;
}
);
note = n;
unicode = 006E;
},
{
glyphname = eng;
lastChange = "2018-03-22 17:12:39 +0000";
layers = (
{
layerId = "9047BFCD-DDCC-4357-AC30-29E5270711EF";
paths = (
{
closed = 1;
nodes = (
"684 867 OFFCURVE",
"680 842 OFFCURVE",
"674 815 CURVE SMOOTH",
"481 -100 LINE SMOOTH",
"464 -183 OFFCURVE",
"448 -245 OFFCURVE",
"434 -286 CURVE SMOOTH",
"405 -372 OFFCURVE",
"374 -401 OFFCURVE",
"308 -401 CURVE SMOOTH",
"284 -401 OFFCURVE",
"254 -397 OFFCURVE",
"229 -389 CURVE",
"229 -481 LINE",
"254 -488 OFFCURVE",
"284 -492 OFFCURVE",
"316 -492 CURVE SMOOTH",
"417 -492 OFFCURVE",
"467 -451 OFFCURVE",
"508 -345 CURVE SMOOTH",
"530 -289 OFFCURVE",
"552 -205 OFFCURVE",
"573 -106 CURVE SMOOTH",
"764 797 LINE SMOOTH",
"773 840 OFFCURVE",
"778 882 OFFCURVE",
"778 916 CURVE SMOOTH",
"778 1039 OFFCURVE",
"714 1106 OFFCURVE",
"604 1106 CURVE SMOOTH",
"502 1106 OFFCURVE",
"422 1049 OFFCURVE",
"360 934 CURVE",
"356 934 LINE",
"381 1085 LINE",
"301 1085 LINE",
"72 0 LINE",
"166 0 LINE",
"293 596 LINE SMOOTH",
"352 874 OFFCURVE",
"440 1012 OFFCURVE",
"581 1012 CURVE SMOOTH",
"652 1012 OFFCURVE",
"684 977 OFFCURVE",
"684 896 CURVE SMOOTH"
);
}
);
width = 782;
}
);
note = eng;
unicode = 014B;
},
{
glyphname = o;
lastChange = "2018-03-22 17:13:05 +0000";
layers = (
{
anchors = (
{
name = bottom;
position = "{335, 0}";
},
{
name = center;
position = "{390, 543}";
},
{
name = ogonek;
position = "{427, 10}";
},
{
name = top;
position = "{555, 1085}";
},
{
name = topright;
position = "{875, 1085}";
}
);
layerId = "9047BFCD-DDCC-4357-AC30-29E5270711EF";
paths = (
{
closed = 1;
nodes = (
"463 -20 OFFCURVE",
"572 62 OFFCURVE",
"652 219 CURVE SMOOTH",
"729 370 OFFCURVE",
"784 603 OFFCURVE",
"784 779 CURVE SMOOTH",
"784 997 OFFCURVE",
"700 1106 OFFCURVE",
"559 1106 CURVE SMOOTH",
"431 1106 OFFCURVE",
"323 1017 OFFCURVE",
"249 869 CURVE SMOOTH",
"172 715 OFFCURVE",
"119 473 OFFCURVE",
"119 298 CURVE SMOOTH",
"119 86 OFFCURVE",
"197 -20 OFFCURVE",
"339 -20 CURVE SMOOTH"
);
},
{
closed = 1;
nodes = (
"217 377 OFFCURVE",
"234 507 OFFCURVE",
"267 632 CURVE SMOOTH",
"331 877 OFFCURVE",
"429 1016 OFFCURVE",
"554 1016 CURVE SMOOTH",
"641 1016 OFFCURVE",
"686 949 OFFCURVE",
"686 796 CURVE SMOOTH",
"686 705 OFFCURVE",
"670 576 OFFCURVE",
"639 454 CURVE SMOOTH",
"578 213 OFFCURVE",
"475 66 OFFCURVE",
"347 66 CURVE SMOOTH",
"260 66 OFFCURVE",
"217 133 OFFCURVE",
"217 283 CURVE SMOOTH"
);
}
);
width = 780;
}
);
note = o;
unicode = 006F;
},
{
glyphname = ohorn;
lastChange = "2018-03-22 17:14:32 +0000";
layers = (
{
anchors = (
{
name = bottom;
position = "{317, 0}";
},
{
name = top;
position = "{537, 1085}";
}
);
layerId = "9047BFCD-DDCC-4357-AC30-29E5270711EF";
paths = (
{
closed = 1;
nodes = (
"394 -20 OFFCURVE",
"472 12 OFFCURVE",
"537 82 CURVE SMOOTH",
"667 221 OFFCURVE",
"764 530 OFFCURVE",
"764 778 CURVE SMOOTH",
"764 822 OFFCURVE",
"761 852 OFFCURVE",
"756 893 CURVE",
"869 958 OFFCURVE",
"940 1066 OFFCURVE",
"969 1217 CURVE",
"961 1243 LINE",
"877 1243 LINE",
"852 1103 OFFCURVE",
"804 1012 OFFCURVE",
"733 969 CURVE",
"696 1060 OFFCURVE",
"631 1106 OFFCURVE",
"539 1106 CURVE SMOOTH",
"415 1106 OFFCURVE",
"306 1022 OFFCURVE",
"228 867 CURVE SMOOTH",
"151 714 OFFCURVE",
"98 476 OFFCURVE",
"98 301 CURVE SMOOTH",
"98 86 OFFCURVE",
"178 -20 OFFCURVE",
"317 -20 CURVE SMOOTH"
);
},
{
closed = 1;
nodes = (
"197 374 OFFCURVE",
"213 501 OFFCURVE",
"245 626 CURVE SMOOTH",
"308 874 OFFCURVE",
"407 1016 OFFCURVE",
"533 1016 CURVE SMOOTH",
"620 1016 OFFCURVE",
"666 949 OFFCURVE",
"666 795 CURVE SMOOTH",
"666 704 OFFCURVE",
"650 577 OFFCURVE",
"619 454 CURVE SMOOTH",
"558 213 OFFCURVE",
"455 66 OFFCURVE",
"327 66 CURVE SMOOTH",
"240 66 OFFCURVE",
"197 133 OFFCURVE",
"197 283 CURVE SMOOTH"
);
}
);
width = 764;
}
);
note = ohorn;
unicode = 01A1;
},
{
glyphname = oslash;
lastChange = "2018-03-22 17:14:55 +0000";
layers = (
{
anchors = (
{
name = top;
position = "{555, 1085}";
}
);
layerId = "9047BFCD-DDCC-4357-AC30-29E5270711EF";
paths = (
{
closed = 1;
nodes = (
"464 -20 OFFCURVE",
"572 63 OFFCURVE",
"652 219 CURVE SMOOTH",
"729 369 OFFCURVE",
"784 600 OFFCURVE",
"784 787 CURVE SMOOTH",
"784 843 OFFCURVE",
"779 887 OFFCURVE",
"768 926 CURVE",
"903 1128 LINE",
"836 1171 LINE",
"731 1014 LINE",
"692 1075 OFFCURVE",
"634 1106 OFFCURVE",
"559 1106 CURVE SMOOTH",
"431 1106 OFFCURVE",
"324 1018 OFFCURVE",
"249 869 CURVE SMOOTH",
"173 718 OFFCURVE",
"119 479 OFFCURVE",
"119 289 CURVE SMOOTH",
"119 221 OFFCURVE",
"126 168 OFFCURVE",
"141 125 CURVE",
"10 -74 LINE",
"74 -117 LINE",
"184 49 LINE",
"222 3 OFFCURVE",
"274 -20 OFFCURVE",
"340 -20 CURVE SMOOTH"
);
},
{
closed = 1;
nodes = (
"215 365 OFFCURVE",
"231 491 OFFCURVE",
"264 619 CURVE SMOOTH",
"332 885 OFFCURVE",
"433 1016 OFFCURVE",
"550 1016 CURVE SMOOTH",
"607 1016 OFFCURVE",
"649 985 OFFCURVE",
"670 922 CURVE",
"215 240 LINE"
);
},
{
closed = 1;
nodes = (
"300 66 OFFCURVE",
"261 89 OFFCURVE",
"240 133 CURVE",
"688 803 LINE",
"686 680 OFFCURVE",
"669 557 OFFCURVE",
"637 439 CURVE SMOOTH",
"574 206 OFFCURVE",
"471 66 OFFCURVE",
"349 66 CURVE SMOOTH"
);
}
);
width = 780;
}
);
note = oslash;
unicode = 00F8;
},
{
glyphname = oe;
lastChange = "2018-03-22 17:15:03 +0000";
layers = (
{
anchors = (
{
name = bottom;
position = "{499, 0}";
},
{
name = top;
position = "{789, 1085}";
}
);
layerId = "9047BFCD-DDCC-4357-AC30-29E5270711EF";
paths = (
{
closed = 1;
nodes = (
"469 -20 OFFCURVE",
"570 64 OFFCURVE",
"645 231 CURVE",
"664 63 OFFCURVE",
"740 -20 OFFCURVE",
"889 -20 CURVE SMOOTH",
"959 -20 OFFCURVE",
"1035 -2 OFFCURVE",
"1098 35 CURVE",
"1098 121 LINE",
"1030 82 OFFCURVE",
"974 66 OFFCURVE",
"915 66 CURVE SMOOTH",
"786 66 OFFCURVE",
"725 141 OFFCURVE",
"725 311 CURVE SMOOTH",
"725 368 OFFCURVE",
"732 437 OFFCURVE",
"745 506 CURVE",
"758 506 LINE SMOOTH",
"861 506 OFFCURVE",
"952 522 OFFCURVE",
"1022 551 CURVE SMOOTH",
"1174 614 OFFCURVE",
"1251 746 OFFCURVE",
"1251 898 CURVE SMOOTH",
"1251 1039 OFFCURVE",
"1185 1106 OFFCURVE",
"1075 1106 CURVE SMOOTH",
"938 1106 OFFCURVE",
"834 1003 OFFCURVE",
"756 842 CURVE",
"746 1018 OFFCURVE",
"681 1106 OFFCURVE",
"557 1106 CURVE SMOOTH",
"429 1106 OFFCURVE",
"321 1013 OFFCURVE",
"249 869 CURVE SMOOTH",
"175 722 OFFCURVE",
"119 479 OFFCURVE",
"119 298 CURVE SMOOTH",
"119 85 OFFCURVE",
"197 -20 OFFCURVE",
"340 -20 CURVE SMOOTH"
);
},
{
closed = 1;
nodes = (
"217 377 OFFCURVE",
"234 507 OFFCURVE",
"267 632 CURVE SMOOTH",
"331 877 OFFCURVE",
"429 1016 OFFCURVE",
"554 1016 CURVE SMOOTH",
"641 1016 OFFCURVE",
"686 949 OFFCURVE",
"686 796 CURVE SMOOTH",
"686 705 OFFCURVE",
"670 576 OFFCURVE",
"639 454 CURVE SMOOTH",
"578 213 OFFCURVE",
"475 66 OFFCURVE",
"347 66 CURVE SMOOTH",
"260 66 OFFCURVE",
"217 133 OFFCURVE",
"217 283 CURVE SMOOTH"
);
},
{
closed = 1;
nodes = (
"1130 1018 OFFCURVE",
"1157 976 OFFCURVE",
"1157 891 CURVE SMOOTH",
"1157 701 OFFCURVE",
"1024 588 OFFCURVE",
"758 588 CURVE",
"820 844 OFFCURVE",
"925 1018 OFFCURVE",
"1062 1018 CURVE SMOOTH"
);
}
);
width = 1227;
}
);
note = oe;
unicode = 0153;
},
{
glyphname = p;
lastChange = "2018-03-22 17:15:08 +0000";
layers = (
{
anchors = (
{
name = bottom;
position = "{287, 0}";
},
{
name = top;
position = "{517, 1085}";
}
);
layerId = "9047BFCD-DDCC-4357-AC30-29E5270711EF";
paths = (
{
closed = 1;
nodes = (
"526 1106 OFFCURVE",
"448 1056 OFFCURVE",
"365 930 CURVE",
"360 930 LINE",
"385 1085 LINE",
"303 1085 LINE",
"-27 -471 LINE",
"68 -471 LINE",
"193 131 LINE",
"199 131 LINE",
"215 39 OFFCURVE",
"281 -20 OFFCURVE",
"375 -20 CURVE SMOOTH",
"456 -20 OFFCURVE",
"530 23 OFFCURVE",
"590 92 CURVE SMOOTH",
"717 237 OFFCURVE",
"815 541 OFFCURVE",
"815 802 CURVE SMOOTH",
"815 1013 OFFCURVE",
"751 1106 OFFCURVE",
"621 1106 CURVE SMOOTH"
);
},
{
closed = 1;
nodes = (
"690 1022 OFFCURVE",
"717 954 OFFCURVE",
"717 829 CURVE SMOOTH",
"717 730 OFFCURVE",
"700 598 OFFCURVE",
"667 469 CURVE SMOOTH",
"599 203 OFFCURVE",
"494 66 OFFCURVE",
"368 66 CURVE SMOOTH",
"284 66 OFFCURVE",
"242 128 OFFCURVE",
"242 272 CURVE SMOOTH",
"242 363 OFFCURVE",
"259 497 OFFCURVE",
"293 624 CURVE SMOOTH",
"359 872 OFFCURVE",
"468 1022 OFFCURVE",
"601 1022 CURVE SMOOTH"
);
}
);
width = 803;
}
);
note = p;
unicode = 0070;
},
{
glyphname = thorn;
lastChange = "2018-03-22 17:15:11 +0000";
layers = (
{
anchors = (
{
name = bottom;
position = "{287, 0}";
},
{
name = top;
position = "{517, 1085}";
}
);
layerId = "9047BFCD-DDCC-4357-AC30-29E5270711EF";
paths = (
{
closed = 1;
nodes = (
"526 1106 OFFCURVE",
"448 1056 OFFCURVE",
"365 930 CURVE",
"360 930 LINE",
"498 1556 LINE",
"403 1556 LINE",
"-27 -471 LINE",
"68 -471 LINE",
"193 131 LINE",
"199 131 LINE",
"215 39 OFFCURVE",
"281 -20 OFFCURVE",
"375 -20 CURVE SMOOTH",
"456 -20 OFFCURVE",
"530 23 OFFCURVE",
"590 92 CURVE SMOOTH",
"717 237 OFFCURVE",
"815 541 OFFCURVE",
"815 802 CURVE SMOOTH",
"815 1013 OFFCURVE",
"751 1106 OFFCURVE",
"621 1106 CURVE SMOOTH"
);
},
{
closed = 1;
nodes = (
"690 1022 OFFCURVE",
"717 954 OFFCURVE",
"717 829 CURVE SMOOTH",
"717 730 OFFCURVE",
"700 598 OFFCURVE",
"667 469 CURVE SMOOTH",
"599 203 OFFCURVE",
"494 66 OFFCURVE",
"368 66 CURVE SMOOTH",
"284 66 OFFCURVE",
"242 128 OFFCURVE",
"242 272 CURVE SMOOTH",
"242 363 OFFCURVE",
"259 497 OFFCURVE",
"293 624 CURVE SMOOTH",
"359 872 OFFCURVE",
"468 1022 OFFCURVE",
"601 1022 CURVE SMOOTH"
);
}
);
width = 803;
}
);
note = thorn;
unicode = 00FE;
},
{
glyphname = q;
lastChange = "2018-03-21 19:44:00 +0000";
layers = (
{
anchors = (
{
name = bottom;
position = "{294, 0}";
},
{
name = top;
position = "{524, 1085}";
}
);
layerId = "9047BFCD-DDCC-4357-AC30-29E5270711EF";
paths = (
{
closed = 1;
nodes = (
"412 -20 OFFCURVE",
"496 39 OFFCURVE",
"573 158 CURVE",
"578 158 LINE",
"535 -4 LINE",
"432 -492 LINE",
"526 -492 LINE",
"860 1085 LINE",
"780 1085 LINE",
"741 956 LINE",
"735 956 LINE",
"708 1056 OFFCURVE",
"650 1106 OFFCURVE",
"561 1106 CURVE SMOOTH",
"482 1106 OFFCURVE",
"410 1069 OFFCURVE",
"344 994 CURVE SMOOTH",
"211 844 OFFCURVE",
"119 541 OFFCURVE",
"119 262 CURVE SMOOTH",
"119 74 OFFCURVE",
"186 -20 OFFCURVE",
"319 -20 CURVE SMOOTH"
);
},
{
closed = 1;
nodes = (
"247 63 OFFCURVE",
"217 127 OFFCURVE",
"217 248 CURVE SMOOTH",
"217 363 OFFCURVE",
"234 486 OFFCURVE",
"268 617 CURVE SMOOTH",
"336 878 OFFCURVE",
"440 1016 OFFCURVE",
"557 1016 CURVE SMOOTH",
"642 1016 OFFCURVE",
"692 959 OFFCURVE",
"692 848 CURVE SMOOTH",
"692 730 OFFCURVE",
"674 604 OFFCURVE",
"638 471 CURVE SMOOTH",
"566 204 OFFCURVE",
"458 63 OFFCURVE",
"338 63 CURVE SMOOTH"
);
}
);
width = 817;
}
);
note = q;
unicode = 0071;
},
{
glyphname = r;
lastChange = "2018-03-22 17:15:33 +0000";
layers = (
{
anchors = (
{
name = bottom;
position = "{77, 0}";
},
{
name = top;
position = "{447, 1085}";
}
);
layerId = "9047BFCD-DDCC-4357-AC30-29E5270711EF";
paths = (
{
closed = 1;
nodes = (
"480 1106 OFFCURVE",
"404 1033 OFFCURVE",
"346 895 CURVE",
"342 895 LINE",
"371 1085 LINE",
"301 1085 LINE",
"72 0 LINE",
"166 0 LINE",
"289 575 LINE SMOOTH",
"347 848 OFFCURVE",
"449 1012 OFFCURVE",
"566 1012 CURVE SMOOTH",
"586 1012 OFFCURVE",
"609 1007 OFFCURVE",
"629 997 CURVE",
"655 1094 LINE",
"632 1102 OFFCURVE",
"607 1106 OFFCURVE",
"583 1106 CURVE SMOOTH"
);
}
);
width = 504;
}
);
note = r;
unicode = 0072;
},
{
glyphname = s;
lastChange = "2018-03-22 17:15:48 +0000";
layers = (
{
anchors = (
{
name = bottom;
position = "{202, 0}";
},
{
name = top;
position = "{462, 1085}";
}
);
layerId = "9047BFCD-DDCC-4357-AC30-29E5270711EF";
paths = (
{
closed = 1;
nodes = (
"415 -20 OFFCURVE",
"524 93 OFFCURVE",
"524 293 CURVE SMOOTH",
"524 336 OFFCURVE",
"519 370 OFFCURVE",
"509 401 CURVE SMOOTH",
"487 472 OFFCURVE",
"480 480 OFFCURVE",
"371 606 CURVE SMOOTH",
"307 680 OFFCURVE",
"268 731 OFFCURVE",
"268 820 CURVE SMOOTH",
"268 948 OFFCURVE",
"348 1016 OFFCURVE",
"462 1016 CURVE SMOOTH",
"522 1016 OFFCURVE",
"582 997 OFFCURVE",
"629 958 CURVE",
"680 1044 LINE",
"625 1086 OFFCURVE",
"544 1106 OFFCURVE",
"468 1106 CURVE SMOOTH",
"285 1106 OFFCURVE",
"174 988 OFFCURVE",
"174 810 CURVE SMOOTH",
"174 776 OFFCURVE",
"178 749 OFFCURVE",
"187 718 CURVE SMOOTH",
"205 657 OFFCURVE",
"222 632 OFFCURVE",
"311 532 CURVE SMOOTH",
"352 486 OFFCURVE",
"373 462 OFFCURVE",
"389 435 CURVE SMOOTH",
"412 396 OFFCURVE",
"428 345 OFFCURVE",
"428 284 CURVE SMOOTH",
"428 151 OFFCURVE",
"352 70 OFFCURVE",
"226 70 CURVE SMOOTH",
"148 70 OFFCURVE",
"64 101 OFFCURVE",
"29 135 CURVE",
"29 25 LINE",
"58 2 OFFCURVE",
"152 -20 OFFCURVE",
"233 -20 CURVE SMOOTH"
);
}
);
width = 594;
}
);
note = s;
unicode = 0073;
},
{
glyphname = germandbls;
lastChange = "2018-03-22 17:16:02 +0000";
layers = (
{
anchors = (
{
name = bottom;
position = "{256, 0}";
},
{
name = top;
position = "{486, 1085}";
}
);
layerId = "9047BFCD-DDCC-4357-AC30-29E5270711EF";
paths = (
{
closed = 1;
nodes = (
"461 1567 OFFCURVE",
"362 1445 OFFCURVE",
"311 1204 CURVE SMOOTH",
"33 -100 LINE SMOOTH",
"14 -187 OFFCURVE",
"0 -245 OFFCURVE",
"-14 -286 CURVE SMOOTH",
"-44 -375 OFFCURVE",
"-76 -401 OFFCURVE",
"-140 -401 CURVE SMOOTH",
"-165 -401 OFFCURVE",
"-195 -397 OFFCURVE",
"-219 -389 CURVE",
"-219 -481 LINE",
"-194 -488 OFFCURVE",
"-164 -492 OFFCURVE",
"-132 -492 CURVE SMOOTH",
"-30 -492 OFFCURVE",
"17 -450 OFFCURVE",
"58 -347 CURVE SMOOTH",
"80 -292 OFFCURVE",
"102 -212 OFFCURVE",
"125 -106 CURVE SMOOTH",
"409 1214 LINE SMOOTH",
"447 1392 OFFCURVE",
"510 1473 OFFCURVE",
"610 1473 CURVE SMOOTH",
"674 1473 OFFCURVE",
"717 1440 OFFCURVE",
"717 1346 CURVE SMOOTH",
"717 1233 OFFCURVE",
"655 1161 OFFCURVE",
"563 1055 CURVE SMOOTH",
"502 985 OFFCURVE",
"449 908 OFFCURVE",
"449 800 CURVE SMOOTH",
"449 742 OFFCURVE",
"467 686 OFFCURVE",
"510 592 CURVE SMOOTH",
"541 524 LINE SMOOTH",
"574 451 OFFCURVE",
"592 373 OFFCURVE",
"592 305 CURVE SMOOTH",
"592 162 OFFCURVE",
"514 70 OFFCURVE",
"391 70 CURVE SMOOTH",
"336 70 OFFCURVE",
"280 88 OFFCURVE",
"229 125 CURVE",
"229 25 LINE",
"260 0 OFFCURVE",
"321 -20 OFFCURVE",
"389 -20 CURVE SMOOTH",
"569 -20 OFFCURVE",
"688 120 OFFCURVE",
"688 318 CURVE SMOOTH",
"688 420 OFFCURVE",
"660 502 OFFCURVE",
"621 578 CURVE SMOOTH",
"579 660 OFFCURVE",
"545 728 OFFCURVE",
"545 807 CURVE SMOOTH",
"545 888 OFFCURVE",
"587 946 OFFCURVE",
"662 1038 CURVE SMOOTH",
"749 1145 OFFCURVE",
"813 1225 OFFCURVE",
"813 1353 CURVE SMOOTH",
"813 1483 OFFCURVE",
"747 1567 OFFCURVE",
"617 1567 CURVE SMOOTH"
);
}
);
width = 741;
}
);
note = germandbls;
unicode = 00DF;
},
{
glyphname = longs;
lastChange = "2018-03-22 17:16:04 +0000";
layers = (
{
anchors = (
{
name = bottom;
position = "{56, 0}";
},
{
name = top;
position = "{286, 1085}";
}
);
layerId = "9047BFCD-DDCC-4357-AC30-29E5270711EF";
paths = (
{
closed = 1;
nodes = (
"-38 -492 OFFCURVE",
"9 -450 OFFCURVE",
"50 -347 CURVE SMOOTH",
"70 -297 OFFCURVE",
"92 -221 OFFCURVE",
"117 -106 CURVE SMOOTH",
"393 1176 LINE SMOOTH",
"411 1260 OFFCURVE",
"428 1324 OFFCURVE",
"441 1362 CURVE SMOOTH",
"468 1441 OFFCURVE",
"497 1475 OFFCURVE",
"559 1475 CURVE SMOOTH",
"588 1475 OFFCURVE",
"615 1468 OFFCURVE",
"641 1454 CURVE",
"682 1542 LINE",
"652 1559 OFFCURVE",
"615 1567 OFFCURVE",
"570 1567 CURVE SMOOTH",
"518 1567 OFFCURVE",
"476 1556 OFFCURVE",
"445 1533 CURVE SMOOTH",
"381 1487 OFFCURVE",
"340 1378 OFFCURVE",
"301 1194 CURVE SMOOTH",
"25 -100 LINE SMOOTH",
"4 -198 OFFCURVE",
"-12 -255 OFFCURVE",
"-25 -292 CURVE SMOOTH",
"-54 -375 OFFCURVE",
"-83 -401 OFFCURVE",
"-148 -401 CURVE SMOOTH",
"-173 -401 OFFCURVE",
"-203 -397 OFFCURVE",
"-227 -389 CURVE",
"-227 -481 LINE",
"-202 -488 OFFCURVE",
"-172 -492 OFFCURVE",
"-140 -492 CURVE SMOOTH"
);
}
);
width = 342;
}
);
note = longs;
unicode = 017F;
},
{
glyphname = t;
lastChange = "2018-03-22 17:17:02 +0000";
layers = (
{
anchors = (
{
name = bottom;
position = "{167, 0}";
},
{
name = center;
position = "{202, 543}";
},
{
name = top;
position = "{317, 1085}";
},
{
name = topright;
position = "{736, 1556}";
}
);
layerId = "9047BFCD-DDCC-4357-AC30-29E5270711EF";
paths = (
{
closed = 1;
nodes = (
"305 72 OFFCURVE",
"283 68 OFFCURVE",
"262 68 CURVE SMOOTH",
"214 68 OFFCURVE",
"193 92 OFFCURVE",
"193 152 CURVE SMOOTH",
"193 180 OFFCURVE",
"198 215 OFFCURVE",
"207 258 CURVE SMOOTH",
"365 1001 LINE",
"508 1001 LINE",
"526 1085 LINE",
"383 1085 LINE",
"438 1343 LINE",
"369 1343 LINE",
"289 1085 LINE",
"186 1057 LINE",
"174 1001 LINE",
"272 1001 LINE",
"109 231 LINE SMOOTH",
"100 190 OFFCURVE",
"96 156 OFFCURVE",
"96 131 CURVE SMOOTH",
"96 30 OFFCURVE",
"138 -20 OFFCURVE",
"223 -20 CURVE SMOOTH",
"256 -20 OFFCURVE",
"291 -13 OFFCURVE",
"328 0 CURVE",
"328 80 LINE"
);
}
);
width = 403;
}
);
note = t;
unicode = 0074;
},
{
glyphname = tbar;
lastChange = "2018-03-21 18:39:54 +0000";
layers = (
{
layerId = "9047BFCD-DDCC-4357-AC30-29E5270711EF";
paths = (
{
closed = 1;
nodes = (
"305 72 OFFCURVE",
"283 68 OFFCURVE",
"262 68 CURVE SMOOTH",
"214 68 OFFCURVE",
"193 92 OFFCURVE",
"193 152 CURVE SMOOTH",
"193 180 OFFCURVE",
"198 215 OFFCURVE",
"207 258 CURVE SMOOTH",
"289 643 LINE",
"442 643 LINE",
"461 731 LINE",
"307 731 LINE",
"365 1001 LINE",
"508 1001 LINE",
"526 1085 LINE",
"383 1085 LINE",
"438 1343 LINE",
"369 1343 LINE",
"289 1085 LINE",
"186 1057 LINE",
"174 1001 LINE",
"272 1001 LINE",
"215 731 LINE",
"100 731 LINE",
"82 643 LINE",
"197 643 LINE",
"109 231 LINE SMOOTH",
"100 190 OFFCURVE",
"96 156 OFFCURVE",
"96 131 CURVE SMOOTH",
"96 30 OFFCURVE",
"138 -20 OFFCURVE",
"223 -20 CURVE SMOOTH",
"256 -20 OFFCURVE",
"291 -13 OFFCURVE",
"328 0 CURVE",
"328 80 LINE"
);
}
);
width = 403;
}
);
note = tbar;
unicode = 0167;
},
{
glyphname = tcaron;
lastChange = "2018-03-22 17:17:02 +0000";
layers = (
{
background = {
paths = (
{
closed = 1;
nodes = (
"305 72 OFFCURVE",
"283 68 OFFCURVE",
"262 68 CURVE SMOOTH",
"214 68 OFFCURVE",
"193 92 OFFCURVE",
"193 152 CURVE SMOOTH",
"193 180 OFFCURVE",
"198 215 OFFCURVE",
"207 258 CURVE SMOOTH",
"365 1001 LINE",
"508 1001 LINE",
"526 1085 LINE",
"383 1085 LINE",
"438 1343 LINE",
"369 1343 LINE",
"289 1085 LINE",
"186 1057 LINE",
"174 1001 LINE",
"272 1001 LINE",
"109 231 LINE SMOOTH",
"100 190 OFFCURVE",
"96 156 OFFCURVE",
"96 131 CURVE SMOOTH",
"96 30 OFFCURVE",
"138 -20 OFFCURVE",
"223 -20 CURVE SMOOTH",
"256 -20 OFFCURVE",
"291 -13 OFFCURVE",
"328 0 CURVE",
"328 80 LINE"
);
},
{
closed = 1;
nodes = (
"555 1229 LINE",
"608 1293 OFFCURVE",
"705 1456 OFFCURVE",
"736 1536 CURVE",
"736 1556 LINE",
"629 1556 LINE",
"608 1485 OFFCURVE",
"570 1381 OFFCURVE",
"515 1245 CURVE",
"515 1229 LINE"
);
}
);
};
components = (
{
name = t;
},
{
name = caron.alt;
transform = "{1, 0, 0, 1, 366, 0}";
}
);
layerId = "9047BFCD-DDCC-4357-AC30-29E5270711EF";
width = 403;
}
);
note = tcaron;
unicode = 0165;
},
{
glyphname = u;
lastChange = "2018-03-22 17:18:04 +0000";
layers = (
{
anchors = (
{
name = bottom;
position = "{278, 0}";
},
{
name = ogonek;
position = "{592, 10}";
},
{
name = top;
position = "{578, 1085}";
},
{
name = topright;
position = "{881, 1085}";
}
);
layerId = "9047BFCD-DDCC-4357-AC30-29E5270711EF";
paths = (
{
closed = 1;
nodes = (
"143 344 LINE SMOOTH",
"130 284 OFFCURVE",
"123 232 OFFCURVE",
"123 183 CURVE SMOOTH",
"123 46 OFFCURVE",
"177 -20 OFFCURVE",
"285 -20 CURVE SMOOTH",
"380 -20 OFFCURVE",
"459 32 OFFCURVE",
"526 135 CURVE",
"530 135 LINE",
"522 0 LINE",
"596 0 LINE",
"827 1085 LINE",
"733 1085 LINE",
"606 489 LINE SMOOTH",
"548 216 OFFCURVE",
"448 72 OFFCURVE",
"314 72 CURVE SMOOTH",
"246 72 OFFCURVE",
"215 109 OFFCURVE",
"215 197 CURVE SMOOTH",
"215 235 OFFCURVE",
"221 276 OFFCURVE",
"233 330 CURVE SMOOTH",
"395 1085 LINE",
"301 1085 LINE"
);
}
);
width = 786;
}
);
note = u;
unicode = 0075;
},
{
glyphname = uhorn;
lastChange = "2018-03-22 17:18:11 +0000";
layers = (
{
anchors = (
{
name = bottom;
position = "{304, 0}";
},
{
name = top;
position = "{534, 1085}";
}
);
layerId = "9047BFCD-DDCC-4357-AC30-29E5270711EF";
paths = (
{
closed = 1;
nodes = (
"133 344 LINE SMOOTH",
"120 284 OFFCURVE",
"113 232 OFFCURVE",
"113 183 CURVE SMOOTH",
"113 47 OFFCURVE",
"166 -20 OFFCURVE",
"274 -20 CURVE SMOOTH",
"365 -20 OFFCURVE",
"444 28 OFFCURVE",
"516 135 CURVE",
"520 135 LINE",
"512 0 LINE",
"586 0 LINE",
"768 856 LINE",
"933 896 OFFCURVE",
"1043 1021 OFFCURVE",
"1079 1217 CURVE",
"1071 1243 LINE",
"987 1243 LINE",
"955 1069 OFFCURVE",
"888 970 OFFCURVE",
"786 946 CURVE",
"817 1085 LINE",
"723 1085 LINE",
"596 489 LINE SMOOTH",
"538 216 OFFCURVE",
"438 72 OFFCURVE",
"304 72 CURVE SMOOTH",
"236 72 OFFCURVE",
"205 109 OFFCURVE",
"205 197 CURVE SMOOTH",
"205 235 OFFCURVE",
"211 276 OFFCURVE",
"223 330 CURVE SMOOTH",
"385 1085 LINE",
"291 1085 LINE"
);
}
);
width = 838;
}
);
note = uhorn;
unicode = 01B0;
},
{
glyphname = v;
lastChange = "2018-03-21 19:44:00 +0000";
layers = (
{
anchors = (
{
name = bottom;
position = "{179, 0}";
},
{
name = top;
position = "{409, 1085}";
}
);
layerId = "9047BFCD-DDCC-4357-AC30-29E5270711EF";
paths = (
{
closed = 1;
nodes = (
"750 1085 LINE",
"651 1085 LINE",
"446 590 OFFCURVE",
"333 317 OFFCURVE",
"313 264 CURVE SMOOTH",
"293 211 OFFCURVE",
"276 164 OFFCURVE",
"262 123 CURVE",
"256 123 LINE",
"265 200 OFFCURVE",
"272 375 OFFCURVE",
"272 426 CURVE SMOOTH",
"272 1085 LINE",
"178 1085 LINE",
"178 0 LINE",
"291 0 LINE"
);
}
);
width = 588;
}
);
note = v;
unicode = 0076;
},
{
glyphname = w;
lastChange = "2018-03-22 17:19:53 +0000";
layers = (
{
anchors = (
{
name = bottom;
position = "{391, 0}";
},
{
name = top;
position = "{661, 1085}";
}
);
layerId = "9047BFCD-DDCC-4357-AC30-29E5270711EF";
paths = (
{
closed = 1;
nodes = (
"1165 1085 LINE",
"1069 1085 LINE",
"756 280 LINE SMOOTH",
"737 232 OFFCURVE",
"715 175 OFFCURVE",
"696 123 CURVE",
"692 123 LINE",
"696 191 LINE SMOOTH",
"702 300 OFFCURVE",
"708 354 OFFCURVE",
"711 453 CURVE SMOOTH",
"727 1085 LINE",
"618 1085 LINE",
"423 578 OFFCURVE",
"316 296 OFFCURVE",
"294 238 CURVE SMOOTH",
"268 169 OFFCURVE",
"259 142 OFFCURVE",
"254 123 CURVE",
"250 123 LINE",
"263 231 OFFCURVE",
"270 366 OFFCURVE",
"272 453 CURVE SMOOTH",
"285 1085 LINE",
"190 1085 LINE",
"170 0 LINE",
"287 0 LINE",
"488 523 OFFCURVE",
"584 774 OFFCURVE",
"595 805 CURVE SMOOTH",
"616 863 OFFCURVE",
"632 910 OFFCURVE",
"649 963 CURVE",
"644 887 OFFCURVE",
"640 811 OFFCURVE",
"637 735 CURVE SMOOTH",
"608 0 LINE",
"729 0 LINE"
);
}
);
width = 1012;
}
);
note = w;
unicode = 0077;
},
{
glyphname = x;
lastChange = "2018-03-21 19:44:00 +0000";
layers = (
{
anchors = (
{
name = bottom;
position = "{189, 0}";
},
{
name = top;
position = "{419, 1085}";
}
);
layerId = "9047BFCD-DDCC-4357-AC30-29E5270711EF";
paths = (
{
closed = 1;
nodes = (
"74 0 LINE",
"342 461 LINE",
"422 0 LINE",
"518 0 LINE",
"410 547 LINE",
"737 1085 LINE",
"637 1085 LINE",
"387 651 LINE",
"317 1085 LINE",
"221 1085 LINE",
"313 571 LINE",
"-27 0 LINE"
);
}
);
width = 608;
}
);
note = x;
unicode = 0078;
},
{
glyphname = y;
lastChange = "2018-03-22 17:20:09 +0000";
layers = (
{
anchors = (
{
name = bottom;
position = "{379, 0}";
},
{
name = top;
position = "{449, 1085}";
}
);
layerId = "9047BFCD-DDCC-4357-AC30-29E5270711EF";
paths = (
{
closed = 1;
nodes = (
"47 -492 OFFCURVE",
"114 -424 OFFCURVE",
"190 -244 CURVE SMOOTH",
"752 1085 LINE",
"653 1085 LINE",
"365 387 LINE SMOOTH",
"337 319 OFFCURVE",
"301 222 OFFCURVE",
"268 123 CURVE",
"262 123 LINE",
"270 231 OFFCURVE",
"274 339 OFFCURVE",
"274 446 CURVE SMOOTH",
"274 1085 LINE",
"180 1085 LINE",
"188 -16 LINE",
"117 -186 LINE SMOOTH",
"81 -271 OFFCURVE",
"48 -330 OFFCURVE",
"23 -359 CURVE SMOOTH",
"-2 -388 OFFCURVE",
"-33 -403 OFFCURVE",
"-75 -403 CURVE SMOOTH",
"-100 -403 OFFCURVE",
"-134 -398 OFFCURVE",
"-158 -387 CURVE",
"-158 -473 LINE",
"-129 -486 OFFCURVE",
"-100 -492 OFFCURVE",
"-66 -492 CURVE SMOOTH"
);
}
);
width = 588;
}
);
note = y;
unicode = 0079;
},
{
glyphname = z;
lastChange = "2018-03-22 17:20:17 +0000";
layers = (
{
anchors = (
{
name = bottom;
position = "{129, 0}";
},
{
name = top;
position = "{399, 1085}";
}
);
layerId = "9047BFCD-DDCC-4357-AC30-29E5270711EF";
paths = (
{
closed = 1;
nodes = (
"111 84 LINE",
"588 1008 LINE",
"604 1085 LINE",
"240 1085 LINE",
"221 1001 LINE",
"485 1001 LINE",
"10 76 LINE",
"-4 0 LINE",
"389 0 LINE",
"408 84 LINE"
);
}
);
width = 487;
}
);
note = z;
unicode = 007A;
},
{
glyphname = g.ss02;
lastChange = "2018-03-22 17:20:23 +0000";
layers = (
{
anchors = (
{
name = bottom;
position = "{293, 0}";
},
{
name = top;
position = "{563, 1085}";
}
);
layerId = "9047BFCD-DDCC-4357-AC30-29E5270711EF";
paths = (
{
closed = 1;
nodes = (
"477 -285 OFFCURVE",
"397 -387 OFFCURVE",
"244 -387 CURVE SMOOTH",
"173 -387 OFFCURVE",
"102 -371 OFFCURVE",
"31 -338 CURVE",
"31 -430 LINE",
"86 -454 OFFCURVE",
"179 -473 OFFCURVE",
"252 -473 CURVE SMOOTH",
"445 -473 OFFCURVE",
"559 -349 OFFCURVE",
"616 -76 CURVE SMOOTH",
"858 1085 LINE",
"778 1085 LINE",
"739 956 LINE",
"733 956 LINE",
"706 1056 OFFCURVE",
"648 1106 OFFCURVE",
"559 1106 CURVE SMOOTH",
"480 1106 OFFCURVE",
"408 1069 OFFCURVE",
"342 994 CURVE SMOOTH",
"209 844 OFFCURVE",
"117 541 OFFCURVE",
"117 262 CURVE SMOOTH",
"117 74 OFFCURVE",
"184 -20 OFFCURVE",
"317 -20 CURVE SMOOTH",
"410 -20 OFFCURVE",
"494 39 OFFCURVE",
"571 158 CURVE",
"575 158 LINE",
"520 -86 LINE SMOOTH"
);
},
{
closed = 1;
nodes = (
"245 63 OFFCURVE",
"215 127 OFFCURVE",
"215 248 CURVE SMOOTH",
"215 363 OFFCURVE",
"232 486 OFFCURVE",
"266 617 CURVE SMOOTH",
"334 878 OFFCURVE",
"438 1016 OFFCURVE",
"555 1016 CURVE SMOOTH",
"640 1016 OFFCURVE",
"690 959 OFFCURVE",
"690 848 CURVE SMOOTH",
"690 730 OFFCURVE",
"672 604 OFFCURVE",
"636 471 CURVE SMOOTH",
"564 204 OFFCURVE",
"456 63 OFFCURVE",
"336 63 CURVE SMOOTH"
);
}
);
width = 815;
}
);
note = g913;
},
{
glyphname = ordfeminine;
lastChange = "2018-03-22 17:36:52 +0000";
layers = (
{
layerId = "9047BFCD-DDCC-4357-AC30-29E5270711EF";
paths = (
{
closed = 1;
nodes = (
"580 1272 LINE SMOOTH",
"588 1307 OFFCURVE",
"592 1336 OFFCURVE",
"592 1360 CURVE SMOOTH",
"592 1439 OFFCURVE",
"548 1479 OFFCURVE",
"459 1479 CURVE SMOOTH",
"399 1479 OFFCURVE",
"330 1457 OFFCURVE",
"289 1436 CURVE",
"309 1370 LINE",
"333 1381 LINE SMOOTH",
"371 1400 OFFCURVE",
"405 1409 OFFCURVE",
"436 1409 CURVE SMOOTH",
"481 1409 OFFCURVE",
"510 1394 OFFCURVE",
"510 1335 CURVE SMOOTH",
"510 1313 OFFCURVE",
"507 1291 OFFCURVE",
"502 1270 CURVE SMOOTH",
"487 1200 LINE",
"389 1190 LINE SMOOTH",
"232 1174 OFFCURVE",
"143 1085 OFFCURVE",
"143 944 CURVE SMOOTH",
"143 860 OFFCURVE",
"195 805 OFFCURVE",
"264 805 CURVE SMOOTH",
"324 805 OFFCURVE",
"371 830 OFFCURVE",
"422 901 CURVE",
"428 901 LINE",
"426 817 LINE",
"483 817 LINE"
);
},
{
closed = 1;
nodes = (
"225 1056 OFFCURVE",
"288 1115 OFFCURVE",
"414 1128 CURVE SMOOTH",
"473 1135 LINE",
"459 1069 LINE SMOOTH",
"434 950 OFFCURVE",
"366 874 OFFCURVE",
"293 874 CURVE SMOOTH",
"248 874 OFFCURVE",
"225 899 OFFCURVE",
"225 950 CURVE SMOOTH"
);
}
);
width = 510;
}
);
note = ordfeminine;
unicode = 00AA;
},
{
glyphname = ordmasculine;
lastChange = "2018-03-22 17:36:52 +0000";
layers = (
{
layerId = "9047BFCD-DDCC-4357-AC30-29E5270711EF";
paths = (
{
closed = 1;
nodes = (
"637 1414 OFFCURVE",
"569 1479 OFFCURVE",
"465 1479 CURVE SMOOTH",
"410 1479 OFFCURVE",
"360 1459 OFFCURVE",
"315 1420 CURVE SMOOTH",
"226 1340 OFFCURVE",
"164 1163 OFFCURVE",
"164 999 CURVE SMOOTH",
"164 875 OFFCURVE",
"231 805 OFFCURVE",
"342 805 CURVE SMOOTH",
"396 805 OFFCURVE",
"445 826 OFFCURVE",
"488 867 CURVE SMOOTH",
"575 949 OFFCURVE",
"637 1126 OFFCURVE",
"637 1282 CURVE SMOOTH"
);
},
{
closed = 1;
nodes = (
"522 1409 OFFCURVE",
"549 1368 OFFCURVE",
"549 1280 CURVE SMOOTH",
"549 1209 OFFCURVE",
"540 1140 OFFCURVE",
"521 1072 CURVE SMOOTH",
"484 936 OFFCURVE",
"419 870 OFFCURVE",
"342 870 CURVE SMOOTH",
"275 870 OFFCURVE",
"252 912 OFFCURVE",
"252 1004 CURVE SMOOTH",
"252 1069 OFFCURVE",
"262 1136 OFFCURVE",
"281 1204 CURVE SMOOTH",
"320 1340 OFFCURVE",
"380 1409 OFFCURVE",
"457 1409 CURVE SMOOTH"
);
}
);
width = 557;
}
);
note = ordmasculine;
unicode = 00BA;
},
{
glyphname = nmod;
lastChange = "2018-03-22 17:37:19 +0000";
layers = (
{
layerId = "9047BFCD-DDCC-4357-AC30-29E5270711EF";
paths = (
{
closed = 1;
nodes = (
"647 1214 LINE SMOOTH",
"655 1255 OFFCURVE",
"659 1291 OFFCURVE",
"659 1323 CURVE SMOOTH",
"659 1423 OFFCURVE",
"616 1479 OFFCURVE",
"532 1479 CURVE SMOOTH",
"453 1479 OFFCURVE",
"407 1444 OFFCURVE",
"362 1376 CURVE",
"356 1376 LINE",
"369 1468 LINE",
"305 1468 LINE",
"168 817 LINE",
"252 817 LINE",
"326 1165 LINE SMOOTH",
"361 1329 OFFCURVE",
"412 1405 OFFCURVE",
"504 1405 CURVE SMOOTH",
"550 1405 OFFCURVE",
"573 1374 OFFCURVE",
"573 1311 CURVE SMOOTH",
"573 1280 OFFCURVE",
"568 1239 OFFCURVE",
"557 1188 CURVE SMOOTH",
"479 817 LINE",
"563 817 LINE"
);
}
);
width = 598;
}
);
note = nsuperior;
unicode = 207F;
},
{
glyphname = "Be-cy";
lastChange = "2018-03-21 19:05:46 +0000";
layers = (
{
layerId = "9047BFCD-DDCC-4357-AC30-29E5270711EF";
paths = (
{
closed = 1;
nodes = (
"889 1462 LINE",
"375 1462 LINE",
"66 0 LINE",
"297 0 LINE SMOOTH",
"574 0 OFFCURVE",
"743 191 OFFCURVE",
"743 500 CURVE SMOOTH",
"743 707 OFFCURVE",
"631 813 OFFCURVE",
"420 813 CURVE SMOOTH",
"336 813 LINE",
"455 1368 LINE",
"870 1368 LINE"
);
},
{
closed = 1;
nodes = (
"391 723 LINE SMOOTH",
"560 723 OFFCURVE",
"641 651 OFFCURVE",
"641 498 CURVE SMOOTH",
"641 243 OFFCURVE",
"522 90 OFFCURVE",
"317 90 CURVE SMOOTH",
"182 90 LINE",
"317 723 LINE"
);
}
);
width = 778;
}
);
note = afii10018;
unicode = 0411;
},
{
glyphname = "Ge-cy";
lastChange = "2018-03-22 17:38:30 +0000";
layers = (
{
anchors = (
{
name = bottomright;
position = "{463, 0}";
},
{
name = top;
position = "{654, 1462}";
}
);
layerId = "9047BFCD-DDCC-4357-AC30-29E5270711EF";
paths = (
{
closed = 1;
nodes = (
"66 0 LINE",
"164 0 LINE",
"451 1362 LINE",
"762 1362 LINE",
"784 1462 LINE",
"375 1462 LINE"
);
}
);
width = 598;
}
);
note = afii10020;
unicode = 0413;
},
{
glyphname = "Gje-cy";
lastChange = "2018-03-22 17:38:30 +0000";
layers = (
{
background = {
paths = (
{
closed = 1;
nodes = (
"66 0 LINE",
"164 0 LINE",
"451 1362 LINE",
"762 1362 LINE",
"784 1462 LINE",
"375 1462 LINE"
);
},
{
closed = 1;
nodes = (
"679 1662 OFFCURVE",
"826 1806 OFFCURVE",
"882 1890 CURVE",
"882 1907 LINE",
"743 1907 LINE",
"697 1823 OFFCURVE",
"623 1719 OFFCURVE",
"520 1595 CURVE",
"520 1579 LINE",
"571 1579 LINE"
);
}
);
};
components = (
{
name = "Ge-cy";
},
{
name = acutecomb;
transform = "{1, 0, 0, 1, 389, 377}";
}
);
layerId = "9047BFCD-DDCC-4357-AC30-29E5270711EF";
width = 598;
}
);
note = afii10052;
unicode = 0403;
},
{
glyphname = "Gheupturn-cy";
lastChange = "2018-03-21 19:05:46 +0000";
layers = (
{
layerId = "9047BFCD-DDCC-4357-AC30-29E5270711EF";
paths = (
{
closed = 1;
nodes = (
"879 1763 LINE",
"782 1763 LINE",
"719 1462 LINE",
"375 1462 LINE",
"63 0 LINE",
"162 0 LINE",
"453 1368 LINE",
"795 1368 LINE"
);
}
);
width = 616;
}
);
note = afii10050;
unicode = 0490;
},
{
glyphname = "De-cy";
lastChange = "2018-03-21 19:05:46 +0000";
layers = (
{
layerId = "9047BFCD-DDCC-4357-AC30-29E5270711EF";
paths = (
{
closed = 1;
nodes = (
"655 94 LINE",
"946 1462 LINE",
"537 1462 LINE",
"429 954 OFFCURVE",
"249 458 OFFCURVE",
"49 94 CURVE",
"-29 94 LINE",
"-127 -369 LINE",
"-29 -369 LINE",
"49 0 LINE",
"651 0 LINE",
"571 -369 LINE",
"670 -369 LINE",
"768 94 LINE"
);
},
{
closed = 1;
nodes = (
"199 181 OFFCURVE",
"251 290 OFFCURVE",
"307 423 CURVE SMOOTH",
"419 687 OFFCURVE",
"535 1037 OFFCURVE",
"614 1368 CURVE",
"827 1368 LINE",
"557 94 LINE",
"150 94 LINE"
);
}
);
width = 844;
}
);
note = afii10021;
unicode = 0414;
},
{
glyphname = "Zhe-cy";
lastChange = "2018-03-22 17:46:40 +0000";
layers = (
{
anchors = (
{
name = bottomright;
position = "{875, 0}";
},
{
name = top;
position = "{740, 1462}";
}
);
layerId = "9047BFCD-DDCC-4357-AC30-29E5270711EF";
paths = (
{
closed = 1;
nodes = (
"340 1462 LINE",
"240 1462 LINE",
"440 760 LINE",
"-76 0 LINE",
"37 0 LINE",
"537 748 LINE",
"379 0 LINE",
"477 0 LINE",
"635 750 LINE",
"827 0 LINE",
"932 0 LINE",
"733 750 LINE",
"1231 1462 LINE",
"1128 1462 LINE",
"637 758 LINE",
"786 1462 LINE",
"688 1462 LINE",
"539 756 LINE"
);
}
);
width = 1010;
}
);
note = afii10024;
unicode = 0416;
},
{
glyphname = "Ze-cy";
lastChange = "2018-03-22 17:39:41 +0000";
layers = (
{
anchors = (
{
name = bottom;
position = "{221, 0}";
},
{
name = top;
position = "{561, 1462}";
}
);
layerId = "9047BFCD-DDCC-4357-AC30-29E5270711EF";
paths = (
{
closed = 1;
nodes = (
"782 1377 OFFCURVE",
"679 1483 OFFCURVE",
"508 1483 CURVE SMOOTH",
"412 1483 OFFCURVE",
"325 1451 OFFCURVE",
"248 1386 CURVE",
"295 1305 LINE",
"390 1377 OFFCURVE",
"435 1389 OFFCURVE",
"508 1389 CURVE SMOOTH",
"625 1389 OFFCURVE",
"684 1324 OFFCURVE",
"684 1194 CURVE SMOOTH",
"684 971 OFFCURVE",
"534 805 OFFCURVE",
"338 805 CURVE SMOOTH",
"238 805 LINE",
"219 711 LINE",
"324 711 LINE SMOOTH",
"465 711 OFFCURVE",
"543 624 OFFCURVE",
"543 449 CURVE SMOOTH",
"543 225 OFFCURVE",
"420 74 OFFCURVE",
"219 74 CURVE SMOOTH",
"129 74 OFFCURVE",
"54 97 OFFCURVE",
"-6 143 CURVE",
"-6 29 LINE",
"51 -4 OFFCURVE",
"130 -20 OFFCURVE",
"231 -20 CURVE SMOOTH",
"478 -20 OFFCURVE",
"643 178 OFFCURVE",
"643 463 CURVE SMOOTH",
"643 618 OFFCURVE",
"586 716 OFFCURVE",
"473 758 CURVE",
"475 764 LINE",
"662 808 OFFCURVE",
"782 977 OFFCURVE",
"782 1206 CURVE SMOOTH"
);
}
);
width = 731;
}
);
note = afii10025;
unicode = 0417;
},
{
glyphname = "Ii-cy";
lastChange = "2018-03-22 17:39:46 +0000";
layers = (
{
anchors = (
{
name = bottomright;
position = "{846, 0}";
},
{
name = top;
position = "{726, 1462}";
}
);
layerId = "9047BFCD-DDCC-4357-AC30-29E5270711EF";
paths = (
{
closed = 1;
nodes = (
"182 0 LINE",
"940 1280 LINE",
"948 1280 LINE",
"926 1218 OFFCURVE",
"903 1131 OFFCURVE",
"879 1018 CURVE SMOOTH",
"664 0 LINE",
"760 0 LINE",
"1069 1462 LINE",
"950 1462 LINE",
"205 199 LINE",
"197 199 LINE",
"219 282 OFFCURVE",
"241 373 OFFCURVE",
"262 473 CURVE SMOOTH",
"471 1462 LINE",
"375 1462 LINE",
"66 0 LINE"
);
}
);
width = 981;
}
);
note = afii10026;
unicode = 0418;
},
{
glyphname = "Iishorttail-cy";
lastChange = "2018-03-22 17:39:53 +0000";
layers = (
{
layerId = "9047BFCD-DDCC-4357-AC30-29E5270711EF";
paths = (
{
closed = 1;
nodes = (
"676 -369 LINE",
"879 94 LINE",
"780 94 LINE",
"1069 1462 LINE",
"950 1462 LINE",
"205 199 LINE",
"197 199 LINE",
"219 282 OFFCURVE",
"241 373 OFFCURVE",
"262 473 CURVE SMOOTH",
"471 1462 LINE",
"375 1462 LINE",
"66 0 LINE",
"182 0 LINE",
"940 1280 LINE",
"948 1280 LINE",
"926 1218 OFFCURVE",
"903 1131 OFFCURVE",
"879 1018 CURVE SMOOTH",
"664 0 LINE",
"743 0 LINE",
"573 -369 LINE"
);
},
{
closed = 1;
nodes = (
"892 1579 OFFCURVE",
"973 1665 OFFCURVE",
"1020 1860 CURVE",
"934 1860 LINE",
"901 1721 OFFCURVE",
"849 1655 OFFCURVE",
"754 1655 CURVE SMOOTH",
"663 1655 OFFCURVE",
"629 1704 OFFCURVE",
"629 1792 CURVE SMOOTH",
"629 1821 OFFCURVE",
"630 1843 OFFCURVE",
"633 1860 CURVE",
"551 1860 LINE",
"547 1835 OFFCURVE",
"545 1811 OFFCURVE",
"545 1788 CURVE SMOOTH",
"545 1660 OFFCURVE",
"615 1579 OFFCURVE",
"748 1579 CURVE SMOOTH"
);
}
);
width = 981;
}
);
note = uni048A;
unicode = 048A;
},
{
glyphname = "Ka-cy";
lastChange = "2018-03-22 17:40:02 +0000";
layers = (
{
anchors = (
{
name = bottomright;
position = "{594, 0}";
},
{
name = top;
position = "{630, 1462}";
}
);
layerId = "9047BFCD-DDCC-4357-AC30-29E5270711EF";
paths = (
{
closed = 1;
nodes = (
"375 1462 LINE",
"66 0 LINE",
"164 0 LINE",
"322 748 LINE",
"547 0 LINE",
"655 0 LINE",
"426 748 LINE",
"932 1462 LINE",
"823 1462 LINE",
"324 756 LINE",
"473 1462 LINE"
);
}
);
width = 729;
}
);
note = afii10028;
unicode = 041A;
},
{
glyphname = "El-cy";
lastChange = "2018-03-22 17:40:05 +0000";
layers = (
{
layerId = "9047BFCD-DDCC-4357-AC30-29E5270711EF";
paths = (
{
closed = 1;
nodes = (
"518 1462 LINE",
"422 1130 LINE SMOOTH",
"333 822 OFFCURVE",
"212 417 OFFCURVE",
"180 319 CURVE SMOOTH",
"131 169 OFFCURVE",
"79 84 OFFCURVE",
"-2 84 CURVE SMOOTH",
"-19 84 OFFCURVE",
"-43 88 OFFCURVE",
"-63 96 CURVE",
"-63 2 LINE",
"-33 -6 OFFCURVE",
"-6 -10 OFFCURVE",
"18 -10 CURVE SMOOTH",
"103 -10 OFFCURVE",
"166 43 OFFCURVE",
"219 167 CURVE SMOOTH",
"247 232 OFFCURVE",
"297 380 OFFCURVE",
"357 579 CURVE SMOOTH",
"417 778 OFFCURVE",
"507 1090 OFFCURVE",
"586 1368 CURVE",
"827 1368 LINE",
"537 0 LINE",
"635 0 LINE",
"946 1462 LINE"
);
}
);
width = 838;
}
);
note = afii10029;
unicode = 041B;
},
{
glyphname = "Pe-cy";
lastChange = "2018-03-21 19:44:00 +0000";
layers = (
{
anchors = (
{
name = bottomright;
position = "{789, 0}";
}
);
layerId = "9047BFCD-DDCC-4357-AC30-29E5270711EF";
paths = (
{
closed = 1;
nodes = (
"375 1462 LINE",
"66 0 LINE",
"164 0 LINE",
"453 1368 LINE",
"895 1368 LINE",
"604 0 LINE",
"702 0 LINE",
"1012 1462 LINE"
);
}
);
width = 924;
}
);
note = afii10033;
unicode = 041F;
},
{
glyphname = "U-cy";
lastChange = "2018-03-22 17:40:35 +0000";
layers = (
{
anchors = (
{
name = top;
position = "{553, 1462}";
}
);
layerId = "9047BFCD-DDCC-4357-AC30-29E5270711EF";
paths = (
{
closed = 1;
nodes = (
"152 127 OFFCURVE",
"112 74 OFFCURVE",
"37 74 CURVE SMOOTH",
"12 74 OFFCURVE",
"-16 80 OFFCURVE",
"-39 92 CURVE",
"-39 0 LINE",
"-18 -11 OFFCURVE",
"12 -16 OFFCURVE",
"43 -16 CURVE SMOOTH",
"151 -16 OFFCURVE",
"214 45 OFFCURVE",
"295 225 CURVE SMOOTH",
"850 1462 LINE",
"752 1462 LINE",
"444 770 LINE",
"404 670 OFFCURVE",
"378 603 OFFCURVE",
"367 569 CURVE",
"358 569 LINE",
"358 619 OFFCURVE",
"357 750 OFFCURVE",
"356 782 CURVE SMOOTH",
"326 1462 LINE",
"227 1462 LINE",
"285 428 LINE",
"211 260 LINE SMOOTH"
);
}
);
width = 616;
}
);
note = afii10037;
unicode = 0423;
},
{
glyphname = "Ef-cy";
lastChange = "2018-03-21 19:05:46 +0000";
layers = (
{
layerId = "9047BFCD-DDCC-4357-AC30-29E5270711EF";
paths = (
{
closed = 1;
nodes = (
"581 1298 OFFCURVE",
"490 1266 OFFCURVE",
"410 1206 CURVE SMOOTH",
"250 1086 OFFCURVE",
"150 849 OFFCURVE",
"150 592 CURVE SMOOTH",
"150 348 OFFCURVE",
"250 219 OFFCURVE",
"451 205 CURVE",
"401 -20 LINE",
"498 -20 LINE",
"547 205 LINE",
"646 207 OFFCURVE",
"736 238 OFFCURVE",
"817 299 CURVE SMOOTH",
"977 419 OFFCURVE",
"1083 665 OFFCURVE",
"1083 918 CURVE SMOOTH",
"1083 1161 OFFCURVE",
"982 1289 OFFCURVE",
"780 1303 CURVE",
"817 1483 LINE",
"721 1483 LINE",
"684 1303 LINE"
);
},
{
closed = 1;
nodes = (
"905 1212 OFFCURVE",
"981 1112 OFFCURVE",
"981 932 CURVE SMOOTH",
"981 821 OFFCURVE",
"962 714 OFFCURVE",
"924 611 CURVE SMOOTH",
"848 406 OFFCURVE",
"721 298 OFFCURVE",
"565 295 CURVE",
"760 1212 LINE"
);
},
{
closed = 1;
nodes = (
"323 302 OFFCURVE",
"250 398 OFFCURVE",
"250 582 CURVE SMOOTH",
"250 698 OFFCURVE",
"268 805 OFFCURVE",
"304 904 CURVE SMOOTH",
"376 1101 OFFCURVE",
"503 1208 OFFCURVE",
"664 1212 CURVE",
"469 295 LINE"
);
}
);
width = 1083;
}
);
note = afii10038;
unicode = 0424;
},
{
glyphname = "Che-cy";
lastChange = "2018-03-22 17:40:47 +0000";
layers = (
{
anchors = (
{
name = bottomright;
position = "{766, 0}";
},
{
name = top;
position = "{646, 1462}";
}
);
layerId = "9047BFCD-DDCC-4357-AC30-29E5270711EF";
paths = (
{
closed = 1;
nodes = (
"881 1462 LINE",
"723 713 LINE",
"610 645 OFFCURVE",
"544 627 OFFCURVE",
"467 627 CURVE SMOOTH",
"362 627 OFFCURVE",
"307 684 OFFCURVE",
"307 788 CURVE SMOOTH",
"307 817 OFFCURVE",
"311 850 OFFCURVE",
"319 887 CURVE SMOOTH",
"442 1462 LINE",
"342 1462 LINE",
"223 899 LINE SMOOTH",
"215 860 OFFCURVE",
"209 819 OFFCURVE",
"209 776 CURVE SMOOTH",
"209 612 OFFCURVE",
"301 532 OFFCURVE",
"446 532 CURVE SMOOTH",
"518 532 OFFCURVE",
"589 554 OFFCURVE",
"705 627 CURVE",
"571 0 LINE",
"670 0 LINE",
"979 1462 LINE"
);
}
);
width = 901;
}
);
note = afii10041;
unicode = 0427;
},
{
glyphname = "Tse-cy";
lastChange = "2018-03-21 19:05:46 +0000";
layers = (
{
layerId = "9047BFCD-DDCC-4357-AC30-29E5270711EF";
paths = (
{
closed = 1;
nodes = (
"926 1462 LINE",
"635 94 LINE",
"195 94 LINE",
"485 1462 LINE",
"387 1462 LINE",
"76 0 LINE",
"715 0 LINE",
"635 -369 LINE",
"733 -369 LINE",
"831 94 LINE",
"733 94 LINE",
"1024 1462 LINE"
);
}
);
width = 942;
}
);
note = afii10040;
unicode = 0426;
},
{
glyphname = "Sha-cy";
lastChange = "2018-03-21 19:05:46 +0000";
layers = (
{
layerId = "9047BFCD-DDCC-4357-AC30-29E5270711EF";
paths = (
{
closed = 1;
nodes = (
"1255 1462 LINE",
"965 94 LINE",
"623 94 LINE",
"913 1462 LINE",
"815 1462 LINE",
"524 94 LINE",
"182 94 LINE",
"473 1462 LINE",
"375 1462 LINE",
"66 0 LINE",
"1044 0 LINE",
"1354 1462 LINE"
);
}
);
width = 1266;
}
);
note = afii10042;
unicode = 0428;
},
{
glyphname = "Shcha-cy";
lastChange = "2018-03-21 19:05:46 +0000";
layers = (
{
layerId = "9047BFCD-DDCC-4357-AC30-29E5270711EF";
paths = (
{
closed = 1;
nodes = (
"1356 1462 LINE",
"1257 1462 LINE",
"967 94 LINE",
"623 94 LINE",
"913 1462 LINE",
"815 1462 LINE",
"524 94 LINE",
"182 94 LINE",
"473 1462 LINE",
"375 1462 LINE",
"66 0 LINE",
"1051 0 LINE",
"973 -369 LINE",
"1067 -369 LINE",
"1165 94 LINE",
"1065 94 LINE"
);
}
);
width = 1274;
}
);
note = afii10043;
unicode = 0429;
},
{
glyphname = "Dzhe-cy";
lastChange = "2018-03-21 19:05:46 +0000";
layers = (
{
layerId = "9047BFCD-DDCC-4357-AC30-29E5270711EF";
paths = (
{
closed = 1;
nodes = (
"338 0 LINE",
"260 -369 LINE",
"356 -369 LINE",
"434 0 LINE",
"705 0 LINE",
"1016 1462 LINE",
"918 1462 LINE",
"627 94 LINE",
"186 94 LINE",
"477 1462 LINE",
"379 1462 LINE",
"68 0 LINE"
);
}
);
width = 924;
}
);
note = afii10145;
unicode = 040F;
},
{
glyphname = "Softsign-cy";
lastChange = "2018-03-21 19:05:46 +0000";
layers = (
{
layerId = "9047BFCD-DDCC-4357-AC30-29E5270711EF";
paths = (
{
closed = 1;
nodes = (
"66 0 LINE",
"297 0 LINE SMOOTH",
"574 0 OFFCURVE",
"743 191 OFFCURVE",
"743 500 CURVE SMOOTH",
"743 703 OFFCURVE",
"629 813 OFFCURVE",
"416 813 CURVE SMOOTH",
"336 813 LINE",
"471 1462 LINE",
"373 1462 LINE"
);
},
{
closed = 1;
nodes = (
"391 723 LINE SMOOTH",
"560 723 OFFCURVE",
"641 651 OFFCURVE",
"641 498 CURVE SMOOTH",
"641 243 OFFCURVE",
"522 90 OFFCURVE",
"317 90 CURVE SMOOTH",
"182 90 LINE",
"317 723 LINE"
);
}
);
width = 786;
}
);
note = afii10046;
unicode = 042C;
},
{
glyphname = "Hardsign-cy";
lastChange = "2018-03-21 19:44:00 +0000";
layers = (
{
anchors = (
{
name = top;
position = "{659, 1462}";
}
);
layerId = "9047BFCD-DDCC-4357-AC30-29E5270711EF";
paths = (
{
closed = 1;
nodes = (
"410 0 LINE SMOOTH",
"686 0 OFFCURVE",
"856 193 OFFCURVE",
"856 500 CURVE SMOOTH",
"856 708 OFFCURVE",
"743 813 OFFCURVE",
"532 813 CURVE SMOOTH",
"449 813 LINE",
"586 1462 LINE",
"225 1462 LINE",
"205 1366 LINE",
"467 1366 LINE",
"178 0 LINE"
);
},
{
closed = 1;
nodes = (
"504 723 LINE SMOOTH",
"673 723 OFFCURVE",
"754 651 OFFCURVE",
"754 498 CURVE SMOOTH",
"754 243 OFFCURVE",
"635 90 OFFCURVE",
"430 90 CURVE SMOOTH",
"295 90 LINE",
"430 723 LINE"
);
}
);
width = 928;
}
);
note = afii10044;
unicode = 042A;
},
{
glyphname = "Yeru-cy";
lastChange = "2018-03-22 17:40:58 +0000";
layers = (
{
anchors = (
{
name = top;
position = "{773, 1462}";
}
);
layerId = "9047BFCD-DDCC-4357-AC30-29E5270711EF";
paths = (
{
closed = 1;
nodes = (
"297 0 LINE SMOOTH",
"574 0 OFFCURVE",
"743 191 OFFCURVE",
"743 500 CURVE SMOOTH",
"743 707 OFFCURVE",
"631 813 OFFCURVE",
"420 813 CURVE SMOOTH",
"336 813 LINE",
"473 1462 LINE",
"375 1462 LINE",
"66 0 LINE"
);
},
{
closed = 1;
nodes = (
"317 723 LINE",
"391 723 LINE SMOOTH",
"560 723 OFFCURVE",
"641 651 OFFCURVE",
"641 498 CURVE SMOOTH",
"641 243 OFFCURVE",
"522 90 OFFCURVE",
"317 90 CURVE SMOOTH",
"182 90 LINE"
);
},
{
closed = 1;
nodes = (
"934 0 LINE",
"1243 1462 LINE",
"1145 1462 LINE",
"836 0 LINE"
);
}
);
width = 1155;
}
);
note = afii10045;
unicode = 042B;
},
{
glyphname = "Lje-cy";
lastChange = "2018-03-22 17:41:05 +0000";
layers = (
{
layerId = "9047BFCD-DDCC-4357-AC30-29E5270711EF";
paths = (
{
closed = 1;
nodes = (
"317 838 LINE SMOOTH",
"267 665 OFFCURVE",
"214 491 OFFCURVE",
"197 438 CURVE SMOOTH",
"159 319 LINE SMOOTH",
"105 149 OFFCURVE",
"48 84 OFFCURVE",
"-22 84 CURVE SMOOTH",
"-39 84 OFFCURVE",
"-63 88 OFFCURVE",
"-84 96 CURVE",
"-84 2 LINE",
"-53 -6 OFFCURVE",
"-26 -10 OFFCURVE",
"-2 -10 CURVE SMOOTH",
"99 -10 OFFCURVE",
"162 59 OFFCURVE",
"222 223 CURVE SMOOTH",
"288 404 OFFCURVE",
"442 931 OFFCURVE",
"565 1368 CURVE",
"758 1368 LINE",
"471 0 LINE",
"666 0 LINE SMOOTH",
"942 0 OFFCURVE",
"1112 202 OFFCURVE",
"1112 483 CURVE SMOOTH",
"1112 704 OFFCURVE",
"1006 813 OFFCURVE",
"784 813 CURVE SMOOTH",
"741 813 LINE",
"877 1462 LINE",
"498 1462 LINE"
);
},
{
closed = 1;
nodes = (
"760 723 LINE SMOOTH",
"957 723 OFFCURVE",
"1010 632 OFFCURVE",
"1010 480 CURVE SMOOTH",
"1010 252 OFFCURVE",
"891 90 OFFCURVE",
"686 90 CURVE SMOOTH",
"588 90 LINE",
"723 723 LINE"
);
}
);
width = 1155;
}
);
note = afii10058;
unicode = 0409;
},
{
glyphname = "Nje-cy";
lastChange = "2018-03-21 19:05:46 +0000";
layers = (
{
layerId = "9047BFCD-DDCC-4357-AC30-29E5270711EF";
paths = (
{
closed = 1;
nodes = (
"696 813 LINE",
"336 813 LINE",
"473 1462 LINE",
"375 1462 LINE",
"66 0 LINE",
"164 0 LINE",
"317 723 LINE",
"678 723 LINE",
"526 0 LINE",
"721 0 LINE SMOOTH",
"998 0 OFFCURVE",
"1167 191 OFFCURVE",
"1167 500 CURVE SMOOTH",
"1167 703 OFFCURVE",
"1053 813 OFFCURVE",
"840 813 CURVE SMOOTH",
"797 813 LINE",
"932 1462 LINE",
"834 1462 LINE"
);
},
{
closed = 1;
nodes = (
"815 723 LINE SMOOTH",
"984 723 OFFCURVE",
"1065 651 OFFCURVE",
"1065 498 CURVE SMOOTH",
"1065 243 OFFCURVE",
"946 90 OFFCURVE",
"741 90 CURVE SMOOTH",
"643 90 LINE",
"778 723 LINE"
);
}
);
width = 1206;
}
);
note = afii10059;
unicode = 040A;
},
{
glyphname = "E-cy";
lastChange = "2018-03-22 17:41:09 +0000";
layers = (
{
layerId = "9047BFCD-DDCC-4357-AC30-29E5270711EF";
paths = (
{
closed = 1;
nodes = (
"802 1389 OFFCURVE",
"851 1372 OFFCURVE",
"891 1337 CURVE",
"952 1423 LINE",
"904 1464 OFFCURVE",
"831 1485 OFFCURVE",
"753 1485 CURVE SMOOTH",
"644 1485 OFFCURVE",
"542 1444 OFFCURVE",
"446 1346 CURVE SMOOTH",
"261 1158 OFFCURVE",
"141 804 OFFCURVE",
"141 452 CURVE SMOOTH",
"141 133 OFFCURVE",
"239 -20 OFFCURVE",
"452 -20 CURVE SMOOTH",
"521 -20 OFFCURVE",
"596 -4 OFFCURVE",
"647 20 CURVE",
"647 113 LINE",
"595 87 OFFCURVE",
"530 72 OFFCURVE",
"470 72 CURVE SMOOTH",
"308 72 OFFCURVE",
"240 183 OFFCURVE",
"240 457 CURVE SMOOTH",
"240 551 OFFCURVE",
"248 631 OFFCURVE",
"264 719 CURVE",
"678 719 LINE",
"698 813 LINE",
"285 813 LINE",
"375 1172 OFFCURVE",
"547 1389 OFFCURVE",
"746 1389 CURVE SMOOTH"
);
}
);
width = 774;
}
);
note = afii10053;
unicode = 0404;
},
{
glyphname = "Ereversed-cy";
lastChange = "2018-03-22 17:41:39 +0000";
layers = (
{
anchors = (
{
name = top;
position = "{532, 1462}";
}
);
layerId = "9047BFCD-DDCC-4357-AC30-29E5270711EF";
paths = (
{
closed = 1;
nodes = (
"401 1485 OFFCURVE",
"322 1465 OFFCURVE",
"256 1425 CURVE",
"291 1335 LINE",
"351 1372 OFFCURVE",
"411 1391 OFFCURVE",
"471 1391 CURVE SMOOTH",
"611 1391 OFFCURVE",
"690 1269 OFFCURVE",
"690 1044 CURVE SMOOTH",
"690 969 OFFCURVE",
"683 892 OFFCURVE",
"670 813 CURVE",
"262 813 LINE",
"242 719 LINE",
"657 719 LINE",
"586 284 OFFCURVE",
"424 74 OFFCURVE",
"199 74 CURVE SMOOTH",
"136 74 OFFCURVE",
"70 87 OFFCURVE",
"0 113 CURVE",
"0 14 LINE",
"58 -9 OFFCURVE",
"124 -20 OFFCURVE",
"199 -20 CURVE SMOOTH",
"317 -20 OFFCURVE",
"420 23 OFFCURVE",
"509 110 CURVE SMOOTH",
"685 283 OFFCURVE",
"788 631 OFFCURVE",
"788 1055 CURVE SMOOTH",
"788 1335 OFFCURVE",
"679 1485 OFFCURVE",
"492 1485 CURVE SMOOTH"
);
}
);
width = 774;
}
);
note = afii10047;
unicode = 042D;
},
{
glyphname = "Tshe-cy";
lastChange = "2018-03-22 17:41:50 +0000";
layers = (
{
layerId = "9047BFCD-DDCC-4357-AC30-29E5270711EF";
paths = (
{
closed = 1;
nodes = (
"780 1368 LINE",
"799 1462 LINE",
"244 1462 LINE",
"225 1368 LINE",
"442 1368 LINE",
"152 0 LINE",
"250 0 LINE",
"416 782 LINE",
"526 782 LINE SMOOTH",
"633 782 OFFCURVE",
"684 748 OFFCURVE",
"684 648 CURVE SMOOTH",
"684 617 OFFCURVE",
"679 577 OFFCURVE",
"672 543 CURVE SMOOTH",
"557 0 LINE",
"655 0 LINE",
"770 543 LINE SMOOTH",
"779 584 OFFCURVE",
"784 625 OFFCURVE",
"784 662 CURVE SMOOTH",
"784 809 OFFCURVE",
"706 877 OFFCURVE",
"520 877 CURVE SMOOTH",
"436 877 LINE",
"541 1368 LINE"
);
}
);
width = 856;
}
);
note = afii10060;
unicode = 040B;
},
{
glyphname = "Iu-cy";
lastChange = "2018-03-22 17:41:53 +0000";
layers = (
{
anchors = (
{
name = top;
position = "{818, 1462}";
}
);
layerId = "9047BFCD-DDCC-4357-AC30-29E5270711EF";
paths = (
{
closed = 1;
nodes = (
"1272 1353 OFFCURVE",
"1194 1483 OFFCURVE",
"1024 1483 CURVE SMOOTH",
"809 1483 OFFCURVE",
"653 1274 OFFCURVE",
"543 813 CURVE",
"336 813 LINE",
"473 1462 LINE",
"375 1462 LINE",
"66 0 LINE",
"164 0 LINE",
"315 719 LINE",
"524 719 LINE",
"493 570 OFFCURVE",
"477 446 OFFCURVE",
"477 342 CURVE SMOOTH",
"477 102 OFFCURVE",
"563 -20 OFFCURVE",
"719 -20 CURVE SMOOTH",
"825 -20 OFFCURVE",
"916 36 OFFCURVE",
"997 144 CURVE SMOOTH",
"1161 362 OFFCURVE",
"1272 776 OFFCURVE",
"1272 1090 CURVE SMOOTH"
);
},
{
closed = 1;
nodes = (
"1127 1389 OFFCURVE",
"1174 1292 OFFCURVE",
"1174 1103 CURVE SMOOTH",
"1174 819 OFFCURVE",
"1067 415 OFFCURVE",
"939 221 CURVE SMOOTH",
"874 122 OFFCURVE",
"803 74 OFFCURVE",
"729 74 CURVE SMOOTH",
"627 74 OFFCURVE",
"575 164 OFFCURVE",
"575 350 CURVE SMOOTH",
"575 469 OFFCURVE",
"596 629 OFFCURVE",
"639 806 CURVE SMOOTH",
"724 1154 OFFCURVE",
"855 1389 OFFCURVE",
"1021 1389 CURVE SMOOTH"
);
}
);
width = 1245;
}
);
note = afii10048;
unicode = 042E;
},
{
glyphname = "Ia-cy";
lastChange = "2018-03-22 17:42:00 +0000";
layers = (
{
anchors = (
{
name = top;
position = "{639, 1462}";
}
);
layerId = "9047BFCD-DDCC-4357-AC30-29E5270711EF";
paths = (
{
closed = 1;
nodes = (
"469 0 LINE",
"567 0 LINE",
"877 1462 LINE",
"672 1462 LINE SMOOTH",
"577 1462 OFFCURVE",
"496 1443 OFFCURVE",
"428 1404 CURVE SMOOTH",
"291 1326 OFFCURVE",
"217 1177 OFFCURVE",
"217 989 CURVE SMOOTH",
"217 826 OFFCURVE",
"278 710 OFFCURVE",
"389 662 CURVE",
"-37 0 LINE",
"76 0 LINE",
"477 637 LINE",
"604 637 LINE"
);
},
{
closed = 1;
nodes = (
"545 725 LINE SMOOTH",
"394 725 OFFCURVE",
"319 815 OFFCURVE",
"319 995 CURVE SMOOTH",
"319 1232 OFFCURVE",
"451 1372 OFFCURVE",
"664 1372 CURVE SMOOTH",
"760 1372 LINE",
"623 725 LINE"
);
}
);
width = 788;
}
);
note = afii10049;
unicode = 042F;
},
{
glyphname = "Dje-cy";
lastChange = "2018-03-22 17:42:05 +0000";
layers = (
{
layerId = "9047BFCD-DDCC-4357-AC30-29E5270711EF";
paths = (
{
closed = 1;
nodes = (
"584 -20 OFFCURVE",
"668 58 OFFCURVE",
"717 293 CURVE SMOOTH",
"769 543 LINE SMOOTH",
"779 593 OFFCURVE",
"784 621 OFFCURVE",
"784 658 CURVE SMOOTH",
"784 809 OFFCURVE",
"699 877 OFFCURVE",
"498 877 CURVE SMOOTH",
"416 877 LINE",
"520 1368 LINE",
"760 1368 LINE",
"780 1462 LINE",
"225 1462 LINE",
"205 1368 LINE",
"422 1368 LINE",
"131 0 LINE",
"229 0 LINE",
"395 782 LINE",
"516 782 LINE SMOOTH",
"642 782 OFFCURVE",
"686 732 OFFCURVE",
"686 641 CURVE SMOOTH",
"686 613 OFFCURVE",
"682 580 OFFCURVE",
"674 543 CURVE SMOOTH",
"627 324 LINE SMOOTH",
"588 143 OFFCURVE",
"542 74 OFFCURVE",
"439 74 CURVE SMOOTH",
"406 74 OFFCURVE",
"372 81 OFFCURVE",
"344 94 CURVE",
"324 2 LINE",
"371 -13 OFFCURVE",
"410 -20 OFFCURVE",
"450 -20 CURVE SMOOTH"
);
}
);
width = 838;
}
);
note = afii10051;
unicode = 0402;
},
{
glyphname = "Omega-cy";
lastChange = "2018-03-22 17:43:25 +0000";
layers = (
{
layerId = "9047BFCD-DDCC-4357-AC30-29E5270711EF";
paths = (
{
closed = 1;
nodes = (
"613 11 OFFCURVE",
"684 -20 OFFCURVE",
"762 -20 CURVE SMOOTH",
"857 -20 OFFCURVE",
"942 27 OFFCURVE",
"1022 135 CURVE SMOOTH",
"1177 345 OFFCURVE",
"1278 736 OFFCURVE",
"1278 1078 CURVE SMOOTH",
"1278 1360 OFFCURVE",
"1209 1485 OFFCURVE",
"1059 1485 CURVE SMOOTH",
"1005 1485 OFFCURVE",
"948 1469 OFFCURVE",
"887 1436 CURVE",
"915 1352 LINE",
"938 1366 OFFCURVE",
"983 1391 OFFCURVE",
"1038 1391 CURVE SMOOTH",
"1141 1391 OFFCURVE",
"1180 1300 OFFCURVE",
"1180 1098 CURVE SMOOTH",
"1180 800 OFFCURVE",
"1095 433 OFFCURVE",
"968 225 CURVE SMOOTH",
"903 119 OFFCURVE",
"838 74 OFFCURVE",
"764 74 CURVE SMOOTH",
"696 74 OFFCURVE",
"641 111 OFFCURVE",
"641 188 CURVE SMOOTH",
"641 224 OFFCURVE",
"653 269 OFFCURVE",
"655 276 CURVE SMOOTH",
"731 627 LINE",
"633 627 LINE",
"551 238 LINE SMOOTH",
"528 129 OFFCURVE",
"466 74 OFFCURVE",
"383 74 CURVE SMOOTH",
"333 74 OFFCURVE",
"300 94 OFFCURVE",
"272 144 CURVE SMOOTH",
"247 189 OFFCURVE",
"231 250 OFFCURVE",
"231 364 CURVE SMOOTH",
"231 642 OFFCURVE",
"326 1036 OFFCURVE",
"449 1239 CURVE SMOOTH",
"513 1345 OFFCURVE",
"578 1391 OFFCURVE",
"649 1391 CURVE SMOOTH",
"690 1391 OFFCURVE",
"731 1376 OFFCURVE",
"754 1352 CURVE",
"811 1434 LINE",
"770 1469 OFFCURVE",
"706 1485 OFFCURVE",
"653 1485 CURVE SMOOTH",
"557 1485 OFFCURVE",
"477 1432 OFFCURVE",
"405 1334 CURVE SMOOTH",
"251 1125 OFFCURVE",
"133 708 OFFCURVE",
"133 379 CURVE SMOOTH",
"133 118 OFFCURVE",
"207 -20 OFFCURVE",
"372 -20 CURVE SMOOTH",
"439 -20 OFFCURVE",
"512 3 OFFCURVE",
"578 66 CURVE"
);
}
);
width = 1262;
}
);
note = uni0460;
unicode = 0460;
},
{
glyphname = "Yat-cy";
lastChange = "2018-03-21 19:05:46 +0000";
layers = (
{
layerId = "9047BFCD-DDCC-4357-AC30-29E5270711EF";
paths = (
{
closed = 1;
nodes = (
"377 1155 LINE",
"135 0 LINE",
"367 0 LINE SMOOTH",
"643 0 OFFCURVE",
"813 193 OFFCURVE",
"813 500 CURVE SMOOTH",
"813 704 OFFCURVE",
"698 813 OFFCURVE",
"485 813 CURVE SMOOTH",
"406 813 LINE",
"477 1155 LINE",
"696 1155 LINE",
"715 1237 LINE",
"494 1237 LINE",
"561 1556 LINE",
"463 1556 LINE",
"395 1237 LINE",
"193 1237 LINE",
"176 1155 LINE"
);
},
{
closed = 1;
nodes = (
"461 723 LINE SMOOTH",
"630 723 OFFCURVE",
"711 651 OFFCURVE",
"711 498 CURVE SMOOTH",
"711 243 OFFCURVE",
"592 90 OFFCURVE",
"387 90 CURVE SMOOTH",
"252 90 LINE",
"387 723 LINE"
);
}
);
width = 860;
}
);
note = afii10146;
unicode = 0462;
},
{
glyphname = "Eiotified-cy";
lastChange = "2018-03-21 19:05:46 +0000";
layers = (
{
layerId = "9047BFCD-DDCC-4357-AC30-29E5270711EF";
paths = (
{
closed = 1;
nodes = (
"315 719 LINE",
"514 719 LINE",
"497 624 OFFCURVE",
"489 534 OFFCURVE",
"489 449 CURVE SMOOTH",
"489 129 OFFCURVE",
"596 -20 OFFCURVE",
"780 -20 CURVE SMOOTH",
"867 -20 OFFCURVE",
"939 -7 OFFCURVE",
"995 20 CURVE",
"979 111 LINE",
"927 85 OFFCURVE",
"868 72 OFFCURVE",
"803 72 CURVE SMOOTH",
"652 72 OFFCURVE",
"588 190 OFFCURVE",
"588 467 CURVE SMOOTH",
"588 547 OFFCURVE",
"596 631 OFFCURVE",
"612 719 CURVE",
"1026 719 LINE",
"1047 813 LINE",
"633 813 LINE",
"721 1161 OFFCURVE",
"899 1389 OFFCURVE",
"1094 1389 CURVE SMOOTH",
"1151 1389 OFFCURVE",
"1199 1372 OFFCURVE",
"1239 1337 CURVE",
"1300 1423 LINE",
"1252 1464 OFFCURVE",
"1187 1485 OFFCURVE",
"1104 1485 CURVE SMOOTH",
"1021 1485 OFFCURVE",
"943 1457 OFFCURVE",
"868 1402 CURVE SMOOTH",
"718 1291 OFFCURVE",
"596 1074 OFFCURVE",
"532 813 CURVE",
"336 813 LINE",
"473 1462 LINE",
"375 1462 LINE",
"66 0 LINE",
"164 0 LINE"
);
}
);
width = 1124;
}
);
note = uni0464;
unicode = 0464;
},
{
glyphname = "Yuslittle-cy";
lastChange = "2018-03-22 17:43:46 +0000";
layers = (
{
layerId = "9047BFCD-DDCC-4357-AC30-29E5270711EF";
paths = (
{
closed = 1;
nodes = (
"606 719 LINE",
"629 0 LINE",
"727 0 LINE",
"678 1462 LINE",
"584 1462 LINE",
"-76 0 LINE",
"23 0 LINE",
"344 719 LINE",
"428 719 LINE",
"276 0 LINE",
"375 0 LINE",
"526 719 LINE"
);
},
{
closed = 1;
nodes = (
"497 1067 OFFCURVE",
"557 1207 OFFCURVE",
"568 1234 CURVE SMOOTH",
"579 1261 OFFCURVE",
"591 1294 OFFCURVE",
"604 1335 CURVE",
"603 1301 OFFCURVE",
"602 1241 OFFCURVE",
"602 1233 CURVE SMOOTH",
"602 813 LINE",
"387 813 LINE"
);
}
);
width = 805;
}
);
note = uni0466;
unicode = 0466;
},
{
glyphname = "Yuslittleiotified-cy";
lastChange = "2018-03-22 17:44:23 +0000";
layers = (
{
layerId = "9047BFCD-DDCC-4357-AC30-29E5270711EF";
paths = (
{
closed = 1;
nodes = (
"956 719 LINE",
"979 0 LINE",
"1077 0 LINE",
"1028 1462 LINE",
"934 1462 LINE",
"641 813 LINE",
"336 813 LINE",
"473 1462 LINE",
"375 1462 LINE",
"66 0 LINE",
"164 0 LINE",
"315 719 LINE",
"598 719 LINE",
"274 0 LINE",
"373 0 LINE",
"694 719 LINE",
"778 719 LINE",
"627 0 LINE",
"725 0 LINE",
"877 719 LINE"
);
},
{
closed = 1;
nodes = (
"847 1067 OFFCURVE",
"907 1207 OFFCURVE",
"918 1234 CURVE SMOOTH",
"929 1261 OFFCURVE",
"941 1294 OFFCURVE",
"954 1335 CURVE",
"953 1301 OFFCURVE",
"952 1241 OFFCURVE",
"952 1233 CURVE SMOOTH",
"952 813 LINE",
"737 813 LINE"
);
}
);
width = 1155;
}
);
note = uni0468;
unicode = 0468;
},
{
glyphname = "Yusbig-cy";
lastChange = "2018-03-22 17:44:54 +0000";
layers = (
{
layerId = "9047BFCD-DDCC-4357-AC30-29E5270711EF";
paths = (
{
closed = 1;
nodes = (
"322 1376 LINE",
"469 831 LINE",
"359 828 OFFCURVE",
"298 787 OFFCURVE",
"245 709 CURVE SMOOTH",
"215 664 OFFCURVE",
"193 622 OFFCURVE",
"139 489 CURVE SMOOTH",
"-61 0 LINE",
"41 0 LINE",
"235 483 LINE SMOOTH",
"319 692 OFFCURVE",
"363 743 OFFCURVE",
"479 743 CURVE SMOOTH",
"489 743 LINE",
"332 0 LINE",
"430 0 LINE",
"588 743 LINE",
"596 743 LINE SMOOTH",
"674 743 OFFCURVE",
"709 717 OFFCURVE",
"728 661 CURVE SMOOTH",
"737 634 OFFCURVE",
"743 588 OFFCURVE",
"742 508 CURVE SMOOTH",
"733 0 LINE",
"827 0 LINE",
"835 517 LINE SMOOTH",
"836 608 OFFCURVE",
"827 677 OFFCURVE",
"817 711 CURVE SMOOTH",
"796 784 OFFCURVE",
"731 818 OFFCURVE",
"651 831 CURVE",
"1024 1376 LINE",
"1042 1462 LINE",
"340 1462 LINE"
);
},
{
closed = 1;
nodes = (
"426 1368 LINE",
"913 1368 LINE",
"561 848 LINE"
);
}
);
width = 909;
}
);
note = uni046A;
unicode = 046A;
},
{
glyphname = "Yusbigiotified-cy";
lastChange = "2018-03-22 17:45:06 +0000";
layers = (
{
layerId = "9047BFCD-DDCC-4357-AC30-29E5270711EF";
paths = (
{
closed = 1;
nodes = (
"694 1376 LINE",
"838 815 LINE",
"336 815 LINE",
"473 1462 LINE",
"375 1462 LINE",
"66 0 LINE",
"164 0 LINE",
"315 717 LINE",
"643 717 LINE",
"608 689 OFFCURVE",
"588 659 OFFCURVE",
"571 626 CURVE SMOOTH",
"558 601 OFFCURVE",
"551 584 OFFCURVE",
"512 489 CURVE SMOOTH",
"311 0 LINE",
"414 0 LINE",
"608 483 LINE SMOOTH",
"639 560 OFFCURVE",
"664 611 OFFCURVE",
"685 644 CURVE SMOOTH",
"724 705 OFFCURVE",
"763 727 OFFCURVE",
"848 727 CURVE SMOOTH",
"858 727 LINE",
"705 0 LINE",
"803 0 LINE",
"956 727 LINE",
"965 727 LINE SMOOTH",
"1041 727 OFFCURVE",
"1084 710 OFFCURVE",
"1101 650 CURVE SMOOTH",
"1108 624 OFFCURVE",
"1116 583 OFFCURVE",
"1115 506 CURVE SMOOTH",
"1106 0 LINE",
"1200 0 LINE",
"1207 514 LINE SMOOTH",
"1208 608 OFFCURVE",
"1199 668 OFFCURVE",
"1190 698 CURVE SMOOTH",
"1170 764 OFFCURVE",
"1120 797 OFFCURVE",
"1020 815 CURVE",
"1397 1376 LINE",
"1415 1462 LINE",
"713 1462 LINE"
);
},
{
closed = 1;
nodes = (
"799 1368 LINE",
"1286 1368 LINE",
"930 831 LINE"
);
}
);
width = 1286;
}
);
note = uni046C;
unicode = 046C;
},
{
glyphname = "Ksi-cy";
lastChange = "2018-03-22 17:45:11 +0000";
layers = (
{
layerId = "9047BFCD-DDCC-4357-AC30-29E5270711EF";
paths = (
{
closed = 1;
nodes = (
"643 626 OFFCURVE",
"586 714 OFFCURVE",
"473 758 CURVE",
"475 764 LINE",
"659 805 OFFCURVE",
"782 982 OFFCURVE",
"782 1195 CURVE SMOOTH",
"782 1348 OFFCURVE",
"719 1434 OFFCURVE",
"614 1468 CURVE",
"653 1539 OFFCURVE",
"684 1586 OFFCURVE",
"705 1608 CURVE SMOOTH",
"726 1630 OFFCURVE",
"748 1640 OFFCURVE",
"769 1640 CURVE SMOOTH",
"780 1640 OFFCURVE",
"794 1637 OFFCURVE",
"805 1632 CURVE",
"805 1720 LINE",
"793 1724 OFFCURVE",
"775 1726 OFFCURVE",
"762 1726 CURVE SMOOTH",
"729 1726 OFFCURVE",
"696 1713 OFFCURVE",
"663 1678 CURVE SMOOTH",
"633 1646 OFFCURVE",
"596 1591 OFFCURVE",
"553 1509 CURVE",
"522 1609 OFFCURVE",
"492 1683 OFFCURVE",
"463 1731 CURVE",
"389 1731 LINE",
"385 1714 LINE",
"420 1646 OFFCURVE",
"448 1568 OFFCURVE",
"469 1479 CURVE",
"386 1469 OFFCURVE",
"313 1436 OFFCURVE",
"248 1380 CURVE",
"295 1298 LINE",
"382 1367 OFFCURVE",
"440 1389 OFFCURVE",
"510 1389 CURVE SMOOTH",
"628 1389 OFFCURVE",
"684 1326 OFFCURVE",
"684 1192 CURVE SMOOTH",
"684 972 OFFCURVE",
"534 805 OFFCURVE",
"338 805 CURVE SMOOTH",
"238 805 LINE",
"219 711 LINE",
"324 711 LINE SMOOTH",
"465 711 OFFCURVE",
"543 627 OFFCURVE",
"543 443 CURVE SMOOTH",
"543 374 OFFCURVE",
"532 320 OFFCURVE",
"513 273 CURVE SMOOTH",
"473 174 OFFCURVE",
"408 123 OFFCURVE",
"244 86 CURVE SMOOTH",
"177 71 OFFCURVE",
"96 51 OFFCURVE",
"37 12 CURVE SMOOTH",
"-16 -23 OFFCURVE",
"-57 -78 OFFCURVE",
"-57 -175 CURVE SMOOTH",
"-57 -302 OFFCURVE",
"14 -379 OFFCURVE",
"148 -379 CURVE SMOOTH",
"175 -379 OFFCURVE",
"196 -376 OFFCURVE",
"228 -370 CURVE SMOOTH",
"256 -365 OFFCURVE",
"286 -362 OFFCURVE",
"313 -362 CURVE SMOOTH",
"347 -362 OFFCURVE",
"377 -367 OFFCURVE",
"408 -377 CURVE",
"408 -276 LINE",
"383 -271 OFFCURVE",
"358 -268 OFFCURVE",
"322 -268 CURVE SMOOTH",
"286 -268 OFFCURVE",
"267 -271 OFFCURVE",
"243 -275 CURVE SMOOTH",
"220 -279 OFFCURVE",
"196 -283 OFFCURVE",
"167 -283 CURVE SMOOTH",
"84 -283 OFFCURVE",
"45 -250 OFFCURVE",
"45 -180 CURVE SMOOTH",
"45 -118 OFFCURVE",
"75 -78 OFFCURVE",
"131 -48 CURVE SMOOTH",
"162 -32 OFFCURVE",
"181 -25 OFFCURVE",
"274 0 CURVE SMOOTH",
"445 46 OFFCURVE",
"515 90 OFFCURVE",
"565 162 CURVE SMOOTH",
"617 237 OFFCURVE",
"643 336 OFFCURVE",
"643 453 CURVE SMOOTH"
);
}
);
width = 731;
}
);
note = uni046E;
unicode = 046E;
},
{
glyphname = "Fita-cy";
lastChange = "2018-03-21 19:05:46 +0000";
layers = (
{
layerId = "9047BFCD-DDCC-4357-AC30-29E5270711EF";
paths = (
{
closed = 1;
nodes = (
"513 -20 OFFCURVE",
"605 28 OFFCURVE",
"690 125 CURVE SMOOTH",
"859 318 OFFCURVE",
"977 721 OFFCURVE",
"977 1100 CURVE SMOOTH",
"977 1355 OFFCURVE",
"885 1483 OFFCURVE",
"702 1483 CURVE SMOOTH",
"545 1483 OFFCURVE",
"410 1381 OFFCURVE",
"306 1170 CURVE SMOOTH",
"201 958 OFFCURVE",
"135 640 OFFCURVE",
"135 379 CURVE SMOOTH",
"135 113 OFFCURVE",
"227 -20 OFFCURVE",
"412 -20 CURVE SMOOTH"
);
},
{
closed = 1;
nodes = (
"233 466 OFFCURVE",
"243 573 OFFCURVE",
"264 698 CURVE",
"831 698 LINE",
"754 322 OFFCURVE",
"601 74 OFFCURVE",
"420 74 CURVE SMOOTH",
"295 74 OFFCURVE",
"233 175 OFFCURVE",
"233 377 CURVE SMOOTH"
);
},
{
closed = 1;
nodes = (
"879 1010 OFFCURVE",
"869 908 OFFCURVE",
"850 793 CURVE",
"283 793 LINE",
"366 1176 OFFCURVE",
"511 1389 OFFCURVE",
"692 1389 CURVE SMOOTH",
"817 1389 OFFCURVE",
"879 1293 OFFCURVE",
"879 1100 CURVE SMOOTH"
);
}
);
width = 958;
}
);
note = afii10147;
unicode = 0472;
},
{
glyphname = "Izhitsa-cy";
lastChange = "2018-03-21 19:44:00 +0000";
layers = (
{
anchors = (
{
name = top;
position = "{595, 1462}";
}
);
layerId = "9047BFCD-DDCC-4357-AC30-29E5270711EF";
paths = (
{
closed = 1;
nodes = (
"857 1242 OFFCURVE",
"888 1304 OFFCURVE",
"913 1337 CURVE SMOOTH",
"938 1370 OFFCURVE",
"966 1386 OFFCURVE",
"999 1386 CURVE SMOOTH",
"1021 1386 OFFCURVE",
"1041 1381 OFFCURVE",
"1059 1372 CURVE",
"1059 1462 LINE",
"1042 1472 OFFCURVE",
"1021 1477 OFFCURVE",
"997 1477 CURVE SMOOTH",
"913 1477 OFFCURVE",
"873 1447 OFFCURVE",
"823 1364 CURVE SMOOTH",
"798 1323 OFFCURVE",
"768 1262 OFFCURVE",
"735 1182 CURVE SMOOTH",
"432 455 LINE SMOOTH",
"382 334 OFFCURVE",
"340 223 OFFCURVE",
"307 121 CURVE",
"322 298 OFFCURVE",
"330 442 OFFCURVE",
"330 553 CURVE SMOOTH",
"330 1462 LINE",
"231 1462 LINE",
"231 0 LINE",
"340 0 LINE",
"819 1151 LINE SMOOTH"
);
}
);
width = 799;
}
);
note = afii10148;
unicode = 0474;
},
{
glyphname = "Ghestroke-cy";
lastChange = "2018-03-21 19:05:46 +0000";
layers = (
{
layerId = "9047BFCD-DDCC-4357-AC30-29E5270711EF";
paths = (
{
closed = 1;
nodes = (
"209 680 LINE",
"66 0 LINE",
"166 0 LINE",
"311 680 LINE",
"508 680 LINE",
"526 770 LINE",
"330 770 LINE",
"455 1366 LINE",
"815 1366 LINE",
"836 1462 LINE",
"375 1462 LINE",
"227 770 LINE",
"139 770 LINE",
"121 680 LINE"
);
}
);
width = 616;
}
);
note = uni0492;
unicode = 0492;
},
{
glyphname = "Ghemiddlehook-cy";
lastChange = "2018-03-21 19:05:46 +0000";
layers = (
{
layerId = "9047BFCD-DDCC-4357-AC30-29E5270711EF";
paths = (
{
closed = 1;
nodes = (
"336 692 LINE",
"379 706 OFFCURVE",
"418 713 OFFCURVE",
"453 713 CURVE SMOOTH",
"588 713 OFFCURVE",
"643 617 OFFCURVE",
"643 444 CURVE SMOOTH",
"643 271 OFFCURVE",
"627 118 OFFCURVE",
"594 -15 CURVE SMOOTH",
"529 -280 OFFCURVE",
"411 -410 OFFCURVE",
"256 -410 CURVE SMOOTH",
"205 -410 OFFCURVE",
"153 -398 OFFCURVE",
"100 -375 CURVE",
"100 -473 LINE",
"146 -492 OFFCURVE",
"197 -502 OFFCURVE",
"254 -502 CURVE SMOOTH",
"355 -502 OFFCURVE",
"442 -464 OFFCURVE",
"516 -387 CURVE SMOOTH",
"663 -234 OFFCURVE",
"743 69 OFFCURVE",
"743 442 CURVE SMOOTH",
"743 683 OFFCURVE",
"655 803 OFFCURVE",
"479 803 CURVE SMOOTH",
"441 803 OFFCURVE",
"400 797 OFFCURVE",
"356 784 CURVE",
"481 1368 LINE",
"842 1368 LINE",
"862 1462 LINE",
"403 1462 LINE",
"92 0 LINE",
"190 0 LINE"
);
}
);
width = 819;
}
);
note = uni0494;
unicode = 0494;
},
{
glyphname = "Zhedescender-cy";
lastChange = "2018-03-21 19:05:46 +0000";
layers = (
{
layerId = "9047BFCD-DDCC-4357-AC30-29E5270711EF";
paths = (
{
closed = 1;
nodes = (
"340 1462 LINE",
"240 1462 LINE",
"440 760 LINE",
"-76 0 LINE",
"37 0 LINE",
"537 748 LINE",
"379 0 LINE",
"477 0 LINE",
"635 750 LINE",
"827 0 LINE",
"864 0 LINE",
"786 -369 LINE",
"885 -369 LINE",
"983 94 LINE",
"907 94 LINE",
"733 750 LINE",
"1231 1462 LINE",
"1128 1462 LINE",
"637 758 LINE",
"786 1462 LINE",
"688 1462 LINE",
"539 756 LINE"
);
}
);
width = 1010;
}
);
note = uni0496;
unicode = 0496;
},
{
glyphname = "Kadescender-cy";
lastChange = "2018-03-22 17:45:31 +0000";
layers = (
{
layerId = "9047BFCD-DDCC-4357-AC30-29E5270711EF";
paths = (
{
closed = 1;
nodes = (
"524 -369 LINE",
"623 -369 LINE",
"721 94 LINE",
"645 94 LINE",
"496 795 LINE",
"948 1462 LINE",
"848 1462 LINE",
"432 868 LINE SMOOTH",
"390 808 OFFCURVE",
"349 748 OFFCURVE",
"309 688 CURVE",
"473 1462 LINE",
"375 1462 LINE",
"66 0 LINE",
"164 0 LINE",
"287 580 LINE",
"416 709 LINE",
"565 0 LINE",
"602 0 LINE"
);
}
);
width = 788;
}
);
note = uni049A;
unicode = 049A;
},
{
glyphname = "Kaverticalstroke-cy";
lastChange = "2018-03-21 19:05:46 +0000";
layers = (
{
layerId = "9047BFCD-DDCC-4357-AC30-29E5270711EF";
paths = (
{
closed = 1;
nodes = (
"948 1462 LINE",
"848 1462 LINE",
"537 1006 LINE",
"586 1239 LINE",
"500 1239 LINE",
"414 829 LINE",
"309 688 LINE",
"473 1462 LINE",
"375 1462 LINE",
"66 0 LINE",
"164 0 LINE",
"287 580 LINE",
"379 672 LINE",
"299 291 LINE",
"385 291 LINE",
"444 580 LINE",
"565 0 LINE",
"666 0 LINE",
"496 795 LINE"
);
}
);
width = 743;
}
);
note = uni049C;
unicode = 049C;
},
{
glyphname = "Kastroke-cy";
lastChange = "2018-03-22 17:46:18 +0000";
layers = (
{
layerId = "9047BFCD-DDCC-4357-AC30-29E5270711EF";
paths = (
{
closed = 1;
nodes = (
"315 1182 LINE",
"66 0 LINE",
"164 0 LINE",
"287 580 LINE",
"416 709 LINE",
"565 0 LINE",
"666 0 LINE",
"496 795 LINE",
"948 1462 LINE",
"848 1462 LINE",
"432 868 LINE SMOOTH",
"390 808 OFFCURVE",
"349 748 OFFCURVE",
"309 688 CURVE",
"414 1182 LINE",
"575 1182 LINE",
"596 1272 LINE",
"432 1272 LINE",
"473 1462 LINE",
"375 1462 LINE",
"334 1272 LINE",
"217 1272 LINE",
"197 1182 LINE"
);
}
);
width = 743;
}
);
note = uni049E;
unicode = 049E;
},
{
glyphname = "Kabashkir-cy";
lastChange = "2018-03-21 19:05:46 +0000";
layers = (
{
layerId = "9047BFCD-DDCC-4357-AC30-29E5270711EF";
paths = (
{
closed = 1;
nodes = (
"197 0 LINE",
"295 0 LINE",
"453 748 LINE",
"678 0 LINE",
"786 0 LINE",
"557 748 LINE",
"1063 1462 LINE",
"954 1462 LINE",
"455 756 LINE",
"604 1462 LINE",
"244 1462 LINE",
"225 1368 LINE",
"485 1368 LINE"
);
}
);
width = 860;
}
);
note = uni04A0;
unicode = 04A0;
},
{
glyphname = "Endescender-cy";
lastChange = "2018-03-21 19:05:46 +0000";
layers = (
{
layerId = "9047BFCD-DDCC-4357-AC30-29E5270711EF";
paths = (
{
closed = 1;
nodes = (
"1012 1462 LINE",
"913 1462 LINE",
"776 815 LINE",
"336 815 LINE",
"473 1462 LINE",
"375 1462 LINE",
"66 0 LINE",
"164 0 LINE",
"315 717 LINE",
"756 717 LINE",
"604 0 LINE",
"717 0 LINE",
"639 -369 LINE",
"737 -369 LINE",
"836 94 LINE",
"721 94 LINE"
);
}
);
width = 924;
}
);
note = uni04A2;
unicode = 04A2;
},
{
glyphname = "Enghe-cy";
lastChange = "2018-03-21 19:05:46 +0000";
layers = (
{
layerId = "9047BFCD-DDCC-4357-AC30-29E5270711EF";
paths = (
{
closed = 1;
nodes = (
"1253 1368 LINE",
"1272 1462 LINE",
"913 1462 LINE",
"776 815 LINE",
"336 815 LINE",
"473 1462 LINE",
"375 1462 LINE",
"66 0 LINE",
"164 0 LINE",
"315 717 LINE",
"756 717 LINE",
"604 0 LINE",
"702 0 LINE",
"991 1368 LINE"
);
}
);
width = 1057;
}
);
note = uni04A4;
unicode = 04A4;
},
{
glyphname = "Pemiddlehook-cy";
lastChange = "2018-03-21 19:05:46 +0000";
layers = (
{
layerId = "9047BFCD-DDCC-4357-AC30-29E5270711EF";
paths = (
{
closed = 1;
nodes = (
"876 706 OFFCURVE",
"916 713 OFFCURVE",
"952 713 CURVE SMOOTH",
"1079 713 OFFCURVE",
"1143 623 OFFCURVE",
"1143 444 CURVE SMOOTH",
"1143 273 OFFCURVE",
"1127 121 OFFCURVE",
"1095 -11 CURVE SMOOTH",
"1030 -275 OFFCURVE",
"911 -410 OFFCURVE",
"756 -410 CURVE SMOOTH",
"704 -410 OFFCURVE",
"652 -398 OFFCURVE",
"600 -375 CURVE",
"600 -473 LINE",
"645 -492 OFFCURVE",
"696 -502 OFFCURVE",
"754 -502 CURVE SMOOTH",
"855 -502 OFFCURVE",
"942 -464 OFFCURVE",
"1016 -387 CURVE SMOOTH",
"1163 -234 OFFCURVE",
"1243 69 OFFCURVE",
"1243 442 CURVE SMOOTH",
"1243 683 OFFCURVE",
"1155 803 OFFCURVE",
"979 803 CURVE SMOOTH",
"938 803 OFFCURVE",
"895 797 OFFCURVE",
"852 784 CURVE",
"995 1462 LINE",
"408 1462 LINE",
"98 0 LINE",
"197 0 LINE",
"485 1368 LINE",
"879 1368 LINE",
"588 0 LINE",
"686 0 LINE",
"831 692 LINE"
);
}
);
width = 1317;
}
);
note = uni04A6;
unicode = 04A6;
},
{
glyphname = "Haabkhasian-cy";
lastChange = "2018-03-22 17:46:23 +0000";
layers = (
{
layerId = "9047BFCD-DDCC-4357-AC30-29E5270711EF";
paths = (
{
closed = 1;
nodes = (
"1051 1114 OFFCURVE",
"986 1194 OFFCURVE",
"876 1194 CURVE SMOOTH",
"806 1194 OFFCURVE",
"741 1161 OFFCURVE",
"682 1089 CURVE SMOOTH",
"566 948 OFFCURVE",
"496 684 OFFCURVE",
"496 417 CURVE SMOOTH",
"496 275 OFFCURVE",
"516 181 OFFCURVE",
"559 94 CURVE",
"522 79 OFFCURVE",
"483 72 OFFCURVE",
"449 72 CURVE SMOOTH",
"309 72 OFFCURVE",
"240 191 OFFCURVE",
"240 446 CURVE SMOOTH",
"240 596 OFFCURVE",
"264 753 OFFCURVE",
"308 896 CURVE SMOOTH",
"401 1198 OFFCURVE",
"566 1391 OFFCURVE",
"739 1391 CURVE SMOOTH",
"774 1391 OFFCURVE",
"818 1383 OFFCURVE",
"848 1360 CURVE",
"897 1446 LINE",
"858 1472 OFFCURVE",
"800 1485 OFFCURVE",
"745 1485 CURVE SMOOTH",
"638 1485 OFFCURVE",
"539 1437 OFFCURVE",
"448 1341 CURVE SMOOTH",
"262 1145 OFFCURVE",
"141 787 OFFCURVE",
"141 448 CURVE SMOOTH",
"141 124 OFFCURVE",
"251 -20 OFFCURVE",
"436 -20 CURVE SMOOTH",
"491 -20 OFFCURVE",
"548 -7 OFFCURVE",
"598 20 CURVE",
"637 -45 OFFCURVE",
"700 -84 OFFCURVE",
"781 -84 CURVE SMOOTH",
"818 -84 OFFCURVE",
"860 -76 OFFCURVE",
"901 -61 CURVE",
"901 31 LINE",
"867 16 OFFCURVE",
"835 8 OFFCURVE",
"805 8 CURVE SMOOTH",
"755 8 OFFCURVE",
"716 29 OFFCURVE",
"688 70 CURVE",
"910 251 OFFCURVE",
"1051 624 OFFCURVE",
"1051 916 CURVE SMOOTH"
);
},
{
closed = 1;
nodes = (
"610 206 OFFCURVE",
"594 294 OFFCURVE",
"594 412 CURVE SMOOTH",
"594 519 OFFCURVE",
"607 631 OFFCURVE",
"632 741 CURVE SMOOTH",
"682 961 OFFCURVE",
"767 1100 OFFCURVE",
"862 1100 CURVE SMOOTH",
"923 1100 OFFCURVE",
"952 1043 OFFCURVE",
"952 923 CURVE SMOOTH",
"952 836 OFFCURVE",
"937 726 OFFCURVE",
"908 616 CURVE SMOOTH",
"852 404 OFFCURVE",
"753 230 OFFCURVE",
"641 139 CURVE"
);
}
);
width = 1030;
}
);
note = uni04A8;
unicode = 04A8;
},
{
glyphname = "Tedescender-cy";
lastChange = "2018-03-21 19:05:46 +0000";
layers = (
{
layerId = "9047BFCD-DDCC-4357-AC30-29E5270711EF";
paths = (
{
closed = 1;
nodes = (
"328 -369 LINE",
"426 94 LINE",
"311 94 LINE",
"580 1366 LINE",
"836 1366 LINE",
"856 1462 LINE",
"244 1462 LINE",
"223 1366 LINE",
"479 1366 LINE",
"190 0 LINE",
"307 0 LINE",
"229 -369 LINE"
);
}
);
width = 639;
}
);
note = uni04AC;
unicode = 04AC;
},
{
glyphname = "Ustraitstroke-cy";
lastChange = "2018-03-21 19:05:46 +0000";
layers = (
{
layerId = "9047BFCD-DDCC-4357-AC30-29E5270711EF";
paths = (
{
closed = 1;
nodes = (
"266 406 LINE",
"180 0 LINE",
"281 0 LINE",
"367 406 LINE",
"522 406 LINE",
"541 496 LINE",
"385 496 LINE",
"401 571 LINE",
"848 1462 LINE",
"745 1462 LINE",
"379 707 LINE",
"328 1462 LINE",
"227 1462 LINE",
"301 571 LINE",
"285 496 LINE",
"139 496 LINE",
"121 406 LINE"
);
}
);
width = 616;
}
);
note = uni04B0;
unicode = 04B0;
},
{
glyphname = "Hadescender-cy";
lastChange = "2018-03-21 19:05:46 +0000";
layers = (
{
layerId = "9047BFCD-DDCC-4357-AC30-29E5270711EF";
paths = (
{
closed = 1;
nodes = (
"449 -369 LINE",
"547 -369 LINE",
"645 94 LINE",
"539 94 LINE",
"479 743 LINE",
"856 1462 LINE",
"756 1462 LINE",
"449 856 LINE",
"381 1462 LINE",
"281 1462 LINE",
"362 791 LINE",
"-57 0 LINE",
"45 0 LINE",
"393 666 LINE",
"446 0 LINE",
"526 0 LINE"
);
}
);
width = 643;
}
);
note = uni04B2;
unicode = 04B2;
},
{
glyphname = "Tetse-cy";
lastChange = "2018-03-21 19:05:46 +0000";
layers = (
{
layerId = "9047BFCD-DDCC-4357-AC30-29E5270711EF";
paths = (
{
closed = 1;
nodes = (
"479 1368 LINE",
"188 0 LINE",
"827 0 LINE",
"748 -369 LINE",
"846 -369 LINE",
"944 94 LINE",
"846 94 LINE",
"1137 1462 LINE",
"1038 1462 LINE",
"748 94 LINE",
"307 94 LINE",
"578 1368 LINE",
"836 1368 LINE",
"856 1462 LINE",
"238 1462 LINE",
"217 1368 LINE"
);
}
);
width = 1059;
}
);
note = uni04B4;
unicode = 04B4;
},
{
glyphname = "Chedescender-cy";
lastChange = "2018-03-22 17:46:30 +0000";
layers = (
{
layerId = "9047BFCD-DDCC-4357-AC30-29E5270711EF";
paths = (
{
closed = 1;
nodes = (
"979 1462 LINE",
"881 1462 LINE",
"723 713 LINE",
"610 645 OFFCURVE",
"544 627 OFFCURVE",
"467 627 CURVE SMOOTH",
"362 627 OFFCURVE",
"307 684 OFFCURVE",
"307 788 CURVE SMOOTH",
"307 817 OFFCURVE",
"311 850 OFFCURVE",
"319 887 CURVE SMOOTH",
"442 1462 LINE",
"342 1462 LINE",
"223 899 LINE SMOOTH",
"215 860 OFFCURVE",
"209 819 OFFCURVE",
"209 776 CURVE SMOOTH",
"209 612 OFFCURVE",
"301 532 OFFCURVE",
"446 532 CURVE SMOOTH",
"518 532 OFFCURVE",
"589 554 OFFCURVE",
"705 627 CURVE",
"571 0 LINE",
"670 0 LINE",
"592 -369 LINE",
"690 -369 LINE",
"788 94 LINE",
"690 94 LINE"
);
}
);
width = 901;
}
);
note = uni04B6;
unicode = 04B6;
},
{
glyphname = "Cheverticalstroke-cy";
lastChange = "2018-03-22 17:46:33 +0000";
layers = (
{
layerId = "9047BFCD-DDCC-4357-AC30-29E5270711EF";
paths = (
{
closed = 1;
nodes = (
"881 1462 LINE",
"723 713 LINE",
"659 674 OFFCURVE",
"603 642 OFFCURVE",
"528 631 CURVE",
"606 999 LINE",
"518 999 LINE",
"438 627 LINE",
"351 637 OFFCURVE",
"307 691 OFFCURVE",
"307 788 CURVE SMOOTH",
"307 817 OFFCURVE",
"311 850 OFFCURVE",
"319 887 CURVE SMOOTH",
"442 1462 LINE",
"342 1462 LINE",
"223 899 LINE SMOOTH",
"215 860 OFFCURVE",
"209 819 OFFCURVE",
"209 776 CURVE SMOOTH",
"209 623 OFFCURVE",
"288 543 OFFCURVE",
"420 532 CURVE",
"352 213 LINE",
"440 213 LINE",
"508 539 LINE",
"565 550 OFFCURVE",
"630 580 OFFCURVE",
"705 627 CURVE",
"571 0 LINE",
"670 0 LINE",
"979 1462 LINE"
);
}
);
width = 901;
}
);
note = uni04B8;
unicode = 04B8;
},
{
glyphname = "Shha-cy";
lastChange = "2018-03-21 19:44:00 +0000";
layers = (
{
anchors = (
{
name = bottomright;
position = "{766, 0}";
}
);
layerId = "9047BFCD-DDCC-4357-AC30-29E5270711EF";
paths = (
{
closed = 1;
nodes = (
"164 0 LINE",
"322 750 LINE",
"438 821 OFFCURVE",
"501 836 OFFCURVE",
"578 836 CURVE SMOOTH",
"684 836 OFFCURVE",
"737 782 OFFCURVE",
"737 674 CURVE SMOOTH",
"737 645 OFFCURVE",
"733 612 OFFCURVE",
"725 575 CURVE SMOOTH",
"602 0 LINE",
"702 0 LINE",
"821 563 LINE SMOOTH",
"831 608 OFFCURVE",
"836 649 OFFCURVE",
"836 686 CURVE SMOOTH",
"836 850 OFFCURVE",
"743 930 OFFCURVE",
"598 930 CURVE SMOOTH",
"525 930 OFFCURVE",
"439 899 OFFCURVE",
"340 836 CURVE",
"473 1462 LINE",
"375 1462 LINE",
"66 0 LINE"
);
}
);
width = 901;
}
);
note = uni04BA;
unicode = 04BA;
},
{
glyphname = "Cheabkhasian-cy";
lastChange = "2018-03-21 19:05:46 +0000";
layers = (
{
layerId = "9047BFCD-DDCC-4357-AC30-29E5270711EF";
paths = (
{
closed = 1;
nodes = (
"449 72 OFFCURVE",
"367 190 OFFCURVE",
"367 426 CURVE SMOOTH",
"367 511 OFFCURVE",
"374 598 OFFCURVE",
"387 688 CURVE",
"533 688 OFFCURVE",
"661 710 OFFCURVE",
"770 753 CURVE SMOOTH",
"989 839 OFFCURVE",
"1096 998 OFFCURVE",
"1096 1214 CURVE SMOOTH",
"1096 1385 OFFCURVE",
"1000 1485 OFFCURVE",
"844 1485 CURVE SMOOTH",
"607 1485 OFFCURVE",
"401 1217 OFFCURVE",
"305 780 CURVE",
"237 780 OFFCURVE",
"205 799 OFFCURVE",
"205 860 CURVE SMOOTH",
"205 899 OFFCURVE",
"221 946 OFFCURVE",
"252 1001 CURVE",
"158 1001 LINE",
"128 946 OFFCURVE",
"113 892 OFFCURVE",
"113 838 CURVE SMOOTH",
"113 745 OFFCURVE",
"176 688 OFFCURVE",
"287 688 CURVE",
"274 602 OFFCURVE",
"268 520 OFFCURVE",
"268 442 CURVE SMOOTH",
"268 134 OFFCURVE",
"376 -20 OFFCURVE",
"608 -20 CURVE SMOOTH",
"697 -20 OFFCURVE",
"785 2 OFFCURVE",
"870 45 CURVE",
"870 143 LINE",
"755 87 OFFCURVE",
"691 72 OFFCURVE",
"612 72 CURVE SMOOTH"
);
},
{
closed = 1;
nodes = (
"940 1391 OFFCURVE",
"997 1323 OFFCURVE",
"997 1206 CURVE SMOOTH",
"997 930 OFFCURVE",
"778 780 OFFCURVE",
"406 780 CURVE",
"487 1156 OFFCURVE",
"652 1391 OFFCURVE",
"836 1391 CURVE SMOOTH"
);
}
);
width = 1067;
}
);
note = uni04BC;
unicode = 04BC;
},
{
glyphname = "Chedescenderabkhasian-cy";
lastChange = "2018-03-21 19:05:46 +0000";
layers = (
{
layerId = "9047BFCD-DDCC-4357-AC30-29E5270711EF";
paths = (
{
closed = 1;
nodes = (
"449 72 OFFCURVE",
"367 190 OFFCURVE",
"367 426 CURVE SMOOTH",
"367 511 OFFCURVE",
"374 598 OFFCURVE",
"387 688 CURVE",
"533 688 OFFCURVE",
"661 710 OFFCURVE",
"770 753 CURVE SMOOTH",
"989 839 OFFCURVE",
"1096 998 OFFCURVE",
"1096 1214 CURVE SMOOTH",
"1096 1385 OFFCURVE",
"1000 1485 OFFCURVE",
"844 1485 CURVE SMOOTH",
"607 1485 OFFCURVE",
"401 1217 OFFCURVE",
"305 780 CURVE",
"237 780 OFFCURVE",
"205 799 OFFCURVE",
"205 860 CURVE SMOOTH",
"205 899 OFFCURVE",
"221 946 OFFCURVE",
"252 1001 CURVE",
"158 1001 LINE",
"128 946 OFFCURVE",
"113 892 OFFCURVE",
"113 838 CURVE SMOOTH",
"113 745 OFFCURVE",
"176 688 OFFCURVE",
"287 688 CURVE",
"274 602 OFFCURVE",
"268 520 OFFCURVE",
"268 442 CURVE SMOOTH",
"268 151 OFFCURVE",
"362 8 OFFCURVE",
"545 -16 CURVE",
"469 -369 LINE",
"567 -369 LINE",
"641 -18 LINE",
"718 -15 OFFCURVE",
"795 6 OFFCURVE",
"870 45 CURVE",
"870 143 LINE",
"755 87 OFFCURVE",
"691 72 OFFCURVE",
"612 72 CURVE SMOOTH"
);
},
{
closed = 1;
nodes = (
"940 1391 OFFCURVE",
"997 1323 OFFCURVE",
"997 1206 CURVE SMOOTH",
"997 930 OFFCURVE",
"778 780 OFFCURVE",
"406 780 CURVE",
"487 1156 OFFCURVE",
"652 1391 OFFCURVE",
"836 1391 CURVE SMOOTH"
);
}
);
width = 1067;
}
);
note = uni04BE;
unicode = 04BE;
},
{
glyphname = "Kahook-cy";
lastChange = "2018-03-21 19:05:46 +0000";
layers = (
{
layerId = "9047BFCD-DDCC-4357-AC30-29E5270711EF";
paths = (
{
closed = 1;
nodes = (
"848 1462 LINE",
"334 817 LINE",
"473 1462 LINE",
"375 1462 LINE",
"66 0 LINE",
"164 0 LINE",
"309 692 LINE",
"354 706 OFFCURVE",
"396 713 OFFCURVE",
"436 713 CURVE SMOOTH",
"574 713 OFFCURVE",
"643 623 OFFCURVE",
"643 444 CURVE SMOOTH",
"643 271 OFFCURVE",
"627 118 OFFCURVE",
"594 -15 CURVE SMOOTH",
"529 -280 OFFCURVE",
"411 -410 OFFCURVE",
"256 -410 CURVE SMOOTH",
"205 -410 OFFCURVE",
"153 -398 OFFCURVE",
"100 -375 CURVE",
"100 -473 LINE",
"146 -492 OFFCURVE",
"197 -502 OFFCURVE",
"254 -502 CURVE SMOOTH",
"355 -502 OFFCURVE",
"442 -464 OFFCURVE",
"516 -387 CURVE SMOOTH",
"663 -234 OFFCURVE",
"743 69 OFFCURVE",
"743 442 CURVE SMOOTH",
"743 681 OFFCURVE",
"654 801 OFFCURVE",
"475 801 CURVE",
"422 797 LINE",
"948 1462 LINE"
);
}
);
width = 815;
}
);
note = uni04C3;
unicode = 04C3;
},
{
glyphname = "Eltail-cy";
lastChange = "2018-03-22 17:46:49 +0000";
layers = (
{
layerId = "9047BFCD-DDCC-4357-AC30-29E5270711EF";
paths = (
{
closed = 1;
nodes = (
"449 -369 LINE",
"551 -369 LINE",
"754 94 LINE",
"655 94 LINE",
"946 1462 LINE",
"518 1462 LINE",
"422 1130 LINE SMOOTH",
"333 822 OFFCURVE",
"212 417 OFFCURVE",
"180 319 CURVE SMOOTH",
"131 169 OFFCURVE",
"79 84 OFFCURVE",
"-2 84 CURVE SMOOTH",
"-19 84 OFFCURVE",
"-43 88 OFFCURVE",
"-63 96 CURVE",
"-63 2 LINE",
"-33 -6 OFFCURVE",
"-6 -10 OFFCURVE",
"18 -10 CURVE SMOOTH",
"103 -10 OFFCURVE",
"166 43 OFFCURVE",
"219 167 CURVE SMOOTH",
"247 232 OFFCURVE",
"297 380 OFFCURVE",
"357 579 CURVE SMOOTH",
"417 778 OFFCURVE",
"507 1090 OFFCURVE",
"586 1368 CURVE",
"827 1368 LINE",
"537 0 LINE",
"618 0 LINE"
);
}
);
width = 838;
}
);
note = uni04C5;
unicode = 04C5;
},
{
glyphname = "Enhook-cy";
lastChange = "2018-03-22 17:46:53 +0000";
layers = (
{
layerId = "9047BFCD-DDCC-4357-AC30-29E5270711EF";
paths = (
{
closed = 1;
nodes = (
"372 -508 OFFCURVE",
"433 -494 OFFCURVE",
"484 -459 CURVE SMOOTH",
"582 -392 OFFCURVE",
"649 -245 OFFCURVE",
"698 -16 CURVE SMOOTH",
"1012 1462 LINE",
"913 1462 LINE",
"776 815 LINE",
"336 815 LINE",
"473 1462 LINE",
"375 1462 LINE",
"66 0 LINE",
"164 0 LINE",
"315 717 LINE",
"756 717 LINE",
"602 -8 LINE SMOOTH",
"581 -108 OFFCURVE",
"558 -185 OFFCURVE",
"531 -246 CURVE SMOOTH",
"477 -368 OFFCURVE",
"414 -418 OFFCURVE",
"304 -418 CURVE SMOOTH",
"241 -418 OFFCURVE",
"181 -402 OFFCURVE",
"133 -369 CURVE",
"133 -469 LINE",
"181 -495 OFFCURVE",
"236 -508 OFFCURVE",
"303 -508 CURVE SMOOTH"
);
}
);
width = 924;
}
);
note = uni04C7;
unicode = 04C7;
},
{
glyphname = "Entail-cy";
lastChange = "2018-03-21 19:05:46 +0000";
layers = (
{
layerId = "9047BFCD-DDCC-4357-AC30-29E5270711EF";
paths = (
{
closed = 1;
nodes = (
"516 -369 LINE",
"618 -369 LINE",
"821 94 LINE",
"723 94 LINE",
"1012 1462 LINE",
"913 1462 LINE",
"776 815 LINE",
"336 815 LINE",
"473 1462 LINE",
"375 1462 LINE",
"66 0 LINE",
"164 0 LINE",
"315 717 LINE",
"756 717 LINE",
"604 0 LINE",
"686 0 LINE"
);
}
);
width = 924;
}
);
note = uni04C9;
unicode = 04C9;
},
{
glyphname = "Chekhakassian-cy";
lastChange = "2018-03-22 17:46:56 +0000";
layers = (
{
layerId = "9047BFCD-DDCC-4357-AC30-29E5270711EF";
paths = (
{
closed = 1;
nodes = (
"418 -369 LINE",
"516 -369 LINE",
"594 0 LINE",
"670 0 LINE",
"979 1462 LINE",
"881 1462 LINE",
"723 713 LINE",
"610 645 OFFCURVE",
"544 627 OFFCURVE",
"467 627 CURVE SMOOTH",
"362 627 OFFCURVE",
"307 684 OFFCURVE",
"307 788 CURVE SMOOTH",
"307 817 OFFCURVE",
"311 850 OFFCURVE",
"319 887 CURVE SMOOTH",
"442 1462 LINE",
"342 1462 LINE",
"223 899 LINE SMOOTH",
"215 860 OFFCURVE",
"209 819 OFFCURVE",
"209 776 CURVE SMOOTH",
"209 612 OFFCURVE",
"301 532 OFFCURVE",
"446 532 CURVE SMOOTH",
"518 532 OFFCURVE",
"589 554 OFFCURVE",
"705 627 CURVE",
"592 94 LINE",
"516 94 LINE"
);
}
);
width = 901;
}
);
note = uni04CB;
unicode = 04CB;
},
{
glyphname = "Emtail-cy";
lastChange = "2018-03-22 17:47:29 +0000";
layers = (
{
layerId = "9047BFCD-DDCC-4357-AC30-29E5270711EF";
paths = (
{
closed = 1;
nodes = (
"934 0 LINE",
"1016 0 LINE",
"846 -369 LINE",
"948 -369 LINE",
"1151 94 LINE",
"1055 94 LINE",
"1343 1462 LINE",
"1174 1462 LINE",
"680 352 LINE SMOOTH",
"621 219 OFFCURVE",
"584 135 OFFCURVE",
"573 102 CURVE",
"571 102 LINE",
"570 209 OFFCURVE",
"568 319 OFFCURVE",
"567 354 CURVE SMOOTH",
"535 1462 LINE",
"375 1462 LINE",
"66 0 LINE",
"162 0 LINE",
"392 1091 LINE SMOOTH",
"409 1171 OFFCURVE",
"423 1251 OFFCURVE",
"436 1331 CURVE",
"442 1331 LINE",
"494 0 LINE",
"621 0 LINE",
"1217 1329 LINE",
"1221 1329 LINE",
"1204 1260 OFFCURVE",
"1187 1191 OFFCURVE",
"1172 1122 CURVE SMOOTH"
);
}
);
width = 1255;
}
);
note = uni04CD;
unicode = 04CD;
},
{
glyphname = "Schwa-cy";
lastChange = "2018-03-21 19:44:00 +0000";
layers = (
{
anchors = (
{
name = top;
position = "{666, 1462}";
}
);
layerId = "9047BFCD-DDCC-4357-AC30-29E5270711EF";
paths = (
{
closed = 1;
nodes = (
"936 1343 OFFCURVE",
"819 1485 OFFCURVE",
"596 1485 CURVE SMOOTH",
"509 1485 OFFCURVE",
"422 1463 OFFCURVE",
"334 1419 CURVE",
"334 1319 LINE",
"447 1376 OFFCURVE",
"511 1391 OFFCURVE",
"592 1391 CURVE SMOOTH",
"756 1391 OFFCURVE",
"838 1273 OFFCURVE",
"838 1038 CURVE SMOOTH",
"838 961 OFFCURVE",
"831 874 OFFCURVE",
"817 776 CURVE",
"666 776 OFFCURVE",
"536 755 OFFCURVE",
"428 713 CURVE SMOOTH",
"211 628 OFFCURVE",
"109 469 OFFCURVE",
"109 250 CURVE SMOOTH",
"109 83 OFFCURVE",
"199 -20 OFFCURVE",
"360 -20 CURVE SMOOTH",
"465 -20 OFFCURVE",
"561 25 OFFCURVE",
"648 114 CURVE SMOOTH",
"822 292 OFFCURVE",
"936 655 OFFCURVE",
"936 1022 CURVE SMOOTH"
);
},
{
closed = 1;
nodes = (
"266 74 OFFCURVE",
"207 141 OFFCURVE",
"207 258 CURVE SMOOTH",
"207 530 OFFCURVE",
"434 684 OFFCURVE",
"799 684 CURVE",
"722 299 OFFCURVE",
"562 74 OFFCURVE",
"369 74 CURVE SMOOTH"
);
}
);
width = 942;
}
);
note = uni04D8;
unicode = 04D8;
},
{
glyphname = "Dzeabkhasian-cy";
lastChange = "2018-03-21 19:05:46 +0000";
layers = (
{
layerId = "9047BFCD-DDCC-4357-AC30-29E5270711EF";
paths = (
{
closed = 1;
nodes = (
"250 731 LINE",
"295 731 LINE SMOOTH",
"356 731 OFFCURVE",
"406 722 OFFCURVE",
"443 704 CURVE SMOOTH",
"518 667 OFFCURVE",
"553 604 OFFCURVE",
"553 475 CURVE SMOOTH",
"553 231 OFFCURVE",
"426 74 OFFCURVE",
"217 74 CURVE SMOOTH",
"127 74 OFFCURVE",
"53 97 OFFCURVE",
"-6 143 CURVE",
"-6 29 LINE",
"45 1 OFFCURVE",
"134 -20 OFFCURVE",
"215 -20 CURVE SMOOTH",
"303 -20 OFFCURVE",
"380 1 OFFCURVE",
"447 43 CURVE SMOOTH",
"580 127 OFFCURVE",
"653 284 OFFCURVE",
"653 469 CURVE SMOOTH",
"653 680 OFFCURVE",
"566 808 OFFCURVE",
"379 821 CURVE",
"797 1368 LINE",
"813 1462 LINE",
"313 1462 LINE",
"293 1366 LINE",
"680 1366 LINE",
"264 817 LINE"
);
}
);
width = 717;
}
);
note = uni04E0;
unicode = 04E0;
},
{
glyphname = "Gedescender-cy";
lastChange = "2018-03-21 19:05:46 +0000";
layers = (
{
layerId = "9047BFCD-DDCC-4357-AC30-29E5270711EF";
paths = (
{
closed = 1;
nodes = (
"455 1362 LINE",
"815 1362 LINE",
"836 1462 LINE",
"377 1462 LINE",
"66 0 LINE",
"170 0 LINE",
"92 -369 LINE",
"186 -369 LINE",
"285 94 LINE",
"184 94 LINE"
);
}
);
width = 616;
}
);
note = uni04F6;
unicode = 04F6;
},
{
glyphname = "Gestrokehook-cy";
lastChange = "2018-03-22 17:48:04 +0000";
layers = (
{
layerId = "9047BFCD-DDCC-4357-AC30-29E5270711EF";
paths = (
{
closed = 1;
nodes = (
"209 680 LINE",
"66 0 LINE",
"166 0 LINE",
"133 -164 LINE SMOOTH",
"117 -244 OFFCURVE",
"84 -274 OFFCURVE",
"28 -274 CURVE SMOOTH",
"3 -274 OFFCURVE",
"-25 -268 OFFCURVE",
"-53 -256 CURVE",
"-53 -336 LINE",
"-26 -347 OFFCURVE",
"6 -352 OFFCURVE",
"37 -352 CURVE SMOOTH",
"145 -352 OFFCURVE",
"202 -289 OFFCURVE",
"227 -170 CURVE SMOOTH",
"283 94 LINE",
"186 94 LINE",
"311 680 LINE",
"508 680 LINE",
"526 770 LINE",
"330 770 LINE",
"455 1366 LINE",
"815 1366 LINE",
"836 1462 LINE",
"375 1462 LINE",
"227 770 LINE",
"139 770 LINE",
"121 680 LINE"
);
}
);
width = 616;
}
);
note = uni04FA;
unicode = 04FA;
},
{
glyphname = "Hahook-cy";
lastChange = "2018-03-22 17:48:06 +0000";
layers = (
{
layerId = "9047BFCD-DDCC-4357-AC30-29E5270711EF";
paths = (
{
closed = 1;
nodes = (
"856 1462 LINE",
"756 1462 LINE",
"449 856 LINE",
"381 1462 LINE",
"281 1462 LINE",
"362 791 LINE",
"-57 0 LINE",
"45 0 LINE",
"393 666 LINE",
"446 0 LINE",
"547 0 LINE",
"514 -164 LINE SMOOTH",
"499 -240 OFFCURVE",
"467 -274 OFFCURVE",
"410 -274 CURVE SMOOTH",
"383 -274 OFFCURVE",
"356 -268 OFFCURVE",
"328 -256 CURVE",
"328 -336 LINE",
"355 -347 OFFCURVE",
"386 -352 OFFCURVE",
"420 -352 CURVE SMOOTH",
"519 -352 OFFCURVE",
"587 -279 OFFCURVE",
"612 -158 CURVE SMOOTH",
"664 94 LINE",
"539 94 LINE",
"479 743 LINE"
);
}
);
width = 686;
}
);
note = uni04FC;
unicode = 04FC;
},
{
glyphname = "Hastroke-cy";
lastChange = "2018-03-21 19:05:46 +0000";
layers = (
{
layerId = "9047BFCD-DDCC-4357-AC30-29E5270711EF";
paths = (
{
closed = 1;
nodes = (
"332 733 LINE",
"-57 0 LINE",
"45 0 LINE",
"393 666 LINE",
"446 0 LINE",
"547 0 LINE",
"479 733 LINE",
"657 733 LINE",
"676 823 LINE",
"520 823 LINE",
"856 1462 LINE",
"756 1462 LINE",
"449 856 LINE",
"381 1462 LINE",
"281 1462 LINE",
"358 823 LINE",
"197 823 LINE",
"178 733 LINE"
);
}
);
width = 643;
}
);
note = uni04FE;
unicode = 04FE;
},
{
glyphname = "Komide-cy";
lastChange = "2018-03-21 19:05:46 +0000";
layers = (
{
layerId = "9047BFCD-DDCC-4357-AC30-29E5270711EF";
paths = (
{
closed = 1;
nodes = (
"84 111 OFFCURVE",
"189 0 OFFCURVE",
"420 0 CURVE SMOOTH",
"561 0 LINE",
"870 1462 LINE",
"772 1462 LINE",
"645 858 LINE",
"522 858 LINE SMOOTH",
"246 858 OFFCURVE",
"84 655 OFFCURVE",
"84 356 CURVE SMOOTH"
);
},
{
closed = 1;
nodes = (
"440 90 LINE SMOOTH",
"256 90 OFFCURVE",
"184 158 OFFCURVE",
"184 354 CURVE SMOOTH",
"184 603 OFFCURVE",
"310 768 OFFCURVE",
"514 768 CURVE SMOOTH",
"625 768 LINE",
"481 90 LINE"
);
}
);
width = 782;
}
);
note = uni0500;
unicode = 0500;
},
{
glyphname = "Komidje-cy";
lastChange = "2018-03-22 17:48:09 +0000";
layers = (
{
layerId = "9047BFCD-DDCC-4357-AC30-29E5270711EF";
paths = (
{
closed = 1;
nodes = (
"96 92 OFFCURVE",
"169 -20 OFFCURVE",
"310 -20 CURVE SMOOTH",
"340 -20 OFFCURVE",
"374 -15 OFFCURVE",
"406 -3 CURVE SMOOTH",
"461 18 OFFCURVE",
"501 53 OFFCURVE",
"555 145 CURVE",
"566 33 OFFCURVE",
"636 -20 OFFCURVE",
"755 -20 CURVE SMOOTH",
"926 -20 OFFCURVE",
"1015 88 OFFCURVE",
"1076 377 CURVE SMOOTH",
"1176 848 LINE",
"1077 848 LINE",
"965 332 LINE SMOOTH",
"927 155 OFFCURVE",
"872 74 OFFCURVE",
"765 74 CURVE SMOOTH",
"674 74 OFFCURVE",
"631 132 OFFCURVE",
"631 223 CURVE SMOOTH",
"631 247 OFFCURVE",
"634 274 OFFCURVE",
"641 305 CURVE SMOOTH",
"887 1462 LINE",
"788 1462 LINE",
"662 858 LINE",
"563 858 LINE SMOOTH",
"476 858 OFFCURVE",
"397 835 OFFCURVE",
"328 788 CURVE SMOOTH",
"189 693 OFFCURVE",
"96 502 OFFCURVE",
"96 285 CURVE SMOOTH"
);
},
{
closed = 1;
nodes = (
"512 150 OFFCURVE",
"418 74 OFFCURVE",
"327 74 CURVE SMOOTH",
"242 74 OFFCURVE",
"197 139 OFFCURVE",
"197 293 CURVE SMOOTH",
"197 384 OFFCURVE",
"213 466 OFFCURVE",
"245 540 CURVE SMOOTH",
"309 689 OFFCURVE",
"418 768 OFFCURVE",
"555 768 CURVE SMOOTH",
"641 768 LINE",
"539 276 LINE SMOOTH"
);
}
);
width = 1161;
}
);
note = uni0502;
unicode = 0502;
},
{
glyphname = "Komizje-cy";
lastChange = "2018-03-21 19:05:46 +0000";
layers = (
{
layerId = "9047BFCD-DDCC-4357-AC30-29E5270711EF";
paths = (
{
closed = 1;
nodes = (
"508 56 OFFCURVE",
"587 -20 OFFCURVE",
"731 -20 CURVE SMOOTH",
"894 -20 OFFCURVE",
"979 84 OFFCURVE",
"1042 377 CURVE SMOOTH",
"1143 848 LINE",
"1044 848 LINE",
"938 350 LINE SMOOTH",
"894 142 OFFCURVE",
"842 72 OFFCURVE",
"731 72 CURVE SMOOTH",
"648 72 OFFCURVE",
"606 118 OFFCURVE",
"606 209 CURVE SMOOTH",
"606 231 OFFCURVE",
"613 280 OFFCURVE",
"626 356 CURVE SMOOTH",
"639 431 OFFCURVE",
"645 486 OFFCURVE",
"645 520 CURVE SMOOTH",
"645 635 OFFCURVE",
"600 709 OFFCURVE",
"473 758 CURVE",
"475 764 LINE",
"662 808 OFFCURVE",
"782 977 OFFCURVE",
"782 1206 CURVE SMOOTH",
"782 1377 OFFCURVE",
"679 1483 OFFCURVE",
"508 1483 CURVE SMOOTH",
"412 1483 OFFCURVE",
"325 1451 OFFCURVE",
"248 1386 CURVE",
"295 1305 LINE",
"390 1377 OFFCURVE",
"435 1389 OFFCURVE",
"508 1389 CURVE SMOOTH",
"625 1389 OFFCURVE",
"684 1324 OFFCURVE",
"684 1194 CURVE SMOOTH",
"684 971 OFFCURVE",
"534 805 OFFCURVE",
"338 805 CURVE SMOOTH",
"238 805 LINE",
"219 711 LINE",
"324 711 LINE SMOOTH",
"460 711 OFFCURVE",
"547 639 OFFCURVE",
"547 530 CURVE SMOOTH",
"547 503 OFFCURVE",
"541 449 OFFCURVE",
"528 369 CURVE SMOOTH",
"515 288 OFFCURVE",
"508 230 OFFCURVE",
"508 193 CURVE SMOOTH"
);
}
);
width = 1167;
}
);
note = uni0504;
unicode = 0504;
},
{
glyphname = "Komidzje-cy";
lastChange = "2018-03-22 17:48:13 +0000";
layers = (
{
layerId = "9047BFCD-DDCC-4357-AC30-29E5270711EF";
paths = (
{
closed = 1;
nodes = (
"646 445 OFFCURVE",
"651 483 OFFCURVE",
"651 518 CURVE SMOOTH",
"651 637 OFFCURVE",
"590 717 OFFCURVE",
"469 758 CURVE",
"471 764 LINE",
"658 808 OFFCURVE",
"778 977 OFFCURVE",
"778 1206 CURVE SMOOTH",
"778 1377 OFFCURVE",
"675 1483 OFFCURVE",
"504 1483 CURVE SMOOTH",
"408 1483 OFFCURVE",
"321 1451 OFFCURVE",
"244 1386 CURVE",
"291 1305 LINE",
"386 1377 OFFCURVE",
"431 1389 OFFCURVE",
"504 1389 CURVE SMOOTH",
"621 1389 OFFCURVE",
"680 1324 OFFCURVE",
"680 1194 CURVE SMOOTH",
"680 971 OFFCURVE",
"530 805 OFFCURVE",
"334 805 CURVE SMOOTH",
"233 805 LINE",
"215 711 LINE",
"319 711 LINE SMOOTH",
"478 711 OFFCURVE",
"551 634 OFFCURVE",
"551 510 CURVE SMOOTH",
"551 487 OFFCURVE",
"548 453 OFFCURVE",
"539 408 CURVE SMOOTH",
"455 0 LINE",
"559 0 LINE",
"479 -369 LINE",
"573 -369 LINE",
"672 94 LINE",
"571 94 LINE",
"637 403 LINE SMOOTH"
);
}
);
width = 766;
}
);
note = uni0506;
unicode = 0506;
},
{
glyphname = "Komilje-cy";
lastChange = "2018-03-22 17:48:15 +0000";
layers = (
{
layerId = "9047BFCD-DDCC-4357-AC30-29E5270711EF";
paths = (
{
closed = 1;
nodes = (
"639 315 OFFCURVE",
"633 261 OFFCURVE",
"633 215 CURVE SMOOTH",
"633 58 OFFCURVE",
"706 -20 OFFCURVE",
"852 -20 CURVE SMOOTH",
"1020 -20 OFFCURVE",
"1106 93 OFFCURVE",
"1167 377 CURVE SMOOTH",
"1268 848 LINE",
"1169 848 LINE",
"1063 350 LINE SMOOTH",
"1022 155 OFFCURVE",
"963 74 OFFCURVE",
"856 74 CURVE SMOOTH",
"772 74 OFFCURVE",
"729 116 OFFCURVE",
"729 219 CURVE SMOOTH",
"729 262 OFFCURVE",
"734 306 OFFCURVE",
"743 350 CURVE SMOOTH",
"981 1462 LINE",
"553 1462 LINE",
"457 1130 LINE SMOOTH",
"366 816 OFFCURVE",
"286 546 OFFCURVE",
"215 319 CURVE SMOOTH",
"166 164 OFFCURVE",
"108 84 OFFCURVE",
"37 84 CURVE SMOOTH",
"14 84 OFFCURVE",
"-8 88 OFFCURVE",
"-29 96 CURVE",
"-29 2 LINE",
"2 -6 OFFCURVE",
"29 -10 OFFCURVE",
"53 -10 CURVE SMOOTH",
"144 -10 OFFCURVE",
"201 44 OFFCURVE",
"258 176 CURVE SMOOTH",
"315 308 OFFCURVE",
"447 759 OFFCURVE",
"552 1126 CURVE SMOOTH",
"621 1368 LINE",
"862 1368 LINE",
"651 377 LINE SMOOTH"
);
}
);
width = 1243;
}
);
note = uni0508;
unicode = 0508;
},
{
glyphname = "Kominje-cy";
lastChange = "2018-03-22 17:48:17 +0000";
layers = (
{
layerId = "9047BFCD-DDCC-4357-AC30-29E5270711EF";
paths = (
{
closed = 1;
nodes = (
"671 308 OFFCURVE",
"664 254 OFFCURVE",
"664 215 CURVE SMOOTH",
"664 58 OFFCURVE",
"738 -20 OFFCURVE",
"885 -20 CURVE SMOOTH",
"1056 -20 OFFCURVE",
"1144 89 OFFCURVE",
"1206 377 CURVE SMOOTH",
"1307 848 LINE",
"1208 848 LINE",
"1102 350 LINE SMOOTH",
"1061 159 OFFCURVE",
"1002 74 OFFCURVE",
"891 74 CURVE SMOOTH",
"808 74 OFFCURVE",
"766 126 OFFCURVE",
"766 231 CURVE SMOOTH",
"766 276 OFFCURVE",
"771 323 OFFCURVE",
"782 373 CURVE SMOOTH",
"1012 1462 LINE",
"913 1462 LINE",
"776 815 LINE",
"336 815 LINE",
"473 1462 LINE",
"375 1462 LINE",
"66 0 LINE",
"164 0 LINE",
"315 717 LINE",
"756 717 LINE",
"684 377 LINE SMOOTH"
);
}
);
width = 1329;
}
);
note = uni050A;
unicode = 050A;
},
{
glyphname = "Komisje-cy";
lastChange = "2018-03-22 17:48:20 +0000";
layers = (
{
layerId = "9047BFCD-DDCC-4357-AC30-29E5270711EF";
paths = (
{
closed = 1;
nodes = (
"840 647 LINE",
"766 264 OFFCURVE",
"638 72 OFFCURVE",
"455 72 CURVE SMOOTH",
"312 72 OFFCURVE",
"238 192 OFFCURVE",
"238 432 CURVE SMOOTH",
"238 653 OFFCURVE",
"299 926 OFFCURVE",
"392 1107 CURVE SMOOTH",
"484 1287 OFFCURVE",
"613 1389 OFFCURVE",
"762 1389 CURVE SMOOTH",
"836 1389 OFFCURVE",
"906 1364 OFFCURVE",
"973 1313 CURVE",
"1034 1401 LINE",
"955 1457 OFFCURVE",
"877 1485 OFFCURVE",
"768 1485 CURVE SMOOTH",
"596 1485 OFFCURVE",
"446 1387 OFFCURVE",
"329 1184 CURVE SMOOTH",
"212 981 OFFCURVE",
"139 683 OFFCURVE",
"139 438 CURVE SMOOTH",
"139 122 OFFCURVE",
"240 -20 OFFCURVE",
"451 -20 CURVE SMOOTH",
"692 -20 OFFCURVE",
"848 200 OFFCURVE",
"936 647 CURVE SMOOTH",
"954 741 LINE",
"633 741 LINE",
"612 647 LINE"
);
}
);
width = 948;
}
);
note = uni050C;
unicode = 050C;
},
{
glyphname = "Komitje-cy";
lastChange = "2018-03-22 17:48:23 +0000";
layers = (
{
layerId = "9047BFCD-DDCC-4357-AC30-29E5270711EF";
paths = (
{
closed = 1;
nodes = (
"352 281 OFFCURVE",
"359 328 OFFCURVE",
"371 383 CURVE SMOOTH",
"580 1366 LINE",
"836 1366 LINE",
"856 1462 LINE",
"244 1462 LINE",
"223 1366 LINE",
"479 1366 LINE",
"281 418 LINE SMOOTH",
"264 339 OFFCURVE",
"256 282 OFFCURVE",
"256 225 CURVE SMOOTH",
"256 58 OFFCURVE",
"326 -20 OFFCURVE",
"470 -20 CURVE SMOOTH",
"638 -20 OFFCURVE",
"725 85 OFFCURVE",
"782 350 CURVE SMOOTH",
"889 848 LINE",
"791 848 LINE",
"684 350 LINE SMOOTH",
"641 152 OFFCURVE",
"582 74 OFFCURVE",
"477 74 CURVE SMOOTH",
"391 74 OFFCURVE",
"352 126 OFFCURVE",
"352 235 CURVE SMOOTH"
);
}
);
width = 911;
}
);
note = uni050E;
unicode = 050E;
},
{
glyphname = "Reversedze-cy";
lastChange = "2018-03-21 19:05:46 +0000";
layers = (
{
layerId = "9047BFCD-DDCC-4357-AC30-29E5270711EF";
paths = (
{
closed = 1;
nodes = (
"260 910 OFFCURVE",
"302 819 OFFCURVE",
"385 772 CURVE",
"383 764 LINE",
"194 729 OFFCURVE",
"72 552 OFFCURVE",
"72 319 CURVE SMOOTH",
"72 108 OFFCURVE",
"179 -20 OFFCURVE",
"348 -20 CURVE SMOOTH",
"440 -20 OFFCURVE",
"517 -3 OFFCURVE",
"578 31 CURVE",
"578 135 LINE",
"510 96 OFFCURVE",
"449 74 OFFCURVE",
"360 74 CURVE SMOOTH",
"240 74 OFFCURVE",
"172 160 OFFCURVE",
"172 317 CURVE SMOOTH",
"172 557 OFFCURVE",
"298 711 OFFCURVE",
"494 711 CURVE SMOOTH",
"588 711 LINE",
"608 805 LINE",
"547 805 LINE SMOOTH",
"428 805 OFFCURVE",
"360 896 OFFCURVE",
"360 1055 CURVE SMOOTH",
"360 1248 OFFCURVE",
"466 1389 OFFCURVE",
"621 1389 CURVE SMOOTH",
"690 1389 OFFCURVE",
"735 1362 OFFCURVE",
"776 1319 CURVE",
"840 1393 LINE",
"780 1457 OFFCURVE",
"712 1483 OFFCURVE",
"616 1483 CURVE SMOOTH",
"546 1483 OFFCURVE",
"484 1463 OFFCURVE",
"430 1424 CURVE SMOOTH",
"322 1345 OFFCURVE",
"260 1202 OFFCURVE",
"260 1047 CURVE SMOOTH"
);
}
);
width = 676;
}
);
note = uni0510;
unicode = 0510;
},
{
glyphname = "Elhook-cy";
lastChange = "2018-03-22 17:48:27 +0000";
layers = (
{
layerId = "9047BFCD-DDCC-4357-AC30-29E5270711EF";
paths = (
{
closed = 1;
nodes = (
"641 0 LINE",
"608 -164 LINE SMOOTH",
"593 -240 OFFCURVE",
"561 -274 OFFCURVE",
"504 -274 CURVE SMOOTH",
"479 -274 OFFCURVE",
"451 -268 OFFCURVE",
"422 -256 CURVE",
"422 -336 LINE",
"449 -347 OFFCURVE",
"480 -352 OFFCURVE",
"514 -352 CURVE SMOOTH",
"613 -352 OFFCURVE",
"681 -287 OFFCURVE",
"707 -158 CURVE SMOOTH",
"758 94 LINE",
"655 94 LINE",
"946 1462 LINE",
"518 1462 LINE",
"422 1130 LINE SMOOTH",
"331 816 OFFCURVE",
"251 546 OFFCURVE",
"180 319 CURVE SMOOTH",
"131 164 OFFCURVE",
"73 84 OFFCURVE",
"2 84 CURVE SMOOTH",
"-21 84 OFFCURVE",
"-43 88 OFFCURVE",
"-63 96 CURVE",
"-63 2 LINE",
"-33 -6 OFFCURVE",
"-6 -10 OFFCURVE",
"18 -10 CURVE SMOOTH",
"106 -10 OFFCURVE",
"164 43 OFFCURVE",
"219 167 CURVE SMOOTH",
"246 228 OFFCURVE",
"293 366 OFFCURVE",
"357 579 CURVE SMOOTH",
"421 792 OFFCURVE",
"497 1055 OFFCURVE",
"586 1368 CURVE",
"827 1368 LINE",
"537 0 LINE"
);
}
);
width = 846;
}
);
note = uni0512;
unicode = 0512;
},
{
glyphname = "Koppa-cy";
lastChange = "2018-03-22 17:48:29 +0000";
layers = (
{
layerId = "9047BFCD-DDCC-4357-AC30-29E5270711EF";
paths = (
{
closed = 1;
nodes = (
"449 -20 OFFCURVE",
"464 -18 OFFCURVE",
"479 -14 CURVE",
"377 -492 LINE",
"477 -492 LINE",
"604 104 LINE",
"563 83 OFFCURVE",
"513 72 OFFCURVE",
"455 72 CURVE SMOOTH",
"304 72 OFFCURVE",
"240 190 OFFCURVE",
"240 467 CURVE SMOOTH",
"240 614 OFFCURVE",
"264 764 OFFCURVE",
"316 915 CURVE SMOOTH",
"420 1216 OFFCURVE",
"577 1389 OFFCURVE",
"745 1389 CURVE SMOOTH",
"802 1389 OFFCURVE",
"851 1372 OFFCURVE",
"891 1337 CURVE",
"952 1423 LINE",
"903 1464 OFFCURVE",
"837 1485 OFFCURVE",
"756 1485 CURVE SMOOTH",
"647 1485 OFFCURVE",
"546 1438 OFFCURVE",
"453 1344 CURVE SMOOTH",
"265 1155 OFFCURVE",
"141 790 OFFCURVE",
"141 449 CURVE SMOOTH",
"141 129 OFFCURVE",
"248 -20 OFFCURVE",
"432 -20 CURVE SMOOTH"
);
}
);
width = 760;
}
);
note = uni0480;
unicode = 0480;
},
{
glyphname = "Semisoftsign-cy";
lastChange = "2018-03-21 19:05:46 +0000";
layers = (
{
layerId = "9047BFCD-DDCC-4357-AC30-29E5270711EF";
paths = (
{
closed = 1;
nodes = (
"307 1155 LINE",
"66 0 LINE",
"297 0 LINE SMOOTH",
"574 0 OFFCURVE",
"743 191 OFFCURVE",
"743 500 CURVE SMOOTH",
"743 703 OFFCURVE",
"629 813 OFFCURVE",
"416 813 CURVE SMOOTH",
"336 813 LINE",
"408 1155 LINE",
"616 1155 LINE",
"635 1237 LINE",
"424 1237 LINE",
"471 1462 LINE",
"373 1462 LINE",
"326 1237 LINE",
"184 1237 LINE",
"166 1155 LINE"
);
},
{
closed = 1;
nodes = (
"391 723 LINE SMOOTH",
"560 723 OFFCURVE",
"641 651 OFFCURVE",
"641 498 CURVE SMOOTH",
"641 243 OFFCURVE",
"522 90 OFFCURVE",
"317 90 CURVE SMOOTH",
"182 90 LINE",
"317 723 LINE"
);
}
);
width = 786;
}
);
note = uni048C;
unicode = 048C;
},
{
glyphname = "Ertick-cy";
lastChange = "2018-03-21 19:05:46 +0000";
layers = (
{
layerId = "9047BFCD-DDCC-4357-AC30-29E5270711EF";
paths = (
{
closed = 1;
nodes = (
"858 1342 OFFCURVE",
"738 1462 OFFCURVE",
"545 1462 CURVE SMOOTH",
"375 1462 LINE",
"66 0 LINE",
"164 0 LINE",
"291 604 LINE",
"387 604 LINE SMOOTH",
"449 604 OFFCURVE",
"504 613 OFFCURVE",
"551 631 CURVE",
"629 449 LINE",
"713 485 LINE",
"633 672 LINE",
"773 763 OFFCURVE",
"858 944 OFFCURVE",
"858 1155 CURVE SMOOTH"
);
},
{
closed = 1;
nodes = (
"530 1366 LINE SMOOTH",
"673 1366 OFFCURVE",
"754 1282 OFFCURVE",
"754 1139 CURVE SMOOTH",
"754 960 OFFCURVE",
"699 829 OFFCURVE",
"596 760 CURVE",
"530 915 LINE",
"446 877 LINE",
"514 719 LINE",
"473 705 OFFCURVE",
"428 698 OFFCURVE",
"381 698 CURVE SMOOTH",
"311 698 LINE",
"453 1366 LINE"
);
}
);
width = 756;
}
);
note = uni048E;
unicode = 048E;
},
{
glyphname = "be-cy";
lastChange = "2018-03-22 17:48:44 +0000";
layers = (
{
layerId = "9047BFCD-DDCC-4357-AC30-29E5270711EF";
paths = (
{
closed = 1;
nodes = (
"456 -20 OFFCURVE",
"558 62 OFFCURVE",
"628 194 CURVE SMOOTH",
"701 332 OFFCURVE",
"752 550 OFFCURVE",
"752 714 CURVE SMOOTH",
"752 908 OFFCURVE",
"680 1006 OFFCURVE",
"546 1006 CURVE SMOOTH",
"451 1006 OFFCURVE",
"370 957 OFFCURVE",
"305 858 CURVE",
"297 858 LINE",
"341 1029 OFFCURVE",
"384 1149 OFFCURVE",
"432 1232 CURVE SMOOTH",
"524 1392 OFFCURVE",
"658 1451 OFFCURVE",
"928 1477 CURVE",
"928 1563 LINE",
"602 1532 OFFCURVE",
"446 1449 OFFCURVE",
"343 1251 CURVE SMOOTH",
"231 1036 OFFCURVE",
"119 550 OFFCURVE",
"119 298 CURVE SMOOTH",
"119 78 OFFCURVE",
"205 -20 OFFCURVE",
"336 -20 CURVE SMOOTH"
);
},
{
closed = 1;
nodes = (
"255 66 OFFCURVE",
"213 138 OFFCURVE",
"213 291 CURVE SMOOTH",
"213 390 OFFCURVE",
"231 529 OFFCURVE",
"266 707 CURVE",
"331 841 OFFCURVE",
"423 915 OFFCURVE",
"520 915 CURVE SMOOTH",
"606 915 OFFCURVE",
"653 856 OFFCURVE",
"653 711 CURVE SMOOTH",
"653 629 OFFCURVE",
"638 516 OFFCURVE",
"609 405 CURVE SMOOTH",
"549 177 OFFCURVE",
"453 66 OFFCURVE",
"343 66 CURVE SMOOTH"
);
}
);
width = 766;
}
);
note = afii10066;
unicode = 0431;
},
{
glyphname = "ve-cy";
lastChange = "2018-03-22 17:48:47 +0000";
layers = (
{
layerId = "9047BFCD-DDCC-4357-AC30-29E5270711EF";
paths = (
{
closed = 1;
nodes = (
"721 438 OFFCURVE",
"663 520 OFFCURVE",
"559 543 CURVE",
"559 547 LINE",
"722 579 OFFCURVE",
"823 710 OFFCURVE",
"823 891 CURVE SMOOTH",
"823 1019 OFFCURVE",
"733 1106 OFFCURVE",
"598 1106 CURVE SMOOTH",
"509 1106 OFFCURVE",
"427 1073 OFFCURVE",
"356 1005 CURVE SMOOTH",
"212 868 OFFCURVE",
"119 594 OFFCURVE",
"119 287 CURVE SMOOTH",
"119 82 OFFCURVE",
"207 -20 OFFCURVE",
"383 -20 CURVE SMOOTH",
"583 -20 OFFCURVE",
"721 122 OFFCURVE",
"721 319 CURVE SMOOTH"
);
},
{
closed = 1;
nodes = (
"553 506 OFFCURVE",
"627 440 OFFCURVE",
"627 317 CURVE SMOOTH",
"627 172 OFFCURVE",
"531 63 OFFCURVE",
"395 63 CURVE SMOOTH",
"278 63 OFFCURVE",
"217 134 OFFCURVE",
"217 293 CURVE SMOOTH",
"217 341 OFFCURVE",
"224 412 OFFCURVE",
"238 506 CURVE",
"418 506 LINE SMOOTH"
);
},
{
closed = 1;
nodes = (
"677 1018 OFFCURVE",
"729 966 OFFCURVE",
"729 874 CURVE SMOOTH",
"729 812 OFFCURVE",
"716 760 OFFCURVE",
"690 718 CURVE SMOOTH",
"637 634 OFFCURVE",
"542 588 OFFCURVE",
"434 588 CURVE SMOOTH",
"252 588 LINE",
"324 884 OFFCURVE",
"429 1018 OFFCURVE",
"584 1018 CURVE SMOOTH"
);
}
);
width = 803;
}
);
note = afii10067;
unicode = 0432;
},
{
glyphname = "ge-cy";
lastChange = "2018-03-22 17:48:55 +0000";
layers = (
{
anchors = (
{
name = bottomright;
position = "{449, 0}";
},
{
name = top;
position = "{437, 1085}";
}
);
layerId = "9047BFCD-DDCC-4357-AC30-29E5270711EF";
paths = (
{
closed = 1;
nodes = (
"55 67 OFFCURVE",
"147 -20 OFFCURVE",
"294 -20 CURVE SMOOTH",
"361 -20 OFFCURVE",
"427 -2 OFFCURVE",
"487 33 CURVE",
"487 135 LINE",
"440 102 OFFCURVE",
"385 68 OFFCURVE",
"304 68 CURVE SMOOTH",
"205 68 OFFCURVE",
"150 118 OFFCURVE",
"150 234 CURVE SMOOTH",
"150 321 OFFCURVE",
"181 385 OFFCURVE",
"224 433 CURVE SMOOTH",
"264 477 OFFCURVE",
"308 505 OFFCURVE",
"389 555 CURVE SMOOTH",
"466 603 OFFCURVE",
"508 631 OFFCURVE",
"545 668 CURVE SMOOTH",
"604 728 OFFCURVE",
"639 804 OFFCURVE",
"639 896 CURVE SMOOTH",
"639 1036 OFFCURVE",
"558 1106 OFFCURVE",
"429 1106 CURVE SMOOTH",
"358 1106 OFFCURVE",
"287 1085 OFFCURVE",
"217 1042 CURVE",
"244 961 LINE",
"300 992 OFFCURVE",
"355 1016 OFFCURVE",
"419 1016 CURVE SMOOTH",
"502 1016 OFFCURVE",
"545 976 OFFCURVE",
"545 893 CURVE SMOOTH",
"545 860 OFFCURVE",
"538 824 OFFCURVE",
"525 795 CURVE SMOOTH",
"493 721 OFFCURVE",
"426 679 OFFCURVE",
"332 621 CURVE SMOOTH",
"245 567 OFFCURVE",
"196 535 OFFCURVE",
"156 494 CURVE SMOOTH",
"96 432 OFFCURVE",
"55 344 OFFCURVE",
"55 233 CURVE SMOOTH"
);
}
);
width = 584;
}
);
note = afii10068;
unicode = 0433;
},
{
glyphname = "gheupturn-cy";
lastChange = "2018-03-21 19:05:46 +0000";
layers = (
{
layerId = "9047BFCD-DDCC-4357-AC30-29E5270711EF";
paths = (
{
closed = 1;
nodes = (
"55 0 LINE",
"150 0 LINE",
"360 995 LINE",
"623 995 LINE",
"711 1411 LINE",
"621 1411 LINE",
"553 1085 LINE",
"287 1085 LINE"
);
}
);
width = 532;
}
);
note = afii10098;
unicode = 0491;
},
{
glyphname = "de-cy";
lastChange = "2018-03-22 17:49:12 +0000";
layers = (
{
layerId = "9047BFCD-DDCC-4357-AC30-29E5270711EF";
paths = (
{
closed = 1;
nodes = (
"817 1429 OFFCURVE",
"725 1573 OFFCURVE",
"512 1573 CURVE SMOOTH",
"443 1573 OFFCURVE",
"384 1558 OFFCURVE",
"324 1528 CURVE",
"354 1444 LINE",
"406 1470 OFFCURVE",
"453 1483 OFFCURVE",
"501 1483 CURVE SMOOTH",
"651 1483 OFFCURVE",
"734 1356 OFFCURVE",
"730 1116 CURVE SMOOTH",
"727 932 LINE",
"694 1004 OFFCURVE",
"613 1051 OFFCURVE",
"525 1051 CURVE SMOOTH",
"451 1051 OFFCURVE",
"376 1017 OFFCURVE",
"320 956 CURVE SMOOTH",
"203 830 OFFCURVE",
"119 536 OFFCURVE",
"119 315 CURVE SMOOTH",
"119 87 OFFCURVE",
"209 -20 OFFCURVE",
"352 -20 CURVE SMOOTH",
"449 -20 OFFCURVE",
"529 29 OFFCURVE",
"592 111 CURVE SMOOTH",
"727 287 OFFCURVE",
"817 658 OFFCURVE",
"817 1041 CURVE SMOOTH"
);
},
{
closed = 1;
nodes = (
"260 66 OFFCURVE",
"217 136 OFFCURVE",
"217 302 CURVE SMOOTH",
"217 397 OFFCURVE",
"231 515 OFFCURVE",
"259 626 CURVE SMOOTH",
"314 845 OFFCURVE",
"403 961 OFFCURVE",
"525 961 CURVE SMOOTH",
"606 961 OFFCURVE",
"680 909 OFFCURVE",
"711 823 CURVE",
"702 680 OFFCURVE",
"681 550 OFFCURVE",
"646 428 CURVE SMOOTH",
"577 188 OFFCURVE",
"479 66 OFFCURVE",
"354 66 CURVE SMOOTH"
);
}
);
width = 793;
}
);
note = afii10069;
unicode = 0434;
},
{
glyphname = "zhe-cy";
lastChange = "2018-03-22 17:50:02 +0000";
layers = (
{
anchors = (
{
name = bottomright;
position = "{957, 0}";
},
{
name = top;
position = "{731, 1085}";
}
);
layerId = "9047BFCD-DDCC-4357-AC30-29E5270711EF";
paths = (
{
closed = 1;
nodes = (
"676 1085 LINE",
"569 588 LINE",
"432 588 LINE",
"445 667 OFFCURVE",
"451 743 OFFCURVE",
"451 801 CURVE SMOOTH",
"451 1001 OFFCURVE",
"379 1098 OFFCURVE",
"226 1098 CURVE SMOOTH",
"210 1098 OFFCURVE",
"193 1097 OFFCURVE",
"178 1094 CURVE",
"178 1014 LINE",
"183 1015 OFFCURVE",
"201 1016 OFFCURVE",
"211 1016 CURVE SMOOTH",
"323 1016 OFFCURVE",
"362 943 OFFCURVE",
"362 788 CURVE SMOOTH",
"362 692 OFFCURVE",
"347 563 OFFCURVE",
"316 444 CURVE SMOOTH",
"255 207 OFFCURVE",
"152 74 OFFCURVE",
"27 74 CURVE SMOOTH",
"20 74 OFFCURVE",
"2 74 OFFCURVE",
"-6 76 CURVE",
"-25 -10 LINE",
"-18 -11 OFFCURVE",
"6 -12 OFFCURVE",
"18 -12 CURVE SMOOTH",
"205 -12 OFFCURVE",
"346 171 OFFCURVE",
"418 508 CURVE",
"553 508 LINE",
"444 0 LINE",
"535 0 LINE",
"641 508 LINE",
"780 508 LINE",
"768 430 OFFCURVE",
"762 350 OFFCURVE",
"762 290 CURVE SMOOTH",
"762 85 OFFCURVE",
"832 -12 OFFCURVE",
"986 -12 CURVE SMOOTH",
"1002 -12 OFFCURVE",
"1019 -11 OFFCURVE",
"1034 -8 CURVE",
"1034 72 LINE",
"1028 71 OFFCURVE",
"1011 70 OFFCURVE",
"1001 70 CURVE SMOOTH",
"891 70 OFFCURVE",
"850 139 OFFCURVE",
"850 297 CURVE SMOOTH",
"850 395 OFFCURVE",
"866 524 OFFCURVE",
"897 643 CURVE SMOOTH",
"959 882 OFFCURVE",
"1062 1012 OFFCURVE",
"1186 1012 CURVE SMOOTH",
"1193 1012 OFFCURVE",
"1211 1012 OFFCURVE",
"1219 1010 CURVE",
"1237 1096 LINE",
"1230 1097 OFFCURVE",
"1206 1098 OFFCURVE",
"1194 1098 CURVE SMOOTH",
"1009 1098 OFFCURVE",
"866 915 OFFCURVE",
"795 588 CURVE",
"659 588 LINE",
"766 1085 LINE"
);
}
);
width = 1092;
}
);
note = afii10072;
unicode = 0436;
},
{
glyphname = "ze-cy";
lastChange = "2018-03-21 19:44:00 +0000";
layers = (
{
anchors = (
{
name = bottom;
position = "{175, 0}";
},
{
name = top;
position = "{405, 1085}";
}
);
layerId = "9047BFCD-DDCC-4357-AC30-29E5270711EF";
paths = (
{
closed = 1;
nodes = (
"201 532 LINE",
"285 532 LINE SMOOTH",
"369 532 OFFCURVE",
"422 461 OFFCURVE",
"422 344 CURVE SMOOTH",
"422 169 OFFCURVE",
"346 70 OFFCURVE",
"197 70 CURVE SMOOTH",
"131 70 OFFCURVE",
"68 92 OFFCURVE",
"8 137 CURVE",
"8 31 LINE",
"53 -3 OFFCURVE",
"120 -20 OFFCURVE",
"211 -20 CURVE SMOOTH",
"273 -20 OFFCURVE",
"327 -4 OFFCURVE",
"373 28 CURVE SMOOTH",
"464 91 OFFCURVE",
"516 208 OFFCURVE",
"516 344 CURVE SMOOTH",
"516 467 OFFCURVE",
"482 540 OFFCURVE",
"397 575 CURVE",
"399 584 LINE",
"523 629 OFFCURVE",
"594 742 OFFCURVE",
"594 889 CURVE SMOOTH",
"594 1026 OFFCURVE",
"522 1106 OFFCURVE",
"389 1106 CURVE SMOOTH",
"325 1106 OFFCURVE",
"266 1091 OFFCURVE",
"211 1061 CURVE",
"244 979 LINE",
"282 1004 OFFCURVE",
"326 1016 OFFCURVE",
"375 1016 CURVE SMOOTH",
"458 1016 OFFCURVE",
"500 970 OFFCURVE",
"500 877 CURVE SMOOTH",
"500 734 OFFCURVE",
"407 618 OFFCURVE",
"291 618 CURVE SMOOTH",
"219 618 LINE"
);
}
);
width = 580;
}
);
note = afii10073;
unicode = 0437;
},
{
glyphname = "ii-cy";
lastChange = "2018-03-22 17:50:11 +0000";
layers = (
{
anchors = (
{
name = bottomright;
position = "{651, 0}";
},
{
name = top;
position = "{578, 1085}";
}
);
layerId = "9047BFCD-DDCC-4357-AC30-29E5270711EF";
paths = (
{
closed = 1;
nodes = (
"143 344 LINE SMOOTH",
"130 286 OFFCURVE",
"123 231 OFFCURVE",
"123 178 CURVE SMOOTH",
"123 46 OFFCURVE",
"178 -20 OFFCURVE",
"287 -20 CURVE SMOOTH",
"379 -20 OFFCURVE",
"459 32 OFFCURVE",
"526 135 CURVE",
"530 135 LINE",
"522 0 LINE",
"596 0 LINE",
"827 1085 LINE",
"733 1085 LINE",
"606 489 LINE SMOOTH",
"547 211 OFFCURVE",
"448 72 OFFCURVE",
"309 72 CURVE SMOOTH",
"246 72 OFFCURVE",
"215 113 OFFCURVE",
"215 195 CURVE SMOOTH",
"215 233 OFFCURVE",
"222 278 OFFCURVE",
"233 330 CURVE SMOOTH",
"395 1085 LINE",
"301 1085 LINE"
);
}
);
width = 786;
}
);
note = afii10074;
unicode = 0438;
},
{
glyphname = "iishorttail-cy";
lastChange = "2018-03-22 17:50:17 +0000";
layers = (
{
layerId = "9047BFCD-DDCC-4357-AC30-29E5270711EF";
paths = (
{
closed = 1;
nodes = (
"827 1085 LINE",
"733 1085 LINE",
"606 489 LINE SMOOTH",
"548 216 OFFCURVE",
"448 72 OFFCURVE",
"314 72 CURVE SMOOTH",
"246 72 OFFCURVE",
"215 109 OFFCURVE",
"215 197 CURVE SMOOTH",
"215 235 OFFCURVE",
"221 276 OFFCURVE",
"233 330 CURVE SMOOTH",
"395 1085 LINE",
"301 1085 LINE",
"143 344 LINE SMOOTH",
"130 284 OFFCURVE",
"123 232 OFFCURVE",
"123 183 CURVE SMOOTH",
"123 46 OFFCURVE",
"177 -20 OFFCURVE",
"285 -20 CURVE SMOOTH",
"380 -20 OFFCURVE",
"459 32 OFFCURVE",
"526 135 CURVE",
"530 135 LINE",
"522 0 LINE",
"580 0 LINE",
"410 -369 LINE",
"512 -369 LINE",
"715 94 LINE",
"616 94 LINE"
);
},
{
closed = 1;
nodes = (
"727 1241 OFFCURVE",
"809 1327 OFFCURVE",
"856 1522 CURVE",
"770 1522 LINE",
"735 1376 OFFCURVE",
"683 1317 OFFCURVE",
"587 1317 CURVE SMOOTH",
"493 1317 OFFCURVE",
"465 1373 OFFCURVE",
"465 1463 CURVE SMOOTH",
"465 1480 OFFCURVE",
"466 1505 OFFCURVE",
"469 1522 CURVE",
"387 1522 LINE",
"383 1497 OFFCURVE",
"381 1473 OFFCURVE",
"381 1451 CURVE SMOOTH",
"381 1323 OFFCURVE",
"450 1241 OFFCURVE",
"587 1241 CURVE SMOOTH"
);
}
);
width = 782;
}
);
note = uni048B;
unicode = 048B;
},
{
glyphname = "ka-cy";
lastChange = "2018-03-22 17:50:25 +0000";
layers = (
{
anchors = (
{
name = bottomright;
position = "{488, 0}";
},
{
name = top;
position = "{527, 1085}";
}
);
layerId = "9047BFCD-DDCC-4357-AC30-29E5270711EF";
paths = (
{
closed = 1;
nodes = (
"397 1085 LINE",
"303 1085 LINE",
"72 0 LINE",
"166 0 LINE",
"287 567 LINE",
"459 0 LINE",
"563 0 LINE",
"385 567 LINE",
"770 1085 LINE",
"664 1085 LINE",
"289 575 LINE"
);
}
);
width = 623;
}
);
note = afii10076;
unicode = 043A;
},
{
glyphname = "el-cy";
lastChange = "2018-03-22 17:50:32 +0000";
layers = (
{
layerId = "9047BFCD-DDCC-4357-AC30-29E5270711EF";
paths = (
{
closed = 1;
nodes = (
"539 0 LINE",
"766 1075 LINE",
"706 1085 OFFCURVE",
"655 1090 OFFCURVE",
"619 1090 CURVE SMOOTH",
"567 1090 OFFCURVE",
"525 1080 OFFCURVE",
"488 1061 CURVE SMOOTH",
"415 1024 OFFCURVE",
"355 946 OFFCURVE",
"311 831 CURVE SMOOTH",
"288 771 OFFCURVE",
"275 728 OFFCURVE",
"225 516 CURVE SMOOTH",
"199 406 OFFCURVE",
"179 329 OFFCURVE",
"155 259 CURVE SMOOTH",
"113 138 OFFCURVE",
"75 80 OFFCURVE",
"2 80 CURVE SMOOTH",
"-11 80 OFFCURVE",
"-27 82 OFFCURVE",
"-39 86 CURVE",
"-39 -2 LINE",
"-25 -7 OFFCURVE",
"-7 -10 OFFCURVE",
"14 -10 CURVE SMOOTH",
"69 -10 OFFCURVE",
"108 9 OFFCURVE",
"141 42 CURVE SMOOTH",
"215 115 OFFCURVE",
"268 266 OFFCURVE",
"317 504 CURVE SMOOTH",
"344 635 OFFCURVE",
"364 726 OFFCURVE",
"400 816 CURVE SMOOTH",
"450 941 OFFCURVE",
"509 999 OFFCURVE",
"603 999 CURVE SMOOTH",
"620 999 OFFCURVE",
"639 997 OFFCURVE",
"655 993 CURVE",
"444 0 LINE"
);
}
);
width = 698;
}
);
note = afii10077;
unicode = 043B;
},
{
glyphname = "em-cy";
lastChange = "2018-03-22 17:50:51 +0000";
layers = (
{
layerId = "9047BFCD-DDCC-4357-AC30-29E5270711EF";
paths = (
{
closed = 1;
nodes = (
"866 924 LINE",
"874 924 LINE",
"839 791 OFFCURVE",
"817 700 OFFCURVE",
"807 651 CURVE SMOOTH",
"668 0 LINE",
"760 0 LINE",
"991 1085 LINE",
"854 1085 LINE",
"630 570 OFFCURVE",
"507 284 OFFCURVE",
"484 227 CURVE SMOOTH",
"461 170 OFFCURVE",
"446 132 OFFCURVE",
"440 115 CURVE",
"434 115 LINE",
"439 174 OFFCURVE",
"441 232 OFFCURVE",
"441 291 CURVE SMOOTH",
"438 1085 LINE",
"303 1085 LINE",
"72 0 LINE",
"164 0 LINE",
"305 657 LINE SMOOTH",
"324 746 OFFCURVE",
"338 835 OFFCURVE",
"352 924 CURVE",
"360 924 LINE",
"365 0 LINE",
"465 0 LINE"
);
}
);
width = 948;
}
);
note = afii10078;
unicode = 043C;
},
{
glyphname = "en-cy";
lastChange = "2018-03-21 19:44:00 +0000";
layers = (
{
anchors = (
{
name = bottomright;
position = "{660, 0}";
}
);
layerId = "9047BFCD-DDCC-4357-AC30-29E5270711EF";
paths = (
{
closed = 1;
nodes = (
"72 0 LINE",
"166 0 LINE",
"279 524 LINE",
"623 524 LINE",
"510 0 LINE",
"604 0 LINE",
"836 1085 LINE",
"741 1085 LINE",
"641 610 LINE",
"297 610 LINE",
"397 1085 LINE",
"303 1085 LINE"
);
}
);
width = 795;
}
);
note = afii10079;
unicode = 043D;
},
{
glyphname = "pe-cy";
lastChange = "2018-03-21 19:44:00 +0000";
layers = (
{
anchors = (
{
name = bottomright;
position = "{660, 0}";
}
);
layerId = "9047BFCD-DDCC-4357-AC30-29E5270711EF";
paths = (
{
closed = 1;
nodes = (
"72 0 LINE",
"166 0 LINE",
"379 999 LINE",
"723 999 LINE",
"510 0 LINE",
"604 0 LINE",
"836 1085 LINE",
"303 1085 LINE"
);
}
);
width = 795;
}
);
note = afii10081;
unicode = 043F;
},
{
glyphname = "te-cy";
lastChange = "2018-03-22 17:51:07 +0000";
layers = (
{
anchors = (
{
name = bottomright;
position = "{1036, 0}";
}
);
layerId = "9047BFCD-DDCC-4357-AC30-29E5270711EF";
paths = (
{
closed = 1;
nodes = (
"1151 786 LINE SMOOTH",
"1160 829 OFFCURVE",
"1165 869 OFFCURVE",
"1165 908 CURVE SMOOTH",
"1165 1040 OFFCURVE",
"1108 1106 OFFCURVE",
"1000 1106 CURVE SMOOTH",
"905 1106 OFFCURVE",
"832 1054 OFFCURVE",
"766 956 CURVE",
"754 1056 OFFCURVE",
"699 1106 OFFCURVE",
"602 1106 CURVE SMOOTH",
"500 1106 OFFCURVE",
"422 1050 OFFCURVE",
"360 934 CURVE",
"356 934 LINE",
"381 1085 LINE",
"301 1085 LINE",
"72 0 LINE",
"166 0 LINE",
"293 596 LINE SMOOTH",
"325 745 OFFCURVE",
"362 852 OFFCURVE",
"407 916 CURVE SMOOTH",
"452 980 OFFCURVE",
"509 1012 OFFCURVE",
"573 1012 CURVE SMOOTH",
"641 1012 OFFCURVE",
"674 975 OFFCURVE",
"674 897 CURVE SMOOTH",
"674 870 OFFCURVE",
"670 838 OFFCURVE",
"662 799 CURVE SMOOTH",
"494 0 LINE",
"588 0 LINE",
"745 752 LINE SMOOTH",
"777 903 OFFCURVE",
"867 1012 OFFCURVE",
"978 1012 CURVE SMOOTH",
"1043 1012 OFFCURVE",
"1073 974 OFFCURVE",
"1073 897 CURVE SMOOTH",
"1073 873 OFFCURVE",
"1070 844 OFFCURVE",
"1063 813 CURVE SMOOTH",
"891 0 LINE",
"985 0 LINE"
);
}
);
width = 1171;
}
);
note = afii10084;
unicode = 0442;
},
{
glyphname = "ef-cy";
lastChange = "2018-03-22 17:51:14 +0000";
layers = (
{
layerId = "9047BFCD-DDCC-4357-AC30-29E5270711EF";
paths = (
{
closed = 1;
nodes = (
"899 969 OFFCURVE",
"825 1085 OFFCURVE",
"676 1104 CURVE",
"770 1556 LINE",
"678 1556 LINE",
"588 1106 LINE",
"499 1097 OFFCURVE",
"420 1060 OFFCURVE",
"351 995 CURVE SMOOTH",
"212 863 OFFCURVE",
"119 595 OFFCURVE",
"119 338 CURVE SMOOTH",
"119 127 OFFCURVE",
"203 -4 OFFCURVE",
"350 -20 CURVE",
"250 -492 LINE",
"336 -492 LINE",
"434 -25 LINE",
"517 -21 OFFCURVE",
"593 15 OFFCURVE",
"662 83 CURVE SMOOTH",
"800 218 OFFCURVE",
"899 502 OFFCURVE",
"899 754 CURVE SMOOTH"
);
},
{
closed = 1;
nodes = (
"267 81 OFFCURVE",
"215 178 OFFCURVE",
"215 338 CURVE SMOOTH",
"215 447 OFFCURVE",
"231 556 OFFCURVE",
"264 663 CURVE SMOOTH",
"329 877 OFFCURVE",
"434 997 OFFCURVE",
"565 1020 CURVE",
"362 66 LINE"
);
},
{
closed = 1;
nodes = (
"758 1004 OFFCURVE",
"803 919 OFFCURVE",
"803 754 CURVE SMOOTH",
"803 649 OFFCURVE",
"786 540 OFFCURVE",
"752 427 CURVE SMOOTH",
"684 202 OFFCURVE",
"576 74 OFFCURVE",
"455 66 CURVE",
"657 1020 LINE"
);
}
);
width = 899;
}
);
note = afii10086;
unicode = 0444;
},
{
glyphname = "che-cy";
lastChange = "2018-03-22 17:51:20 +0000";
layers = (
{
anchors = (
{
name = bottomright;
position = "{641, 0}";
},
{
name = top;
position = "{543, 1085}";
}
);
layerId = "9047BFCD-DDCC-4357-AC30-29E5270711EF";
paths = (
{
closed = 1;
nodes = (
"193 659 LINE",
"184 624 OFFCURVE",
"180 592 OFFCURVE",
"180 561 CURVE SMOOTH",
"180 436 OFFCURVE",
"248 373 OFFCURVE",
"348 373 CURVE SMOOTH",
"448 373 OFFCURVE",
"545 429 OFFCURVE",
"602 510 CURVE",
"492 0 LINE",
"586 0 LINE",
"817 1085 LINE",
"723 1085 LINE",
"668 823 LINE SMOOTH",
"617 582 OFFCURVE",
"521 461 OFFCURVE",
"379 461 CURVE SMOOTH",
"309 461 OFFCURVE",
"274 500 OFFCURVE",
"274 578 CURVE SMOOTH",
"274 596 OFFCURVE",
"276 616 OFFCURVE",
"281 637 CURVE SMOOTH",
"377 1085 LINE",
"283 1085 LINE"
);
}
);
width = 776;
}
);
note = afii10089;
unicode = 0447;
},
{
glyphname = "tse-cy";
lastChange = "2018-03-22 17:51:28 +0000";
layers = (
{
layerId = "9047BFCD-DDCC-4357-AC30-29E5270711EF";
paths = (
{
closed = 1;
nodes = (
"143 344 LINE SMOOTH",
"130 284 OFFCURVE",
"123 232 OFFCURVE",
"123 183 CURVE SMOOTH",
"123 46 OFFCURVE",
"177 -20 OFFCURVE",
"285 -20 CURVE SMOOTH",
"380 -20 OFFCURVE",
"459 32 OFFCURVE",
"526 135 CURVE",
"530 135 LINE",
"530 46 OFFCURVE",
"557 9 OFFCURVE",
"614 -4 CURVE",
"539 -369 LINE",
"635 -369 LINE",
"733 94 LINE",
"692 90 LINE",
"650 90 OFFCURVE",
"629 108 OFFCURVE",
"629 145 CURVE SMOOTH",
"629 155 OFFCURVE",
"631 166 OFFCURVE",
"633 176 CURVE SMOOTH",
"827 1085 LINE",
"733 1085 LINE",
"606 489 LINE SMOOTH",
"548 216 OFFCURVE",
"448 72 OFFCURVE",
"314 72 CURVE SMOOTH",
"246 72 OFFCURVE",
"215 109 OFFCURVE",
"215 197 CURVE SMOOTH",
"215 235 OFFCURVE",
"221 276 OFFCURVE",
"233 330 CURVE SMOOTH",
"395 1085 LINE",
"301 1085 LINE"
);
}
);
width = 807;
}
);
note = afii10088;
unicode = 0446;
},
{
glyphname = "sha-cy";
lastChange = "2018-03-22 17:51:34 +0000";
layers = (
{
layerId = "9047BFCD-DDCC-4357-AC30-29E5270711EF";
paths = (
{
closed = 1;
nodes = (
"566 446 LINE SMOOTH",
"534 301 OFFCURVE",
"499 211 OFFCURVE",
"459 156 CURVE SMOOTH",
"418 100 OFFCURVE",
"367 72 OFFCURVE",
"312 72 CURVE SMOOTH",
"246 72 OFFCURVE",
"215 111 OFFCURVE",
"215 197 CURVE SMOOTH",
"215 238 OFFCURVE",
"222 280 OFFCURVE",
"233 330 CURVE SMOOTH",
"395 1085 LINE",
"301 1085 LINE",
"143 344 LINE SMOOTH",
"130 284 OFFCURVE",
"123 232 OFFCURVE",
"123 182 CURVE SMOOTH",
"123 46 OFFCURVE",
"175 -20 OFFCURVE",
"290 -20 CURVE SMOOTH",
"387 -20 OFFCURVE",
"457 27 OFFCURVE",
"528 125 CURVE",
"544 28 OFFCURVE",
"597 -20 OFFCURVE",
"692 -20 CURVE SMOOTH",
"777 -20 OFFCURVE",
"834 18 OFFCURVE",
"899 117 CURVE",
"903 117 LINE",
"895 0 LINE",
"969 0 LINE",
"1202 1085 LINE",
"1108 1085 LINE",
"981 489 LINE SMOOTH",
"951 347 OFFCURVE",
"915 236 OFFCURVE",
"873 170 CURVE SMOOTH",
"831 104 OFFCURVE",
"776 72 OFFCURVE",
"716 72 CURVE SMOOTH",
"650 72 OFFCURVE",
"618 110 OFFCURVE",
"618 197 CURVE SMOOTH",
"618 237 OFFCURVE",
"625 276 OFFCURVE",
"637 330 CURVE SMOOTH",
"799 1085 LINE",
"705 1085 LINE"
);
}
);
width = 1182;
}
);
note = afii10090;
unicode = 0448;
},
{
glyphname = "shcha-cy";
lastChange = "2018-03-22 17:51:43 +0000";
layers = (
{
layerId = "9047BFCD-DDCC-4357-AC30-29E5270711EF";
paths = (
{
closed = 1;
nodes = (
"566 446 LINE SMOOTH",
"534 301 OFFCURVE",
"499 211 OFFCURVE",
"459 156 CURVE SMOOTH",
"418 100 OFFCURVE",
"367 72 OFFCURVE",
"312 72 CURVE SMOOTH",
"246 72 OFFCURVE",
"215 111 OFFCURVE",
"215 197 CURVE SMOOTH",
"215 238 OFFCURVE",
"222 280 OFFCURVE",
"233 330 CURVE SMOOTH",
"395 1085 LINE",
"301 1085 LINE",
"143 344 LINE SMOOTH",
"130 284 OFFCURVE",
"123 232 OFFCURVE",
"123 182 CURVE SMOOTH",
"123 46 OFFCURVE",
"175 -20 OFFCURVE",
"290 -20 CURVE SMOOTH",
"387 -20 OFFCURVE",
"457 27 OFFCURVE",
"528 125 CURVE",
"545 23 OFFCURVE",
"602 -20 OFFCURVE",
"692 -20 CURVE SMOOTH",
"780 -20 OFFCURVE",
"841 22 OFFCURVE",
"901 117 CURVE",
"905 117 LINE",
"906 85 OFFCURVE",
"910 62 OFFCURVE",
"915 49 CURVE SMOOTH",
"925 22 OFFCURVE",
"951 4 OFFCURVE",
"989 -4 CURVE",
"913 -369 LINE",
"1010 -369 LINE",
"1108 94 LINE",
"1067 90 LINE",
"1025 90 OFFCURVE",
"1004 108 OFFCURVE",
"1004 145 CURVE SMOOTH",
"1004 155 OFFCURVE",
"1006 166 OFFCURVE",
"1008 176 CURVE SMOOTH",
"1202 1085 LINE",
"1108 1085 LINE",
"981 489 LINE SMOOTH",
"951 347 OFFCURVE",
"915 236 OFFCURVE",
"873 170 CURVE SMOOTH",
"831 104 OFFCURVE",
"776 72 OFFCURVE",
"716 72 CURVE SMOOTH",
"650 72 OFFCURVE",
"618 110 OFFCURVE",
"618 197 CURVE SMOOTH",
"618 237 OFFCURVE",
"625 276 OFFCURVE",
"637 330 CURVE SMOOTH",
"799 1085 LINE",
"705 1085 LINE"
);
}
);
width = 1182;
}
);
note = afii10091;
unicode = 0449;
},
{
glyphname = "dzhe-cy";
lastChange = "2018-03-22 17:51:49 +0000";
layers = (
{
layerId = "9047BFCD-DDCC-4357-AC30-29E5270711EF";
paths = (
{
closed = 1;
nodes = (
"143 344 LINE SMOOTH",
"130 286 OFFCURVE",
"123 231 OFFCURVE",
"123 178 CURVE SMOOTH",
"123 46 OFFCURVE",
"178 -20 OFFCURVE",
"287 -20 CURVE SMOOTH",
"379 -20 OFFCURVE",
"459 32 OFFCURVE",
"526 135 CURVE",
"530 135 LINE",
"522 0 LINE",
"596 0 LINE",
"827 1085 LINE",
"733 1085 LINE",
"606 489 LINE SMOOTH",
"547 211 OFFCURVE",
"448 72 OFFCURVE",
"309 72 CURVE SMOOTH",
"246 72 OFFCURVE",
"215 113 OFFCURVE",
"215 195 CURVE SMOOTH",
"215 233 OFFCURVE",
"222 278 OFFCURVE",
"233 330 CURVE SMOOTH",
"395 1085 LINE",
"301 1085 LINE"
);
},
{
closed = 1;
nodes = (
"184 -473 LINE",
"279 -473 LINE",
"385 -72 LINE",
"371 -72 LINE",
"293 -109 LINE"
);
}
);
width = 782;
}
);
note = afii10193;
unicode = 045F;
},
{
glyphname = "softsign-cy";
lastChange = "2018-03-22 17:51:52 +0000";
layers = (
{
layerId = "9047BFCD-DDCC-4357-AC30-29E5270711EF";
paths = (
{
closed = 1;
nodes = (
"145 348 LINE SMOOTH",
"135 303 OFFCURVE",
"129 258 OFFCURVE",
"129 213 CURVE SMOOTH",
"129 56 OFFCURVE",
"204 -20 OFFCURVE",
"342 -20 CURVE SMOOTH",
"532 -20 OFFCURVE",
"657 124 OFFCURVE",
"657 335 CURVE SMOOTH",
"657 503 OFFCURVE",
"577 598 OFFCURVE",
"399 598 CURVE SMOOTH",
"373 598 OFFCURVE",
"326 596 OFFCURVE",
"293 592 CURVE",
"397 1085 LINE",
"303 1085 LINE"
);
},
{
closed = 1;
nodes = (
"563 161 OFFCURVE",
"477 61 OFFCURVE",
"354 61 CURVE SMOOTH",
"266 61 OFFCURVE",
"223 112 OFFCURVE",
"223 215 CURVE SMOOTH",
"223 254 OFFCURVE",
"229 292 OFFCURVE",
"240 338 CURVE SMOOTH",
"279 504 LINE",
"330 509 OFFCURVE",
"374 512 OFFCURVE",
"398 512 CURVE SMOOTH",
"510 512 OFFCURVE",
"563 449 OFFCURVE",
"563 322 CURVE SMOOTH"
);
}
);
width = 707;
}
);
note = afii10094;
unicode = 044C;
},
{
glyphname = "hardsign-cy";
lastChange = "2018-03-22 17:51:56 +0000";
layers = (
{
layerId = "9047BFCD-DDCC-4357-AC30-29E5270711EF";
paths = (
{
closed = 1;
nodes = (
"178 1085 LINE",
"160 999 LINE",
"371 999 LINE",
"231 348 LINE SMOOTH",
"221 303 OFFCURVE",
"215 258 OFFCURVE",
"215 213 CURVE SMOOTH",
"215 56 OFFCURVE",
"290 -20 OFFCURVE",
"428 -20 CURVE SMOOTH",
"619 -20 OFFCURVE",
"737 125 OFFCURVE",
"737 332 CURVE SMOOTH",
"737 502 OFFCURVE",
"657 598 OFFCURVE",
"483 598 CURVE SMOOTH",
"458 598 OFFCURVE",
"414 596 OFFCURVE",
"381 592 CURVE",
"481 1085 LINE"
);
},
{
closed = 1;
nodes = (
"643 162 OFFCURVE",
"561 61 OFFCURVE",
"439 61 CURVE SMOOTH",
"352 61 OFFCURVE",
"309 113 OFFCURVE",
"309 216 CURVE SMOOTH",
"309 254 OFFCURVE",
"315 292 OFFCURVE",
"326 338 CURVE SMOOTH",
"365 504 LINE",
"416 509 OFFCURVE",
"457 512 OFFCURVE",
"481 512 CURVE SMOOTH",
"590 512 OFFCURVE",
"643 448 OFFCURVE",
"643 321 CURVE SMOOTH"
);
}
);
width = 801;
}
);
note = afii10092;
unicode = 044A;
},
{
glyphname = "lje-cy";
lastChange = "2018-03-22 17:52:04 +0000";
layers = (
{
layerId = "9047BFCD-DDCC-4357-AC30-29E5270711EF";
paths = (
{
closed = 1;
nodes = (
"485 299 OFFCURVE",
"479 252 OFFCURVE",
"479 205 CURVE SMOOTH",
"479 48 OFFCURVE",
"547 -20 OFFCURVE",
"678 -20 CURVE SMOOTH",
"870 -20 OFFCURVE",
"993 126 OFFCURVE",
"993 333 CURVE SMOOTH",
"993 500 OFFCURVE",
"913 598 OFFCURVE",
"742 598 CURVE SMOOTH",
"717 598 OFFCURVE",
"676 596 OFFCURVE",
"643 592 CURVE",
"745 1075 LINE",
"720 1082 OFFCURVE",
"652 1090 OFFCURVE",
"613 1090 CURVE SMOOTH",
"569 1090 OFFCURVE",
"525 1080 OFFCURVE",
"488 1061 CURVE SMOOTH",
"411 1022 OFFCURVE",
"353 940 OFFCURVE",
"311 831 CURVE SMOOTH",
"288 771 OFFCURVE",
"275 728 OFFCURVE",
"225 516 CURVE SMOOTH",
"199 406 OFFCURVE",
"179 329 OFFCURVE",
"155 259 CURVE SMOOTH",
"113 138 OFFCURVE",
"75 80 OFFCURVE",
"2 80 CURVE SMOOTH",
"-11 80 OFFCURVE",
"-27 82 OFFCURVE",
"-39 86 CURVE",
"-39 -2 LINE",
"-25 -7 OFFCURVE",
"-7 -10 OFFCURVE",
"14 -10 CURVE SMOOTH",
"69 -10 OFFCURVE",
"108 9 OFFCURVE",
"141 42 CURVE SMOOTH",
"211 111 OFFCURVE",
"264 247 OFFCURVE",
"317 504 CURVE SMOOTH",
"344 635 OFFCURVE",
"364 726 OFFCURVE",
"400 816 CURVE SMOOTH",
"447 933 OFFCURVE",
"503 999 OFFCURVE",
"604 999 CURVE SMOOTH",
"616 999 OFFCURVE",
"628 998 OFFCURVE",
"635 995 CURVE",
"496 348 LINE SMOOTH"
);
},
{
closed = 1;
nodes = (
"899 162 OFFCURVE",
"813 61 OFFCURVE",
"690 61 CURVE SMOOTH",
"610 61 OFFCURVE",
"573 104 OFFCURVE",
"573 210 CURVE SMOOTH",
"573 252 OFFCURVE",
"579 293 OFFCURVE",
"590 338 CURVE SMOOTH",
"629 504 LINE",
"680 509 OFFCURVE",
"717 512 OFFCURVE",
"740 512 CURVE SMOOTH",
"846 512 OFFCURVE",
"899 447 OFFCURVE",
"899 322 CURVE SMOOTH"
);
}
);
width = 1028;
}
);
note = afii10106;
unicode = 0459;
},
{
glyphname = "nje-cy";
lastChange = "2018-03-22 17:52:06 +0000";
layers = (
{
layerId = "9047BFCD-DDCC-4357-AC30-29E5270711EF";
paths = (
{
closed = 1;
nodes = (
"72 0 LINE",
"166 0 LINE",
"279 524 LINE",
"608 524 LINE",
"571 348 LINE SMOOTH",
"561 302 OFFCURVE",
"555 260 OFFCURVE",
"555 214 CURVE SMOOTH",
"555 56 OFFCURVE",
"627 -20 OFFCURVE",
"763 -20 CURVE SMOOTH",
"952 -20 OFFCURVE",
"1069 128 OFFCURVE",
"1069 330 CURVE SMOOTH",
"1069 496 OFFCURVE",
"990 604 OFFCURVE",
"817 604 CURVE SMOOTH",
"794 604 OFFCURVE",
"754 602 OFFCURVE",
"721 598 CURVE",
"823 1085 LINE",
"729 1085 LINE",
"627 610 LINE",
"297 610 LINE",
"397 1085 LINE",
"303 1085 LINE"
);
},
{
closed = 1;
nodes = (
"975 162 OFFCURVE",
"897 61 OFFCURVE",
"776 61 CURVE SMOOTH",
"690 61 OFFCURVE",
"649 112 OFFCURVE",
"649 213 CURVE SMOOTH",
"649 251 OFFCURVE",
"655 294 OFFCURVE",
"666 338 CURVE SMOOTH",
"707 510 LINE",
"758 515 OFFCURVE",
"795 518 OFFCURVE",
"817 518 CURVE SMOOTH",
"924 518 OFFCURVE",
"975 446 OFFCURVE",
"975 319 CURVE SMOOTH"
);
}
);
width = 1133;
}
);
note = afii10107;
unicode = 045A;
},
{
glyphname = "e-cy";
lastChange = "2018-03-22 17:52:10 +0000";
layers = (
{
layerId = "9047BFCD-DDCC-4357-AC30-29E5270711EF";
paths = (
{
closed = 1;
nodes = (
"405 -20 OFFCURVE",
"479 -3 OFFCURVE",
"520 20 CURVE",
"520 106 LINE",
"467 79 OFFCURVE",
"414 66 OFFCURVE",
"366 66 CURVE SMOOTH",
"264 66 OFFCURVE",
"217 126 OFFCURVE",
"217 292 CURVE SMOOTH",
"217 361 OFFCURVE",
"225 447 OFFCURVE",
"240 524 CURVE",
"498 524 LINE",
"516 610 LINE",
"258 610 LINE",
"318 860 OFFCURVE",
"425 1016 OFFCURVE",
"565 1016 CURVE SMOOTH",
"600 1016 OFFCURVE",
"639 1006 OFFCURVE",
"674 987 CURVE",
"713 1073 LINE",
"673 1096 OFFCURVE",
"620 1106 OFFCURVE",
"573 1106 CURVE SMOOTH",
"489 1106 OFFCURVE",
"412 1073 OFFCURVE",
"345 1001 CURVE SMOOTH",
"212 857 OFFCURVE",
"119 558 OFFCURVE",
"119 306 CURVE SMOOTH",
"119 73 OFFCURVE",
"199 -20 OFFCURVE",
"343 -20 CURVE SMOOTH"
);
}
);
width = 618;
}
);
note = afii10101;
unicode = 0454;
},
{
glyphname = "ereversed-cy";
lastChange = "2018-03-21 19:44:00 +0000";
layers = (
{
anchors = (
{
name = top;
position = "{422, 1085}";
}
);
layerId = "9047BFCD-DDCC-4357-AC30-29E5270711EF";
paths = (
{
closed = 1;
nodes = (
"427 201 OFFCURVE",
"314 70 OFFCURVE",
"141 70 CURVE SMOOTH",
"93 70 OFFCURVE",
"47 80 OFFCURVE",
"2 100 CURVE",
"2 6 LINE",
"51 -11 OFFCURVE",
"102 -20 OFFCURVE",
"156 -20 CURVE SMOOTH",
"247 -20 OFFCURVE",
"326 15 OFFCURVE",
"395 84 CURVE SMOOTH",
"532 222 OFFCURVE",
"616 502 OFFCURVE",
"616 811 CURVE SMOOTH",
"616 1002 OFFCURVE",
"530 1106 OFFCURVE",
"381 1106 CURVE SMOOTH",
"319 1106 OFFCURVE",
"260 1092 OFFCURVE",
"203 1065 CURVE",
"223 981 LINE",
"264 1004 OFFCURVE",
"308 1016 OFFCURVE",
"354 1016 CURVE SMOOTH",
"466 1016 OFFCURVE",
"522 944 OFFCURVE",
"522 799 CURVE SMOOTH",
"522 745 OFFCURVE",
"516 682 OFFCURVE",
"504 610 CURVE",
"246 610 LINE",
"227 524 LINE",
"492 524 LINE"
);
}
);
width = 614;
}
);
note = afii10095;
unicode = 044D;
},
{
glyphname = "tshe-cy";
lastChange = "2018-03-22 17:52:34 +0000";
layers = (
{
layerId = "9047BFCD-DDCC-4357-AC30-29E5270711EF";
paths = (
{
closed = 1;
nodes = (
"766 797 LINE SMOOTH",
"775 840 OFFCURVE",
"780 882 OFFCURVE",
"780 916 CURVE SMOOTH",
"780 1039 OFFCURVE",
"716 1106 OFFCURVE",
"606 1106 CURVE SMOOTH",
"504 1106 OFFCURVE",
"424 1049 OFFCURVE",
"362 934 CURVE",
"358 934 LINE",
"373 990 OFFCURVE",
"387 1046 OFFCURVE",
"399 1102 CURVE SMOOTH",
"436 1278 LINE",
"639 1278 LINE",
"655 1362 LINE",
"455 1362 LINE",
"498 1556 LINE",
"403 1556 LINE",
"360 1362 LINE",
"229 1362 LINE",
"213 1278 LINE",
"344 1278 LINE",
"74 0 LINE",
"168 0 LINE",
"295 596 LINE SMOOTH",
"354 875 OFFCURVE",
"443 1012 OFFCURVE",
"582 1012 CURVE SMOOTH",
"653 1012 OFFCURVE",
"686 977 OFFCURVE",
"686 896 CURVE SMOOTH",
"686 871 OFFCURVE",
"682 842 OFFCURVE",
"676 815 CURVE SMOOTH",
"504 0 LINE",
"598 0 LINE"
);
}
);
width = 782;
}
);
note = afii10108;
unicode = 045B;
},
{
glyphname = "iu-cy";
lastChange = "2018-03-22 17:52:41 +0000";
layers = (
{
anchors = (
{
name = top;
position = "{684, 1085}";
}
);
layerId = "9047BFCD-DDCC-4357-AC30-29E5270711EF";
paths = (
{
closed = 1;
nodes = (
"1061 1008 OFFCURVE",
"992 1106 OFFCURVE",
"854 1106 CURVE SMOOTH",
"681 1106 OFFCURVE",
"550 929 OFFCURVE",
"475 610 CURVE",
"295 610 LINE",
"395 1085 LINE",
"303 1085 LINE",
"72 0 LINE",
"164 0 LINE",
"276 524 LINE",
"457 524 LINE",
"438 433 OFFCURVE",
"428 347 OFFCURVE",
"428 266 CURVE SMOOTH",
"428 75 OFFCURVE",
"500 -20 OFFCURVE",
"643 -20 CURVE SMOOTH",
"716 -20 OFFCURVE",
"785 18 OFFCURVE",
"849 94 CURVE SMOOTH",
"977 246 OFFCURVE",
"1061 544 OFFCURVE",
"1061 811 CURVE SMOOTH"
);
},
{
closed = 1;
nodes = (
"929 1016 OFFCURVE",
"969 956 OFFCURVE",
"969 811 CURVE SMOOTH",
"969 700 OFFCURVE",
"953 583 OFFCURVE",
"921 458 CURVE SMOOTH",
"857 208 OFFCURVE",
"756 66 OFFCURVE",
"643 66 CURVE SMOOTH",
"556 66 OFFCURVE",
"520 132 OFFCURVE",
"520 264 CURVE SMOOTH",
"520 376 OFFCURVE",
"536 495 OFFCURVE",
"568 622 CURVE SMOOTH",
"632 874 OFFCURVE",
"733 1016 OFFCURVE",
"846 1016 CURVE SMOOTH"
);
}
);
width = 1057;
}
);
note = afii10096;
unicode = 044E;
},
{
glyphname = "ia-cy";
lastChange = "2018-03-22 17:52:55 +0000";
layers = (
{
anchors = (
{
name = top;
position = "{524, 1085}";
}
);
layerId = "9047BFCD-DDCC-4357-AC30-29E5270711EF";
paths = (
{
closed = 1;
nodes = (
"432 0 LINE",
"526 0 LINE",
"758 1085 LINE",
"547 1085 LINE SMOOTH",
"320 1085 OFFCURVE",
"180 946 OFFCURVE",
"180 735 CURVE SMOOTH",
"180 616 OFFCURVE",
"224 541 OFFCURVE",
"311 510 CURVE",
"280 499 OFFCURVE",
"241 442 OFFCURVE",
"215 392 CURVE SMOOTH",
"199 361 OFFCURVE",
"170 286 OFFCURVE",
"138 203 CURVE SMOOTH",
"106 120 OFFCURVE",
"66 76 OFFCURVE",
"9 76 CURVE SMOOTH",
"-3 76 OFFCURVE",
"-20 78 OFFCURVE",
"-29 82 CURVE",
"-29 0 LINE",
"-10 -4 OFFCURVE",
"10 -6 OFFCURVE",
"31 -6 CURVE SMOOTH",
"116 -6 OFFCURVE",
"171 46 OFFCURVE",
"212 150 CURVE SMOOTH",
"250 246 LINE SMOOTH",
"281 324 OFFCURVE",
"303 372 OFFCURVE",
"320 400 CURVE SMOOTH",
"352 453 OFFCURVE",
"391 479 OFFCURVE",
"436 479 CURVE SMOOTH",
"535 479 LINE"
);
},
{
closed = 1;
nodes = (
"329 565 OFFCURVE",
"279 618 OFFCURVE",
"279 734 CURVE SMOOTH",
"279 894 OFFCURVE",
"374 999 OFFCURVE",
"530 999 CURVE SMOOTH",
"645 999 LINE",
"553 565 LINE",
"461 565 LINE SMOOTH"
);
}
);
width = 717;
}
);
note = afii10097;
unicode = 044F;
},
{
glyphname = "dje-cy";
lastChange = "2018-03-22 17:53:07 +0000";
layers = (
{
layerId = "9047BFCD-DDCC-4357-AC30-29E5270711EF";
paths = (
{
closed = 1;
nodes = (
"342 1270 LINE",
"74 0 LINE",
"168 0 LINE",
"295 596 LINE SMOOTH",
"354 875 OFFCURVE",
"443 1012 OFFCURVE",
"582 1012 CURVE SMOOTH",
"653 1012 OFFCURVE",
"686 977 OFFCURVE",
"686 896 CURVE SMOOTH",
"686 871 OFFCURVE",
"682 842 OFFCURVE",
"676 815 CURVE SMOOTH",
"485 -82 LINE SMOOTH",
"466 -169 OFFCURVE",
"452 -227 OFFCURVE",
"438 -268 CURVE SMOOTH",
"408 -357 OFFCURVE",
"376 -383 OFFCURVE",
"313 -383 CURVE SMOOTH",
"288 -383 OFFCURVE",
"258 -379 OFFCURVE",
"233 -371 CURVE",
"233 -463 LINE",
"256 -470 OFFCURVE",
"287 -473 OFFCURVE",
"316 -473 CURVE SMOOTH",
"418 -473 OFFCURVE",
"469 -436 OFFCURVE",
"511 -330 CURVE SMOOTH",
"532 -277 OFFCURVE",
"554 -200 OFFCURVE",
"578 -88 CURVE SMOOTH",
"766 797 LINE SMOOTH",
"775 840 OFFCURVE",
"780 882 OFFCURVE",
"780 916 CURVE SMOOTH",
"780 1039 OFFCURVE",
"716 1106 OFFCURVE",
"606 1106 CURVE SMOOTH",
"504 1106 OFFCURVE",
"424 1049 OFFCURVE",
"362 934 CURVE",
"358 934 LINE",
"399 1102 LINE",
"434 1270 LINE",
"664 1270 LINE",
"680 1354 LINE",
"453 1354 LINE",
"498 1556 LINE",
"403 1556 LINE",
"360 1354 LINE",
"254 1354 LINE",
"238 1270 LINE"
);
}
);
width = 782;
}
);
note = afii10099;
unicode = 0452;
},
{
glyphname = "omega-cy";
lastChange = "2018-03-22 17:53:12 +0000";
layers = (
{
layerId = "9047BFCD-DDCC-4357-AC30-29E5270711EF";
paths = (
{
closed = 1;
nodes = (
"664 0 LINE",
"924 316 OFFCURVE",
"1073 645 OFFCURVE",
"1165 1085 CURVE",
"1071 1085 LINE",
"986 688 OFFCURVE",
"861 398 OFFCURVE",
"666 123 CURVE",
"657 123 LINE",
"661 180 OFFCURVE",
"671 501 OFFCURVE",
"688 1085 CURVE",
"594 1085 LINE",
"586 662 LINE",
"276 137 LINE",
"270 137 LINE",
"276 250 OFFCURVE",
"281 347 OFFCURVE",
"284 514 CURVE SMOOTH",
"293 1085 LINE",
"199 1085 LINE",
"188 0 LINE",
"283 0 LINE",
"586 512 LINE",
"569 0 LINE"
);
}
);
width = 1044;
}
);
note = uni0461;
unicode = 0461;
},
{
glyphname = "yat-cy";
lastChange = "2018-03-22 17:53:18 +0000";
layers = (
{
layerId = "9047BFCD-DDCC-4357-AC30-29E5270711EF";
paths = (
{
closed = 1;
nodes = (
"272 1004 LINE",
"131 348 LINE SMOOTH",
"121 303 OFFCURVE",
"115 258 OFFCURVE",
"115 213 CURVE SMOOTH",
"115 56 OFFCURVE",
"190 -20 OFFCURVE",
"328 -20 CURVE SMOOTH",
"519 -20 OFFCURVE",
"643 125 OFFCURVE",
"643 334 CURVE SMOOTH",
"643 503 OFFCURVE",
"562 598 OFFCURVE",
"384 598 CURVE SMOOTH",
"358 598 OFFCURVE",
"311 596 OFFCURVE",
"279 592 CURVE",
"367 1004 LINE",
"518 1004 LINE",
"537 1085 LINE",
"385 1085 LINE",
"436 1319 LINE",
"342 1319 LINE",
"291 1085 LINE",
"162 1085 LINE",
"143 1004 LINE"
);
},
{
closed = 1;
nodes = (
"549 161 OFFCURVE",
"463 61 OFFCURVE",
"339 61 CURVE SMOOTH",
"251 61 OFFCURVE",
"209 112 OFFCURVE",
"209 218 CURVE SMOOTH",
"209 258 OFFCURVE",
"215 297 OFFCURVE",
"225 338 CURVE SMOOTH",
"264 504 LINE",
"315 509 OFFCURVE",
"359 512 OFFCURVE",
"384 512 CURVE SMOOTH",
"496 512 OFFCURVE",
"549 449 OFFCURVE",
"549 322 CURVE SMOOTH"
);
}
);
width = 707;
}
);
note = afii10194;
unicode = 0463;
},
{
glyphname = "eiotified-cy";
lastChange = "2018-03-21 19:05:46 +0000";
layers = (
{
layerId = "9047BFCD-DDCC-4357-AC30-29E5270711EF";
paths = (
{
closed = 1;
nodes = (
"717 -20 OFFCURVE",
"792 -1 OFFCURVE",
"829 20 CURVE",
"829 106 LINE",
"790 85 OFFCURVE",
"723 66 OFFCURVE",
"674 66 CURVE SMOOTH",
"578 66 OFFCURVE",
"526 126 OFFCURVE",
"526 281 CURVE SMOOTH",
"526 366 OFFCURVE",
"534 447 OFFCURVE",
"549 524 CURVE",
"807 524 LINE",
"825 610 LINE",
"567 610 LINE",
"628 866 OFFCURVE",
"739 1016 OFFCURVE",
"870 1016 CURVE SMOOTH",
"910 1016 OFFCURVE",
"948 1006 OFFCURVE",
"983 987 CURVE",
"1022 1073 LINE",
"983 1095 OFFCURVE",
"936 1106 OFFCURVE",
"879 1106 CURVE SMOOTH",
"695 1106 OFFCURVE",
"543 925 OFFCURVE",
"467 610 CURVE",
"297 610 LINE",
"397 1085 LINE",
"303 1085 LINE",
"72 0 LINE",
"166 0 LINE",
"279 524 LINE",
"451 524 LINE",
"436 436 OFFCURVE",
"428 354 OFFCURVE",
"428 279 CURVE SMOOTH",
"428 74 OFFCURVE",
"516 -20 OFFCURVE",
"657 -20 CURVE SMOOTH"
);
}
);
width = 930;
}
);
note = uni0465;
unicode = 0465;
},
{
glyphname = "yuslittle-cy";
lastChange = "2018-03-22 17:53:30 +0000";
layers = (
{
layerId = "9047BFCD-DDCC-4357-AC30-29E5270711EF";
paths = (
{
closed = 1;
nodes = (
"631 0 LINE",
"571 1085 LINE",
"473 1085 LINE",
"-49 0 LINE",
"47 0 LINE",
"295 524 LINE",
"356 524 LINE",
"244 0 LINE",
"336 0 LINE",
"449 524 LINE",
"510 524 LINE",
"537 0 LINE"
);
},
{
closed = 1;
nodes = (
"397 741 OFFCURVE",
"432 819 OFFCURVE",
"445 850 CURVE SMOOTH",
"457 879 OFFCURVE",
"480 936 OFFCURVE",
"498 985 CURVE",
"506 985 LINE",
"502 961 OFFCURVE",
"501 857 OFFCURVE",
"501 830 CURVE SMOOTH",
"504 610 LINE",
"338 610 LINE"
);
}
);
width = 700;
}
);
note = uni0467;
unicode = 0467;
},
{
glyphname = "yuslittleiotified-cy";
lastChange = "2018-03-22 17:53:36 +0000";
layers = (
{
layerId = "9047BFCD-DDCC-4357-AC30-29E5270711EF";
paths = (
{
closed = 1;
nodes = (
"944 0 LINE",
"885 1085 LINE",
"786 1085 LINE",
"557 610 LINE",
"297 610 LINE",
"397 1085 LINE",
"303 1085 LINE",
"72 0 LINE",
"166 0 LINE",
"279 524 LINE",
"516 524 LINE",
"264 0 LINE",
"360 0 LINE",
"608 524 LINE",
"670 524 LINE",
"557 0 LINE",
"649 0 LINE",
"762 524 LINE",
"823 524 LINE",
"850 0 LINE"
);
},
{
closed = 1;
nodes = (
"692 699 OFFCURVE",
"730 781 OFFCURVE",
"733 788 CURVE SMOOTH",
"755 836 OFFCURVE",
"799 951 OFFCURVE",
"811 985 CURVE",
"819 985 LINE",
"815 961 OFFCURVE",
"814 857 OFFCURVE",
"814 830 CURVE SMOOTH",
"817 610 LINE",
"651 610 LINE"
);
}
);
width = 1014;
}
);
note = uni0469;
unicode = 0469;
},
{
glyphname = "yusbig-cy";
lastChange = "2018-03-22 17:53:40 +0000";
layers = (
{
layerId = "9047BFCD-DDCC-4357-AC30-29E5270711EF";
paths = (
{
closed = 1;
nodes = (
"272 1014 LINE",
"420 631 LINE",
"372 629 OFFCURVE",
"335 621 OFFCURVE",
"300 605 CURVE SMOOTH",
"235 576 OFFCURVE",
"200 531 OFFCURVE",
"139 397 CURVE SMOOTH",
"-43 0 LINE",
"53 0 LINE",
"168 249 OFFCURVE",
"230 381 OFFCURVE",
"250 420 CURVE SMOOTH",
"268 456 OFFCURVE",
"288 482 OFFCURVE",
"300 495 CURVE SMOOTH",
"332 530 OFFCURVE",
"368 545 OFFCURVE",
"424 545 CURVE SMOOTH",
"442 545 LINE",
"326 0 LINE",
"420 0 LINE",
"535 545 LINE",
"551 545 LINE SMOOTH",
"644 545 OFFCURVE",
"672 517 OFFCURVE",
"680 354 CURVE SMOOTH",
"698 0 LINE",
"791 0 LINE",
"782 166 OFFCURVE",
"773 332 OFFCURVE",
"771 366 CURVE SMOOTH",
"767 436 OFFCURVE",
"758 491 OFFCURVE",
"746 524 CURVE SMOOTH",
"724 585 OFFCURVE",
"676 624 OFFCURVE",
"600 631 CURVE",
"905 1014 LINE",
"915 1085 LINE",
"287 1085 LINE"
);
},
{
closed = 1;
nodes = (
"377 999 LINE",
"782 999 LINE",
"510 641 LINE"
);
}
);
width = 864;
}
);
note = uni046B;
unicode = 046B;
},
